<svg width="181" height="94" viewBox="0 0 181 94" fill="none" xmlns="http://www.w3.org/2000/svg">
<path d="M0.918945 87.0726C0.918945 89.3766 2.45496 91.5526 5.14294 91.5526H40.983C43.671 91.5526 45.207 89.3766 45.207 87.0726C45.207 84.8966 44.311 83.3606 41.751 82.4646L40.855 82.2086C38.2949 81.4406 37.015 80.1606 36.2469 78.3687C35.223 76.3206 34.8389 73.8887 34.8389 70.4326V61.8566C34.8389 59.8086 34.967 58.9126 35.991 57.7606L39.959 53.4086C40.855 52.5126 41.751 52.7686 42.1349 53.5366L57.6229 76.1926C58.903 78.1127 59.2869 79.0087 59.2869 79.7766C59.2869 81.0566 58.2629 81.6967 56.7269 82.0806L55.191 82.4646C52.887 83.2327 52.119 85.0247 52.119 86.9446C52.119 89.6326 53.655 91.5526 56.087 91.5526H90.1349C93.719 91.5526 95.127 89.3766 95.127 86.8167C95.127 84.5126 93.9749 82.8486 91.0309 82.2086C85.527 81.1846 83.863 79.1366 80.1509 73.8887L56.4709 40.2246C55.319 38.8167 55.575 37.6646 56.855 36.3846L73.879 17.9526C77.5909 13.9846 79.639 12.7046 85.3989 11.2966C88.343 10.6566 89.495 8.73657 89.495 6.56055C89.495 3.87256 88.0869 1.95264 84.887 1.95264H57.879C54.9349 1.95264 53.783 3.87256 53.783 6.04858C53.783 8.73657 55.447 9.88867 57.879 10.9126C60.567 11.5526 61.335 12.4486 61.335 13.7286C61.335 14.8806 60.567 16.4166 58.647 18.5927L37.015 43.2966C35.991 44.4486 34.8389 43.8086 34.8389 42.4006V24.2246C34.8389 20.2566 35.095 17.6967 35.735 15.5206C36.5029 13.6006 37.527 12.4486 40.087 11.8086L42.3909 11.2966C45.335 10.5286 46.3589 8.73657 46.3589 6.43262C46.3589 4.12866 44.8229 1.95264 42.1349 1.95264H5.14294C2.45496 1.95264 0.918945 4.12866 0.918945 6.43262C0.918945 8.73657 1.94293 10.6566 4.88696 11.2966L8.21497 12.0646C11.1589 12.5767 12.567 13.6006 13.5909 15.7766C14.3589 17.6967 14.871 20.3846 14.871 24.4806V69.0247C14.871 73.3766 14.231 75.9366 13.335 77.9846C12.439 79.9047 11.0309 80.9286 8.21497 81.4406L4.88696 82.2086C1.94293 82.8486 0.918945 84.7686 0.918945 87.0726Z" fill="#333F72"/>
<path d="M102.998 35.3606C102.998 37.2806 104.662 38.4326 106.454 38.4326C107.478 38.4326 108.63 38.1766 109.654 37.1526C116.054 31.1366 121.302 22.5605 121.302 12.3206C121.302 4.89661 116.822 0.416626 109.782 0.416626C103.254 0.416626 99.0299 4.38464 99.0299 9.88867C99.0299 14.6414 101.282 16.3027 103.326 17.8112C105.026 19.0652 106.582 20.2135 106.582 22.9446C106.582 26.4006 105.046 29.9846 103.638 32.9286C103.254 33.8246 102.998 34.4646 102.998 35.3606Z" fill="#333F72"/>
<path d="M127.163 78.8806C127.163 86.5607 134.971 93.2166 153.403 93.2166C171.835 93.2166 180.795 85.6646 180.795 74.2726C180.795 60.5767 169.275 57.2487 159.675 54.6886L159.623 54.675C152.864 52.8894 147.515 51.4766 147.515 46.7526C147.515 43.2966 150.075 40.9926 154.427 40.9926C159.419 40.9926 161.851 43.4246 163.643 47.1366C165.691 50.8486 168.379 52.0006 171.067 52.0006C174.523 52.0006 178.107 50.2086 178.107 45.4727C178.235 37.6646 167.867 32.0326 153.787 32.0326C137.147 32.0326 128.187 39.8406 128.187 50.4646C128.187 64.2886 139.579 67.4886 149.051 69.9207C149.412 70.0248 149.77 70.1271 150.123 70.2281C156.288 71.9907 161.211 73.3983 161.211 78.2406C161.211 82.0806 158.651 84.1287 153.787 84.1287C148.923 84.1287 144.827 82.4646 142.907 76.9606C140.987 72.6086 138.171 71.3286 134.715 71.3286C130.235 71.3286 127.163 74.1447 127.163 78.8806Z" fill="#333F72"/>
</svg>
