<svg width="242" height="180" viewBox="0 0 242 180" fill="none" xmlns="http://www.w3.org/2000/svg">
<g clip-path="url(#clip0_1_2192)">
<path d="M47.3228 128.36C48.7316 127.573 50.0515 126.732 51.5999 126.216C52.1583 126.009 52.7463 126.25 53.0803 126.703C53.7654 127.68 54.1798 128.797 54.7929 129.791C55.4061 130.785 56.125 131.906 56.1798 133.108C55.7059 133.674 55.1263 134.114 54.4409 134.427C52.0422 135.522 49.8675 137.248 48.4923 139.468C47.7602 140.551 48.0772 142.222 46.8672 142.886C45.5134 143.584 44.1596 144.281 42.6832 144.78C40.9191 145.347 39.2395 146.273 37.4754 146.839C35.3856 147.634 33.3633 148.717 31.3073 149.655C29.3782 150.488 27.6224 151.736 25.6933 152.569C23.2226 153.681 20.8915 155.064 18.2856 155.6C16.6359 155.684 15.6548 154.094 14.792 153.006C13.9336 151.615 12.7875 150.29 12.166 148.615C12.7204 147.422 13.9473 146.83 15.0134 146.2C18.6476 143.904 22.2436 141.768 26.0173 139.743C33.0783 135.882 40.173 132.165 47.3228 128.36Z" fill="#333F72"/>
<path d="M211.737 63.2991C217.042 60.6859 222.296 57.857 227.775 55.6584C230.229 54.4744 232.839 53.6332 235.326 52.593C236.024 52.6566 236.354 53.4139 236.705 53.9385C237.124 54.7508 237.847 55.5673 237.851 56.553C237.715 57.2678 236.924 57.4538 236.455 57.716C233.028 59.2805 229.551 60.6292 226.213 62.2487C223.755 63.7372 221.068 64.9 218.416 66.2065C216.14 67.5005 213.741 68.5956 211.359 69.7627C209.066 70.9847 206.583 71.7203 204.256 72.7985C203.363 72.553 202.716 71.4149 203.195 70.5436C202.901 70.1572 202.632 69.7651 202.387 69.3675C202.611 68.7076 202.535 67.7389 203.326 67.5529C206.212 66.2675 208.852 64.5844 211.737 63.2991Z" fill="#333F72"/>
<path d="M60.1048 93.6326C60.7437 92.7994 61.2769 91.8392 62.2161 91.3149C63.4092 90.5791 64.7925 90.3298 66.2096 90.2243C66.4423 90.2455 66.9076 90.2879 67.1233 90.2372C67.1571 90.381 67.1359 90.6137 67.0978 90.7744C64.9827 90.8163 62.5588 91.1584 61.3317 93.0406C60.3965 94.5506 59.0003 95.7136 57.2912 96.1913C56.4832 96.3053 55.8655 96.9059 55.8188 97.6758C55.569 98.8728 55.7676 100.04 55.7335 101.187C55.5728 101.149 55.2682 101.144 55.1794 101.089C54.9513 99.4734 54.4948 97.5317 55.6245 96.2036C57.0545 95.1844 58.992 95.0325 60.1048 93.6326Z" fill="black"/>
<path d="M71.0365 88.4825C71.7937 88.1527 72.5974 88.3432 73.3842 88.4619C74.6535 87.4046 76.2399 86.7281 77.8854 86.9484C79.0106 87.2151 80.0426 87.7314 81.1297 88.1588C82.1577 87.6895 83.19 86.9156 84.3533 87.0216C85.7111 87.3095 86.9547 88.0796 88.0543 88.8836C87.9274 88.9893 87.8343 89.2389 87.7793 89.3277C86.836 88.8664 85.9478 88.3163 85.0215 87.927C84.184 87.5926 83.3379 87.8674 82.5806 88.1972C83.6041 89.3226 83.921 90.9936 83.6838 92.5672C83.54 92.601 83.2861 92.8125 83.1592 92.9182C83.134 92.1652 83.1807 91.3953 83.1554 90.6424C82.9695 89.8513 82.8216 88.8995 81.8572 88.6708C81.0618 89.1614 80.2256 89.5856 79.3484 89.9436C79.5178 89.3726 79.9705 89.0385 80.4231 88.7044C79.5137 88.3869 78.6805 87.748 77.6611 87.6082C75.9606 87.4767 74.6363 88.6228 73.1768 89.1936C72.4619 89.0581 71.5651 89.1172 71.0365 88.4825Z" fill="black"/>
<path d="M67.182 93.7145C66.9706 93.4606 66.7535 93.1828 66.5307 92.881C66.6832 92.238 66.8525 91.667 66.8442 90.9859C65.8118 91.7598 65.6592 93.693 67.0677 94.1967C67.0339 94.0528 67.127 93.8033 67.182 93.7145Z" fill="black"/>
<path d="M71.5611 89.4217C71.7768 89.3709 72.2972 89.3245 72.5298 89.3457C72.847 89.7265 73.0373 90.213 73.2275 90.6995C72.4957 90.4921 72.0559 89.9125 71.5611 89.4217Z" fill="black"/>
<path d="M113.05 69.9544C113.769 69.7853 114.463 70.1535 115.199 70.0563C115.956 69.7265 116.608 69.2698 117.382 69.0119C118.698 68.4749 120.229 69.1775 121.511 68.4967C122.522 67.9554 123.567 67.558 124.734 67.3594C125.953 67.3766 127.518 66.9327 128.309 68.037C127.213 68.2186 126.071 67.88 124.992 68.1336C123.592 68.311 122.488 69.1018 121.244 69.6218C121.624 70.5948 121.59 71.7412 121.146 72.7564C121.095 72.5406 120.939 72.1979 120.816 71.9991C120.897 71.3731 120.833 70.7808 120.842 70.1717C120.825 70.0998 120.63 69.9178 120.597 69.774C119.539 69.7949 118.503 69.5832 117.424 69.8368C116.472 69.9847 115.689 70.8517 114.721 70.9276C114.969 71.1223 115.241 71.3113 115.537 71.4946C115.664 71.819 115.809 72.1137 115.973 72.3788C115.846 72.4846 115.63 72.5353 115.503 72.641C115.152 72.1164 114.763 71.7525 114.357 71.3167C114.467 71.1391 114.571 70.9375 114.67 70.7119C114.023 70.864 113.401 70.479 113.05 69.9544Z" fill="black"/>
<path d="M110.444 73.0714C110.918 72.5046 111.503 72.0888 112.2 71.8239C111.848 72.5894 111.197 73.0462 110.723 73.6129C110.266 74.2516 109.915 75.0172 109.157 75.347C109.221 74.649 109.623 74.0992 110.042 73.6212C110.08 73.4605 110.317 73.1771 110.444 73.0714Z" fill="black"/>
<path d="M153.54 53.9851C155.194 52.3061 157.132 50.864 159.522 50.378C160.043 50.3315 160.639 49.9636 161.134 50.4544C160.195 50.9788 159.137 50.9997 158.126 51.541C156.053 52.4078 153.955 53.8117 153.028 56.0028C152.457 57.1237 152.207 58.3207 151.885 59.5347C151.758 59.6405 151.504 59.8519 151.305 59.9746C151.175 57.8045 152.19 55.6684 153.54 53.9851Z" fill="black"/>
<path d="M104.504 77.5034C104.994 77.0086 105.502 76.5857 106.01 76.1628C106.099 76.2178 106.42 76.294 106.509 76.349C104.224 78.2521 103.306 81.1242 102.425 83.8356C102.18 84.7281 101.596 85.4725 101.439 86.42C101.155 88.7635 100.622 91.0138 100.017 93.2811C99.6443 93.4192 99.2776 93.5812 98.9166 93.7673C98.5868 93.01 99.7713 92.8834 99.7629 92.2023C100.114 90.1465 100.699 88.1119 100.873 85.9461C101.791 83.074 102.748 80.0412 104.504 77.5034Z" fill="black"/>
<path d="M61.0937 98.4847C61.5083 98.3114 62.0287 98.265 62.2739 98.6626C62.8195 99.3692 63.365 100.076 63.7117 100.905C65.0443 100.44 66.5672 100.461 67.7602 99.7255C68.4035 98.5877 66.8597 97.5087 67.5748 96.354C68.2218 97.4921 68.7037 98.8966 68.2551 100.216C66.7405 100.876 65.0145 101.282 63.3267 101.527C62.963 100.626 62.4556 99.7583 61.7662 99.0855C61.5717 98.9036 61.2714 98.5947 61.0937 98.4847Z" fill="black"/>
<path d="M57.6284 102.79C57.7513 101.699 58.1069 100.629 58.9065 99.8336C59.2406 100.286 58.8937 100.747 58.6905 101.175C58.4324 101.691 58.335 102.245 58.2376 102.799C58.4955 103.573 59.2484 103.548 59.9338 103.235C59.794 104.254 58.7745 104.115 58.1147 103.89C57.9286 103.529 57.7665 103.163 57.6284 102.79Z" fill="black"/>
<path d="M65.0195 97.1065C65.6879 96.7217 66.3564 96.3369 67.1305 96.079C66.7412 97.0054 65.7682 97.3859 64.939 97.7326C64.9771 97.5718 64.9814 97.2673 65.0195 97.1065Z" fill="black"/>
<path d="M109.296 78.1983C109.411 77.7161 109.313 76.98 109.855 76.7009C110.477 77.086 109.783 78.008 109.296 78.1983Z" fill="black"/>
<path d="M69.2625 96.1092C70.8701 95.2 72.6004 94.4897 74.2419 93.7244C74.7523 93.9585 75.2203 94.2279 75.6461 94.5326C76.5301 95.3873 77.2023 97.2783 75.8654 98.0479C75.8402 97.2949 76.0645 96.6351 76.0393 95.8821C75.794 95.4844 75.4218 95.1925 75.1046 94.8117C74.927 94.7017 74.6267 94.3928 74.449 94.2828C72.8076 95.0481 70.9378 95.4877 69.4697 96.6676C69.3553 97.1498 69.3129 97.6151 69.0929 97.9704C68.8984 97.7885 68.6362 97.3189 68.5135 97.12C68.7336 96.7647 68.9832 96.4278 69.2625 96.1092Z" fill="black"/>
<path d="M107.308 78.1344C108.222 78.1472 109.499 79.0612 109.127 80.0594C108.454 79.4586 107.782 78.8578 107.308 78.1344Z" fill="black"/>
<path d="M132.573 66.8068C133.512 66.2824 134.21 67.6362 135.162 67.4883C136.812 67.4041 138.605 67.286 140.17 68.1323C141.769 69.1225 144.007 69.2795 145.022 71.0141C145.246 71.6444 145.952 72.3891 145.245 72.9346C144.594 70.8109 142.492 69.9391 140.601 69.3211C141.05 70.5818 141.261 72.1258 140.651 73.4075C140.293 73.3905 139.929 73.3495 139.56 73.2846C139.759 73.1619 140.228 72.8998 140.427 72.7771C140.483 71.3981 140.36 69.909 139.552 68.7329C138.254 68.0516 136.748 68.102 135.331 68.2075C134.218 68.3173 133.279 67.5514 132.573 66.8068Z" fill="black"/>
<path d="M159.665 55.505C159.302 54.6039 160.19 53.8638 160.875 53.5509C161.006 54.4308 160.05 54.8832 159.665 55.505Z" fill="black"/>
<path d="M165.656 51.2888C166.041 50.667 166.912 51.1452 167.437 50.7942C168.753 50.2572 169.895 49.3057 171.346 49.344C172.814 49.4543 174.239 50.0299 175.652 50.229C175.868 50.1783 176.172 50.1826 176.333 50.2207C177.123 50.1362 177.888 50.0574 178.63 49.9843C181.316 50.1117 183.736 51.3643 186.121 52.4731C187.492 53.1375 189.048 53.3028 190.419 53.9672C192.161 54.9236 193.083 56.9077 194.479 58.3251C195.147 59.2305 196.196 59.8187 196.936 60.7072C195.929 60.9439 195.244 59.9666 194.517 59.4546C192.977 58.071 191.912 56.1207 190.262 54.9147C188.697 54.0684 186.891 53.81 185.309 52.8917C183.3 51.7703 181.181 50.8266 178.892 50.4539C177.475 50.5593 175.999 51.0582 174.552 50.7153C173.499 50.4316 172.391 50.2368 171.282 50.042C169.277 49.9062 167.665 52.4102 165.656 51.2888Z" fill="black"/>
<path d="M113.535 77.5053C114.36 76.173 115.435 74.9337 117 74.4899C117.918 74.1982 118.904 74.1942 119.856 74.0463C119.889 74.1901 119.868 74.4228 119.83 74.5835C118.663 74.7821 117.478 74.9088 116.344 75.2512C115.566 75.8136 114.982 76.558 114.381 77.2305C114.029 77.6675 113.735 78.1413 113.501 78.6517C113.987 79.7516 115.07 80.4836 116.085 80.928C117.828 80.5942 119.537 80.1165 121.09 79.2962C121.475 78.6744 121.843 77.9807 121.962 77.194C121.484 76.7751 121.006 76.3562 120.418 76.115C120.557 76.3857 120.765 76.9441 120.904 77.2149C120.743 77.1768 120.422 77.1006 120.261 77.0625C120.16 76.631 120.082 76.1939 120.029 75.7511C121.074 75.3537 121.958 76.2083 122.448 77.0037C122.702 78.0825 121.919 78.9495 121.513 79.8039C119.85 80.8019 117.841 80.9707 116.094 81.6091C114.774 81.1604 113.513 80.3184 113.031 78.9138C113.07 78.7531 113.184 78.2709 113.222 78.1101C112.934 78.1778 112.431 78.2961 112.16 78.4357C112.152 78.1847 112.143 77.9337 112.135 77.6827C111.957 77.5727 111.708 77.4795 111.53 77.3695C112.198 76.9847 112.875 77.281 113.535 77.5053Z" fill="black"/>
<path d="M52.9659 106.846C53.406 106.136 53.7785 105.137 54.6415 104.934C54.6753 105.078 54.7979 105.277 54.8148 105.349C53.1688 107.709 52.1784 110.598 52.55 113.471C52.6472 114.207 52.7443 114.943 52.6807 115.641C52.5031 115.531 52.2916 115.277 52.114 115.167C51.4546 112.362 51.7471 109.409 52.9659 106.846Z" fill="black"/>
<path d="M76.9704 94.6765C77.1735 94.2493 77.5543 93.9321 78.0746 93.8857C79.3353 93.4375 80.7524 93.332 82.0002 93.7976C82.3174 94.1784 82.6896 94.4703 82.8079 94.9738C83.1123 96.2683 83.8312 97.3894 84.2624 98.5782C84.3638 99.0097 84.1607 99.4369 83.763 99.6821C83.7265 98.8812 83.5335 98.1677 83.1839 97.5415C82.6596 96.6023 82.406 95.5236 82.0805 94.4618C80.4266 93.5604 78.6583 94.4315 76.9704 94.6765Z" fill="black"/>
<path d="M121.264 74.5499C121.636 73.5516 122.381 72.8453 123.371 72.5367C123.405 72.6806 123.329 73.0021 123.307 73.2347C122.766 73.5138 122.295 73.8775 121.894 74.3258C122.055 75.6541 123.624 76.1959 123.641 77.558C122.503 76.9148 121.767 75.7217 121.264 74.5499Z" fill="black"/>
<path d="M165.097 52.7861C166.155 52.7652 166.226 54.0385 166.628 54.7789C167.023 54.7366 167.429 54.7424 167.846 54.796C167.411 55.202 166.852 55.4092 166.666 55.9083C166.404 56.7289 166.949 57.4355 167.262 58.1208C167.82 57.9137 168.451 57.6896 169.094 57.842C169.394 58.1509 168.886 58.5738 168.565 58.4976C167.292 58.5692 166.086 58.9285 164.965 59.6474C164.931 59.5036 164.791 59.2329 164.758 59.089C165.347 58.7987 165.936 58.5083 166.526 58.218C166.306 57.7131 166.11 57.2026 165.938 56.6865C165.964 56.1493 165.955 55.4682 166.569 55.1723C165.698 54.6941 165.66 53.5646 165.097 52.7861Z" fill="black"/>
<path d="M125.639 71.852C126.163 71.501 126.696 71.831 127.123 72.0342C127.559 72.9184 127.994 73.8025 128.358 74.7036C128.337 74.9363 128.366 75.3847 128.328 75.5454C128.273 75.6343 128.057 75.685 127.986 75.7019C127.715 74.5512 127.373 73.4175 126.633 72.529C126.277 72.3089 125.946 72.0833 125.639 71.852Z" fill="black"/>
<path d="M131.405 69.5858C132.526 70.1571 132.415 71.6249 133.029 72.6191C133.688 72.8435 134.437 73.1228 135.152 73.2583C136.404 73.4193 137.487 72.8611 138.705 72.8783C137.94 73.8172 136.527 73.6181 135.431 73.7998C134.484 73.6431 133.464 73.5033 132.576 72.9532C131.963 71.959 131.603 70.7533 131.405 69.5858Z" fill="black"/>
<path d="M68.5895 99.3788C69.3382 99.6582 69.998 99.8825 70.7679 99.9292C72.4896 99.828 73.9746 98.72 75.578 98.1154C74.8374 99.8073 72.6461 100.171 70.9751 100.488C70.1164 100.386 68.915 100.441 68.5895 99.3788Z" fill="black"/>
<path d="M157.918 57.4337C158.324 57.8695 158.315 58.4787 158.29 59.0159C158.15 60.0353 157.866 61.0886 157.388 61.9599C157.046 60.8262 157.778 59.7434 157.74 58.6139C157.746 58.2078 157.805 57.8144 157.918 57.4337Z" fill="black"/>
<path d="M103.03 86.7292C102.628 85.9889 102.48 85.0371 102.903 84.2546C103.216 84.0798 103.577 83.8937 103.986 83.6964C104.02 83.8402 104.16 84.111 104.193 84.2548C103.869 84.3817 103.55 84.5325 103.237 84.7072C103.232 85.1133 103.25 85.5138 103.292 85.9086C103.453 85.9467 103.812 85.8622 104.045 85.8834C104.129 86.243 103.893 86.5264 103.816 86.8478C103.656 86.8097 103.19 86.7673 103.03 86.7292Z" fill="black"/>
<path d="M148.555 64.4157C149.287 63.3329 150.163 62.2163 151.339 61.4086C151.445 61.5355 151.622 61.6455 151.783 61.6836C150.239 63.185 148.728 64.8303 148 66.8987C146.972 68.6582 146.227 70.6547 146.324 72.681L145.943 72.9982C145.875 72.7105 145.812 72.1182 145.745 71.8306C145.982 70.257 146.363 68.6496 147.116 67.3342C147.649 66.3741 147.916 65.2489 148.555 64.4157Z" fill="black"/>
<path d="M91.6921 90.1532C92.8935 90.0985 94.1797 89.1131 95.3513 89.9002C96.506 90.6153 97.6226 91.4911 98.3584 92.6842C98.7094 93.2088 97.9733 93.306 97.7449 92.9802C96.6833 92.0155 95.6599 90.8901 94.3063 90.2976C93.5153 90.4835 92.1234 91.342 91.6921 90.1532Z" fill="black"/>
<path d="M169.09 54.2759C170.44 53.8828 171.764 54.0269 173.071 54.0991C173.858 54.2177 174.738 54.0867 175.376 54.5437C174.331 54.9411 175.029 56.2949 175.071 57.1198C175.13 58.0166 174.724 58.871 173.721 58.8031C173.688 58.6593 173.692 58.3547 173.73 58.194L174.212 58.3083C174.288 57.9868 174.389 57.6597 174.513 57.327C174.399 56.519 174.268 55.6391 174.082 54.848C173.261 54.5856 172.381 54.7165 171.523 54.6148C170.77 54.64 170.052 54.7076 169.369 54.8174C169.336 54.6736 169.196 54.4028 169.09 54.2759Z" fill="black"/>
<path d="M89.344 92.7544C89.3949 91.6799 90.9642 92.2217 91.7341 92.2684C91.9751 92.9706 91.8734 93.8293 91.8267 94.5992C91.7886 94.76 91.8562 95.0476 91.835 95.2803C91.8293 95.6864 91.7164 96.0671 91.4964 96.4224C91.4457 96.2066 91.2723 95.792 91.2047 95.5043C91.2428 95.3436 91.2471 95.039 91.2683 94.8064C91.3064 94.6456 91.3107 94.3411 91.2599 94.1253C91.3249 93.7559 91.3955 93.4105 91.4717 93.089C90.9261 92.3824 90.025 92.7461 89.344 92.7544Z" fill="black"/>
<path d="M106.736 84.4161C108.343 83.5069 109.884 82.3101 111.855 82.302C110.336 83.2662 108.538 83.6888 107.159 84.9238C106.951 85.6556 107.01 86.5524 106.57 87.2629C106.063 86.3956 106.418 85.3255 106.736 84.4161Z" fill="black"/>
<path d="M162.592 57.6248C163.611 57.7646 164.246 58.5262 164.609 59.4273C164.246 59.8164 163.865 60.1336 163.484 60.4508C163.349 59.8754 163.73 59.5582 163.861 59.1479C163.493 58.5514 162.96 58.2214 162.592 57.6248Z" fill="black"/>
<path d="M62.141 106.814C62.1032 105.685 63.2243 104.966 64.1085 104.53C64.4215 104.355 64.7078 104.389 64.9672 104.632C63.8672 105.118 63.0295 106.074 62.141 106.814Z" fill="black"/>
<path d="M153.94 63.7568C153.839 62.0351 155.536 61.1809 157.046 60.8259C156.318 61.6041 155.112 61.9634 154.579 62.9236C154.173 63.778 155.433 64.62 154.689 65.3263C154.41 64.7848 154.16 64.2616 153.94 63.7568Z" fill="black"/>
<path d="M67.8103 103.812C67.8484 103.651 68.0853 103.368 68.1403 103.279C68.7873 104.417 69.2524 105.75 69.2521 107.04C69.3535 107.471 69.0616 107.843 68.7358 108.072C68.7573 106.549 68.4911 105.094 67.8103 103.812Z" fill="black"/>
<path d="M58.5957 109.165C58.6719 108.844 58.7298 108.552 58.7693 108.29C59.3278 108.083 59.8905 107.571 60.3472 108.222C59.9382 108.42 59.5293 108.617 59.1203 108.814C59.4332 109.5 59.7405 110.161 60.0421 110.799C61.0532 110.257 61.7472 109.335 62.2634 108.303C62.6483 108.972 62.2632 109.593 61.9331 110.126C61.3323 110.799 60.52 111.217 59.6908 111.564C59.2722 110.752 58.9255 109.923 58.5957 109.165Z" fill="black"/>
<path d="M124.72 77.3044C125.316 76.9365 125.946 76.7125 126.632 76.3996C127.08 76.3701 127.512 76.2686 127.943 76.1672C127.977 76.311 127.973 76.6156 127.935 76.7763C126.822 76.8861 125.828 77.4993 124.72 77.3044Z" fill="black"/>
<path d="M176.413 53.4652C175.994 52.6529 177.175 52.8308 177.64 52.8732C178.731 52.9961 180.093 52.9794 180.723 54.0456C179.294 53.7745 177.847 53.4316 176.413 53.4652Z" fill="black"/>
<path d="M77.2272 100.612C77.9547 101.124 78.716 101.779 79.6509 101.56C80.332 101.551 81.0936 100.917 81.5672 101.64C80.3615 102 79.012 102.393 77.8192 101.838C77.6628 101.496 77.3837 100.954 77.2272 100.612Z" fill="black"/>
<path d="M121.779 79.9689C122.249 79.7067 122.752 79.5883 123.306 79.6857C123.64 80.1384 124.617 80.7435 123.945 81.4329C123.805 81.1622 123.543 80.6926 123.42 80.4937C123.314 80.3668 122.993 80.2906 122.887 80.1637C122.473 80.337 121.969 80.4554 121.779 79.9689Z" fill="black"/>
<path d="M158.056 62.8653C158.957 62.5017 159.909 62.3538 160.827 62.0621C160.793 63.2085 159.236 63.0432 158.462 63.3011C158.356 63.1742 158.162 62.9922 158.056 62.8653Z" fill="black"/>
<path d="M70.4707 104.477C70.6695 104.354 71.0122 104.197 71.2279 104.147C71.3506 104.346 71.5958 104.743 71.7354 105.014C71.5027 104.993 71.1982 104.989 71.0374 104.95C71.2234 105.741 71.3205 106.478 71.3627 107.302C71.5234 107.341 71.8999 107.328 72.0606 107.366C72.636 107.231 73.3806 106.524 73.7823 107.265C73.0251 107.595 72.0859 108.119 71.3034 107.696C70.5633 106.807 70.6523 105.572 70.4707 104.477Z" fill="black"/>
<path d="M76.4528 102.16C76.8448 102.32 77.0675 102.622 77.121 103.065C77.3408 104 77.4505 105.112 77.0611 106.039C76.2545 106.481 75.4606 106.87 74.6793 107.206C74.5736 107.079 74.506 106.791 74.4722 106.647C75.1575 106.334 75.9317 106.077 76.5663 105.548C76.8076 104.96 76.6723 104.385 76.6809 103.776C76.5569 103.248 76.4809 102.709 76.4528 102.16Z" fill="black"/>
<path d="M107.048 87.6817C108.055 87.4451 108.668 88.4393 109.269 89.057C109.04 89.1613 108.825 89.212 108.621 89.2092C108.11 88.6464 107.543 88.1725 107.048 87.6817Z" fill="black"/>
<path d="M171.018 59.8941C170.794 59.2638 170.481 58.5784 170.257 57.9481C171.01 57.9229 172.106 57.7412 172.579 58.4646C172.076 58.583 171.522 58.4856 171.039 58.3713C171.441 59.1116 171.682 59.8139 171.724 60.6388C171.627 61.1929 171.724 61.929 171.111 62.225C171.085 61.472 171.132 60.7021 171.018 59.8941Z" fill="black"/>
<path d="M63.0078 108.887C63.655 108.735 64.3149 108.959 65.0129 109.023C65.7066 108.961 66.4243 108.894 67.1661 108.82C67.1999 108.964 67.2506 109.18 67.2125 109.341C65.7954 109.446 64.1751 109.979 63.0078 108.887Z" fill="black"/>
<path d="M152.121 66.9926C153.529 66.2061 155.128 65.906 156.672 65.6948C157.049 65.6822 157.37 65.7584 157.726 65.9785C158.102 65.9659 158.534 65.8644 158.707 66.279C159.155 67.5397 160.428 68.7582 159.996 70.1499C159.299 68.7961 158.546 67.5311 157.865 66.2492C156.093 66.1347 154.295 66.5573 152.67 67.3946C153.025 68.9048 153.507 70.3093 154.006 71.7857C155.263 71.6422 156.384 70.9233 157.729 70.8347C157.763 70.9785 157.742 71.2112 157.703 71.3719C156.409 71.6762 155.076 72.1413 153.782 72.4456C153.253 71.811 153.033 70.8761 152.776 70.1019C152.467 69.112 152.141 68.0501 152.121 66.9926Z" fill="black"/>
<path d="M115.315 84.7519C115.441 84.6462 115.552 84.4686 115.678 84.3628C116.203 85.302 115.615 86.351 115.119 87.1504C114.904 87.2011 114.489 87.3745 114.29 87.4971C114.697 86.6427 115.247 85.7545 115.315 84.7519Z" fill="black"/>
<path d="M117.726 84.0332C118.121 83.991 118.503 84.0024 118.872 84.0673C118.923 84.2831 119.096 84.6977 119.147 84.9134C118.986 84.8753 118.682 84.871 118.593 84.816C118.286 84.5847 117.997 84.3238 117.726 84.0332Z" fill="black"/>
<path d="M128.234 79.6655C128.433 79.5429 128.903 79.2807 129.102 79.1581C129.542 79.3076 129.963 79.4868 130.366 79.6956C131.606 80.7703 132.079 82.7839 130.86 84.057L130.416 83.7819C131.237 82.7542 131.17 81.1763 130.125 80.2835C129.702 79.7758 128.877 79.8179 128.234 79.6655Z" fill="black"/>
<path d="M158.923 66.2283C159.267 65.5403 159.724 64.9016 160.294 64.3123C160.48 65.1034 159.853 66.3131 158.923 66.2283Z" fill="black"/>
<path d="M92.1096 97.4165C92.4354 97.1881 93.0233 97.4294 92.8921 97.8397C92.7228 98.4107 91.6188 97.9113 92.1096 97.4165Z" fill="black"/>
<path d="M179.893 58.2629C180.583 57.6454 180.562 56.5879 180.736 55.7123C180.97 56.062 181.18 56.4174 181.366 56.7784C180.909 58.7072 178.941 59.7009 177.182 59.9629C176.761 60.1122 176.41 60.0177 176.128 59.6792C177.44 59.4468 178.7 58.9987 179.893 58.2629Z" fill="black"/>
<path d="M83.3604 102.813C83.4366 102.491 83.3183 101.988 83.7667 101.958C84.4222 102.487 83.9272 103.286 83.6859 103.874C83.2839 104.424 82.0359 105.249 81.7442 104.331C82.3238 103.891 83.2587 103.671 83.3604 102.813Z" fill="black"/>
<path d="M112.666 88.3342C112.793 88.2285 113.173 87.9113 113.372 87.7887C113.177 88.8969 112.234 89.7258 112.361 90.9103C113.215 91.3166 114.12 91.9386 115.072 91.7907C116.083 91.2495 117.12 90.171 116.904 88.9315C117.048 88.8977 117.247 88.7751 117.374 88.6693C117.425 88.8851 117.598 89.2997 117.704 89.4266C117.306 90.9621 115.998 92.1801 114.471 92.4632C113.401 92.1077 111.971 91.8366 111.811 90.5083C111.857 89.7385 112.209 88.9729 112.666 88.3342Z" fill="black"/>
<path d="M167.181 62.6175C167.325 62.5836 167.595 62.4441 167.739 62.4103C167.997 63.1845 167.557 63.895 167.189 64.5887C165.716 66.0732 163.855 67.1938 161.791 67.4514C161.207 67.3357 160.672 67.1072 160.187 66.7658C161.211 66.6011 162.298 67.0285 163.237 66.5042C164.896 65.8108 167.223 64.7325 167.181 62.6175Z" fill="black"/>
<path d="M98.2985 95.658C98.3535 95.5692 98.5736 95.2139 98.6117 95.0531C99.3515 97.2318 100.091 99.4105 101.445 101.293C101.762 101.674 101.88 102.177 101.91 102.626C101.753 104.864 103.14 106.89 104.387 108.646C103.469 108.938 103.055 107.821 102.543 107.258C101.452 105.845 101.279 104.14 100.818 102.503C99.9178 100.286 98.298 98.2384 98.2985 95.658Z" fill="black"/>
<path d="M121.275 85.2481C121.41 84.9633 121.522 84.6841 121.609 84.4106C122.066 84.202 122.523 83.9934 122.98 83.7848C123.085 83.9117 123.136 84.1275 123.242 84.2544C122.568 84.6152 121.912 84.9465 121.275 85.2481Z" fill="black"/>
<path d="M134.715 78.8251C134.859 78.7913 135.13 78.6518 135.274 78.618C135.57 79.2314 135.811 79.9337 136.124 80.619C136.069 80.7078 135.815 80.9193 135.777 81.08C135.375 80.3397 135.045 79.5824 134.715 78.8251Z" fill="black"/>
<path d="M145.262 74.2966C145.321 73.9032 146.29 73.8273 146.121 74.3983C146.006 74.8805 145.093 74.8677 145.262 74.2966Z" fill="black"/>
<path d="M125.945 84.4537C125.983 84.293 126.165 84.0984 126.275 83.9208C127.024 84.2001 127.81 84.3187 128.339 84.9534C128.147 84.9985 127.961 85.0675 127.781 85.1605C127.176 84.8474 126.533 84.695 125.945 84.4537Z" fill="black"/>
<path d="M74.8692 108.983C76.1637 108.678 76.2267 110.561 76.6623 111.445C76.6199 111.91 76.5056 112.392 76.3024 112.82C75.9093 111.47 75.605 110.176 74.8692 108.983Z" fill="black"/>
<path d="M125.831 84.9359C126.076 85.3336 126.338 85.8032 126.528 86.2897C125.817 88.43 123.584 89.2586 121.71 90.0028C120.817 89.7572 120.458 88.5516 120.881 87.7691C121.171 88.3585 121.462 88.948 121.752 89.5375C123.156 89.0555 124.405 88.2309 125.441 87.1524C125.987 86.5687 125.767 85.6338 125.831 84.9359Z" fill="black"/>
<path d="M51.9856 123.014C52.2523 121.888 51.8973 120.378 53.0015 119.587C53.0225 120.645 52.7219 121.626 52.671 122.701C52.73 123.598 52.7171 124.511 52.865 125.463C53.296 127.942 54.9326 130.062 55.8501 132.35C56.4885 134.098 57.9392 135.426 59.6692 136.006C59.136 136.966 58.0194 136.09 57.3808 135.633C55.1814 134.025 54.594 131.204 53.1012 129.05C52.4416 127.536 51.9977 125.971 52.0023 124.376C51.9967 123.922 51.9912 123.468 51.9856 123.014Z" fill="black"/>
<path d="M95.9921 100.374C96.2121 100.019 96.4618 99.682 96.741 99.3634C96.7917 99.5791 96.9651 99.9937 97.0158 100.209C95.8735 101.161 94.9426 102.366 93.5 103.009C94.0713 101.888 95.1205 101.186 95.9921 100.374Z" fill="black"/>
<path d="M175.112 63.1055C175.687 62.9703 176.292 63.2834 176.808 63.5416C177.017 63.9985 177.255 64.4737 177.523 64.9673C177.413 65.1449 177.193 65.5002 177.083 65.6778C176.933 65.2576 176.808 64.8318 176.707 64.4003C176.601 64.2733 176.373 63.9476 176.267 63.8206C175.768 63.6344 175.357 63.5032 175.112 63.1055Z" fill="black"/>
<path d="M104.707 98.7051C104.453 97.6263 104.991 96.3616 106.124 96.0192C106.437 95.8444 106.705 95.9079 106.928 96.2097C106.188 96.6114 105.587 97.2839 105.413 98.1595C105.548 98.7348 106.327 99.4626 105.87 100.101C105.117 100.126 104.914 99.2635 104.707 98.7051Z" fill="black"/>
<path d="M80.3052 108.539C81.257 108.392 82.1581 108.028 82.9534 107.537C83.2282 108.384 82.1833 108.781 81.553 109.005C81.0665 109.195 80.3685 109.132 80.3052 108.539Z" fill="black"/>
<path d="M95.8692 102.756C95.827 102.361 95.8623 101.973 95.9752 101.593C96.1612 101.954 96.3473 102.315 96.5333 102.676C96.395 103.164 96.2328 103.657 96.0466 104.156C95.1793 104.664 94.2148 104.435 93.3392 104.261C93.2335 104.134 93.1828 103.919 93.149 103.775C93.9401 103.589 94.7607 103.851 95.5686 103.737C95.6448 103.416 95.745 103.089 95.8692 102.756Z" fill="black"/>
<path d="M168.343 67.8842C169.341 66.9665 170.877 66.0742 172.138 66.9163C172.531 66.9756 172.455 67.2971 172.379 67.6185C171.423 66.7808 169.967 67.047 169.185 67.914C168.313 68.726 167.277 69.8045 167.276 71.0947C167.293 71.5967 167.197 72.0493 166.988 72.4525C166.168 70.8999 167.251 69.0515 168.343 67.8842Z" fill="black"/>
<path d="M66.179 116.566C66.3228 116.532 66.6274 116.536 66.7881 116.574C66.9953 117.133 67.0036 117.814 66.5847 118.292C65.9332 118.748 64.7232 119.412 64.182 118.401C64.7573 118.266 65.4552 118.33 65.963 117.907C66.1661 117.479 66.1366 117.031 66.179 116.566Z" fill="black"/>
<path d="M135.12 85.7119C135.598 84.8405 136.148 83.9523 136.787 83.1191C137.202 84.236 136.11 85.4033 135.12 85.7119Z" fill="black"/>
<path d="M184.495 61.0517C185.557 60.7262 186.479 61.4201 187.35 61.8983C188.129 62.626 188.742 63.6202 188.386 64.6904C187.853 65.6505 186.719 65.9929 185.991 66.7711C185.484 67.1941 185.027 67.8327 184.274 67.858C183.665 67.8494 183.115 67.4474 182.599 67.1893C182.015 66.6434 181.237 65.9157 181.965 65.1375C182.104 65.4082 182.294 65.8948 182.362 66.1824C182.918 66.6084 183.491 67.0047 184.084 67.3714C185.222 66.7245 186.148 65.8236 187.269 65.1047C187.756 64.9145 187.836 64.2884 188.039 63.8612C187.743 63.2478 187.304 62.6682 186.682 62.2831C186.026 61.7542 185.024 61.6863 184.495 61.0517Z" fill="black"/>
<path d="M71.4207 114.65C72.1567 114.553 72.8759 114.384 73.5612 114.071C73.7389 114.181 74.0053 114.346 74.0942 114.401C73.6006 114.669 73.083 114.943 72.5415 115.222C72.1383 115.013 71.7647 114.823 71.4207 114.65Z" fill="black"/>
<path d="M146.873 79.534C146.856 79.4621 146.932 79.1406 146.987 79.0518C148.087 79.8558 148.319 81.1672 148.302 82.3855C148.272 84.5175 148.474 86.6706 148.804 88.7181C149.053 90.1014 148.837 91.4423 149.158 92.8088C149.37 94.3528 150.626 95.4994 151.632 96.5529C151.577 96.6418 151.429 96.9802 151.391 97.1409C150.097 96.155 148.845 94.7038 148.6 93.0159C148.173 91.5226 148.25 89.9109 147.823 88.4176C147.248 85.9724 147.57 83.4682 147.532 81.0486C147.541 80.4394 147.135 80.0036 146.873 79.534Z" fill="black"/>
<path d="M30.4301 135.594C33.8993 133.564 37.6475 132.076 41.2224 130.173C43.1389 128.964 45.1949 128.025 47.2679 127.158C47.2848 127.23 47.2805 127.535 47.3143 127.679C44.5093 129.628 41.2138 130.782 38.2862 132.533C35.054 134.279 31.6653 135.683 28.4881 137.341C26.4447 138.656 24.2279 139.557 22.0618 140.673C20.4754 141.349 19.1342 142.424 17.5478 143.1C15.5467 143.95 13.7909 145.197 11.7223 145.76C11.6885 145.616 11.7097 145.383 11.7478 145.222C13.6981 144.157 15.8768 143.417 17.6876 142.081C19.3502 141.083 21.1862 140.499 22.777 139.518C25.2181 137.958 27.9552 137.011 30.4301 135.594Z" fill="black"/>
<path d="M159.484 74.748C159.526 74.2827 159.78 74.0713 160.123 73.9148C161.214 74.0377 162.589 74.3975 162.821 75.7089C162.766 75.7978 162.618 76.1362 162.508 76.3138C162.322 75.9528 162.136 75.5918 161.95 75.2308C161.222 74.7188 160.385 74.3844 159.484 74.748Z" fill="black"/>
<path d="M48.8203 127.628C48.5286 126.71 49.8908 126.694 50.3985 126.271C50.7071 127.261 49.4169 127.26 48.8203 127.628Z" fill="black"/>
<path d="M175.424 67.6615C175.585 67.6996 175.978 67.759 176.139 67.7971C176.575 68.6813 177.277 69.7305 176.405 70.5425C176.312 69.5019 175.86 68.5457 175.424 67.6615Z" fill="black"/>
<path d="M159.598 75.5559C159.568 75.1075 160.465 75.0485 160.295 75.6195C160.27 76.1567 159.356 76.1439 159.598 75.5559Z" fill="black"/>
<path d="M10.4067 146.297C11.8871 146.783 12.3098 148.581 13.1175 149.757C14.0691 150.9 14.4241 152.41 15.3587 153.48C15.9043 154.187 16.5218 154.877 17.0673 155.583C16.9235 155.617 16.8135 155.795 16.6696 155.828C15.7814 155.278 15.1132 154.373 14.5508 153.595C13.8192 152.097 12.8339 150.811 12.1743 149.296C11.633 148.285 10.821 147.413 10.4067 146.297Z" fill="black"/>
<path d="M124.552 93.0532C125.757 92.6939 127.052 92.3896 128.257 92.0303C128.6 91.8738 129.01 92.0051 129.404 92.0644C127.851 92.8847 126.18 93.2016 124.526 93.5905C124.492 93.4466 124.585 93.1971 124.552 93.0532Z" fill="black"/>
<path d="M87.9357 111.299C88.1389 110.872 88.3082 110.301 88.8835 110.166C88.8411 110.631 88.7987 111.096 88.7563 111.562C89.2343 111.98 89.7503 112.239 90.2832 112.569C89.7205 113.08 89.0268 112.712 88.422 112.399C88.2839 112.027 88.1218 111.66 87.9357 111.299Z" fill="black"/>
<path d="M91.2694 109.984C91.096 109.57 90.9946 109.138 91.4473 108.804C91.6333 109.165 91.8194 109.526 92.0054 109.887C91.8192 110.386 91.6513 110.856 91.5018 111.296C91.286 111.346 90.8714 111.52 90.6557 111.57C90.8419 111.071 91.0831 110.483 91.2694 109.984Z" fill="black"/>
<path d="M132.792 89.3705C134.083 89.3708 133.021 90.9865 132.285 91.0837C131.866 90.2714 133.211 90.1828 132.792 89.3705Z" fill="black"/>
<path d="M169.831 72.9227C170.783 72.7749 171.718 72.5551 172.674 72.1027C172.855 73.1983 171.244 73.1218 170.525 73.2909C170.364 73.2528 170.009 73.0328 169.831 72.9227Z" fill="black"/>
<path d="M13.5367 147.989C13.6637 147.884 13.8287 147.617 13.9387 147.44C15.1565 150.037 16.7169 152.478 18.6581 154.602C20.4011 153.838 22.0863 152.936 23.7137 151.896C25.5879 151.152 27.166 149.794 29.0401 149.05C30.6815 148.285 32.0777 147.122 33.808 146.411C35.9529 145.528 37.8356 144.174 39.9635 143.219C40.3133 142.985 40.6052 143.043 40.8392 143.392C39.0158 144.352 37.315 145.511 35.4578 146.327C33.1141 147.333 31.0494 148.881 28.6888 149.816C27.146 150.785 25.5567 151.665 23.9209 152.454C22.419 153.49 20.7775 154.256 19.0641 155.038C19.1699 155.165 19.3263 155.508 19.4321 155.634C18.641 155.82 18.1504 155.025 17.7275 154.517C16.0359 152.487 14.488 150.422 13.5367 147.989Z" fill="black"/>
<path d="M115.142 100.805C115.683 100.526 116.231 100.271 116.783 100.04C117.024 100.742 116.199 100.784 115.819 101.102C115.349 101.364 115.357 102.045 115.243 102.527C115.205 102.688 115.218 103.064 115.196 103.297C115.302 103.424 115.387 103.783 115.509 103.982C115.382 104.088 115.145 104.371 115.107 104.532C114.3 103.356 114.659 101.981 115.142 100.805Z" fill="black"/>
<path d="M49.1403 135.446C50.0331 134.401 51.0316 133.483 52.3642 133.018C52.233 133.428 52.1017 133.839 51.6871 134.012C49.4449 135.45 48.1034 137.814 47.1554 140.238C46.982 139.823 46.8468 139.248 47.1049 138.732C47.5874 137.556 48.3194 136.473 49.1403 135.446Z" fill="black"/>
<path d="M74.5148 125.231C75.7586 124.711 76.2792 123.374 76.6009 122.16C76.7236 122.359 76.9519 122.685 77.0746 122.883C76.829 123.776 76.3339 124.575 75.75 125.32C74.7558 125.933 73.5501 126.292 72.7505 127.087C71.8663 127.523 70.4194 128.47 69.7174 127.421C70.1376 127.271 70.5508 127.2 70.9569 127.205C72.1668 126.541 73.2711 125.751 74.5148 125.231Z" fill="black"/>
<path d="M143.49 91.9404C143.589 91.7148 143.682 91.4653 143.769 91.1918C144.933 91.2977 145.635 92.347 145.673 93.4764C145.816 94.7328 145.173 95.8706 144.995 97.0508C144.881 97.533 144.749 97.9433 144.335 98.1167C144.141 96.6445 144.894 95.3291 145.093 93.9162C145.006 93.3296 144.87 92.7543 144.687 92.1903C144.277 92.059 143.938 91.9109 143.49 91.9404Z" fill="black"/>
<path d="M104.599 110.19C104.798 110.067 105.051 109.856 105.25 109.733C105.284 111.167 105.423 112.728 106.32 113.959C107.144 115.207 108.35 116.138 109.61 116.98C109.644 117.124 109.8 117.467 109.906 117.594C108.349 117.429 107.237 116.248 106.247 115.266C105.211 113.765 104.357 112.068 104.599 110.19Z" fill="black"/>
<path d="M199.596 65.2424C199.74 65.2086 200.061 65.2848 200.205 65.251C200.712 66.1182 201.347 66.8798 202.07 67.6964C200.708 67.713 200.192 66.1647 199.596 65.2424Z" fill="black"/>
<path d="M49.9351 137.536C51.4287 135.818 53.5228 134.719 55.5958 133.852C55.6296 133.996 55.6803 134.212 55.7142 134.356C54.1234 135.337 52.5158 136.246 51.1196 137.409C50.083 138.487 49.2916 139.964 49.414 141.453C49.4337 141.752 49.3758 142.043 49.2404 142.328C48.0436 140.788 49.038 138.885 49.9351 137.536Z" fill="black"/>
<path d="M84.5666 120.211C84.9305 119.822 85.5353 120.136 85.933 119.89C86.4026 119.628 86.7665 119.239 87.1472 118.922C87.6252 119.341 87.2401 119.962 86.8424 120.208C86.3516 120.703 85.6706 120.711 85.0952 120.846C84.895 120.64 84.7188 120.429 84.5666 120.211Z" fill="black"/>
<path d="M129.229 100.681C129.452 100.123 129.656 99.5941 129.842 99.095C130.972 99.0571 132.076 99.5565 132.545 100.585C132.752 101.143 133.442 101.816 132.79 102.272C132.304 101.172 131.657 100.034 130.354 99.6577C130.113 100.246 129.927 100.745 129.685 101.333C129.58 101.206 129.334 100.808 129.229 100.681Z" fill="black"/>
<path d="M202.633 65.8945C206.931 64.8082 210.904 62.6601 214.872 60.8165C219.887 58.474 224.901 56.1315 229.916 53.789C231.469 52.9687 233.267 52.546 234.836 51.7976C235.014 51.9076 235.208 52.0896 235.314 52.2165C227.775 55.6583 220.359 59.299 212.731 62.6858C209.47 63.9839 206.326 65.7853 202.84 66.4529C202.807 66.3091 202.739 66.0214 202.633 65.8945Z" fill="black"/>
<path d="M163.436 86.7202C163.398 86.8809 163.394 87.1855 163.428 87.3293C165.027 87.0293 167.053 85.6422 166.381 83.7512C165.907 84.3179 165.789 85.1047 165.226 85.6164C164.752 86.1832 164.05 86.4242 163.436 86.7202Z" fill="black"/>
<path d="M42.5695 142.682C43.5425 142.301 44.5155 141.921 45.3659 141.342C45.5266 141.38 45.7931 141.545 45.9538 141.583C44.9384 142.429 43.7835 143.004 42.4721 143.236C42.5271 143.147 42.5314 142.843 42.5695 142.682Z" fill="black"/>
<path d="M178.874 79.752C178.645 79.4262 177.791 79.0199 178.332 78.7408C178.679 78.2798 179.081 79.0202 179.403 79.0964C179.669 80.5516 178.006 81.5496 176.763 80.7794C177.448 80.4666 178.205 80.1368 178.874 79.752Z" fill="black"/>
<path d="M234.603 53.0666C234.629 52.5294 235.36 52.7368 235.606 53.1345C236.447 54.4545 237.699 55.9057 237.479 57.5512C236.997 57.4369 236.447 57.0349 235.905 57.314C233.147 58.4936 230.439 59.8891 227.715 61.2125C222.295 64.3079 216.44 66.5191 211.021 69.6145C208.622 70.7096 206.312 71.8598 204.053 73.2257C204.036 73.1538 203.897 72.883 203.791 72.7561C204.734 71.9272 205.817 71.369 206.989 70.8658C210.353 68.7091 214.207 67.3478 217.676 65.318C222.676 62.7006 227.833 60.4258 232.885 58.024C233.985 57.5378 235.034 56.8358 236.29 56.6922C235.499 55.588 235.72 53.9425 234.603 53.0666Z" fill="black"/>
<path d="M18.4672 156.696C22.2621 154.438 26.353 152.793 30.2325 150.895C36.0792 148.002 41.9596 145.254 47.8401 142.506C48.0009 142.544 48.3561 142.764 48.5338 142.874C46.4777 143.812 44.4936 144.734 42.4545 145.745C35.7193 149.377 28.6882 152.396 21.8135 155.758C20.7685 156.155 19.6812 157.018 18.4672 156.696Z" fill="black"/>
<path d="M202.692 69.3718C202.835 69.3379 203.068 69.3591 203.212 69.3253C203.135 70.937 203.524 72.5911 203.951 74.0844C205.096 79.2793 205.413 84.8209 203.478 89.829C203.03 91.1487 202.42 92.4303 201.544 93.5469C201.439 93.42 201.244 93.2381 201.138 93.1111C201.892 91.7957 202.307 90.3321 202.971 88.9617C203.039 87.9592 203.589 87.0709 203.818 86.1065C203.936 85.3197 204.055 84.533 204.085 83.6912C204.152 82.6886 204.148 81.703 204.144 80.7173C204.111 79.2833 203.845 77.8281 203.667 76.4279C203.342 74.0758 202.425 71.7871 202.692 69.3718Z" fill="black"/>
<path d="M100.557 118.501C101.577 118.641 102.046 119.669 101.889 120.617C101.542 121.078 101.195 121.539 100.502 121.171C100.777 120.726 101.14 120.337 101.255 119.855C101.065 119.369 100.747 118.988 100.557 118.501Z" fill="black"/>
<path d="M208.424 68.2519C215.066 64.8691 221.915 62.0447 228.574 58.7339C230.757 57.6895 232.94 56.6451 235.14 55.6726C235.173 55.8164 235.169 56.121 235.131 56.2817C231.668 57.9054 228.221 59.601 224.791 61.3685C219.258 63.6559 213.826 66.3748 208.343 68.878C208.381 68.7172 208.457 68.3958 208.424 68.2519Z" fill="black"/>
<path d="M60.2056 138.612C60.3664 138.65 60.654 138.582 60.7979 138.549C60.8145 139.911 61.5672 141.176 62.485 142.174C63.1955 142.614 64.0881 142.86 64.8706 143.283C66.131 144.125 66.9344 145.606 68.3599 146.181C69.5188 146.592 70.7795 146.144 72.0021 145.856C72.1838 146.952 70.6102 146.715 69.9248 147.028C68.5246 147.205 67.243 146.596 66.3253 145.597C65.5471 144.869 64.8789 143.964 63.7537 143.697C62.95 143.507 62.3114 143.05 61.6558 142.521C60.7761 141.362 60.0234 140.097 60.2056 138.612Z" fill="black"/>
<path d="M121.359 109.817C122.209 109.237 123.423 109.559 124.045 108.654C125.06 107.808 126.511 107.847 127.708 108.096C127.797 108.151 127.992 108.333 128.098 108.46C127.522 108.595 126.985 108.57 126.448 108.545C125.784 108.625 125.103 108.633 124.523 109.073C124.286 109.356 124.083 109.783 123.774 110.084C123.254 110.13 122.716 110.105 122.196 110.151C122.048 110.49 121.523 110.841 121.913 111.204C122.018 111.331 122.39 111.623 122.568 111.733C122.082 111.924 121.595 112.114 121.151 111.839C120.838 111.153 121.206 110.46 121.359 109.817Z" fill="black"/>
<path d="M152.487 98.2494C153.273 98.368 153.692 99.1803 154.204 99.743C155.05 100.758 155.929 101.918 156.957 102.739C158.179 103.741 159.681 103.995 161.051 104.66C162.083 105.176 163.247 105.282 164.279 105.798C166.36 106.903 168.893 107.673 171.182 106.756C171.495 106.581 171.769 106.668 172.003 107.018C171.334 107.403 170.526 107.517 169.735 107.703C167.887 107.91 166.085 107.347 164.448 106.518C163.327 105.946 161.948 105.891 160.772 105.408C159.025 104.757 157.096 104.299 155.844 102.848C154.593 101.397 153.197 99.9797 152.487 98.2494Z" fill="black"/>
<path d="M92.59 126.901C93.1991 126.909 93.6433 127.185 93.7235 127.849C93.4442 128.597 92.56 129.033 91.7012 128.931C92.2259 128.58 92.7674 128.301 93.1143 127.84C92.9917 127.641 92.7295 127.172 92.59 126.901Z" fill="black"/>
<path d="M110.515 118.893C111.027 118.165 111.263 119.172 111.564 119.481C111.932 120.077 112.702 120.124 113.069 120.721C112.579 121.215 111.995 120.67 111.623 120.378C111.09 120.048 110.722 119.451 110.515 118.893Z" fill="black"/>
<path d="M192.642 81.8275C192.524 81.3241 192.228 80.7106 192.558 80.1777C193.387 81.1212 193.492 82.5383 192.566 83.4391C192.109 84.0778 191.339 84.0311 190.641 83.9675C190.738 83.4134 191.348 83.422 191.779 83.3205C192.126 82.8595 192.634 82.4366 192.642 81.8275Z" fill="black"/>
<path d="M168.994 91.6369C169.327 91.761 169.654 91.8612 169.975 91.9374C171.985 91.7686 173.719 90.7537 175.153 89.4299C175.335 90.5256 174.163 91.0288 173.402 91.6631C172.247 92.2382 170.969 92.6144 169.645 92.4703C169.332 93.0752 168.913 93.5531 168.477 93.9591C167.669 94.0732 166.574 94.2549 166.066 93.3876C166.553 93.1973 166.963 93.3285 167.445 93.4428C167.818 93.3047 168.208 93.137 168.617 92.9397C168.719 92.511 168.844 92.0768 168.994 91.6369Z" fill="black"/>
<path d="M89.9921 129.409C90.6394 129.257 91.2823 129.409 91.9253 129.562C91.8703 129.65 91.7941 129.972 91.7391 130.061C91.168 129.891 90.0893 130.145 89.9921 129.409Z" fill="black"/>
<path d="M106.174 123.025C106.233 122.631 106.698 122.674 107.003 122.678C108.018 124.412 107.755 126.523 107.459 128.49C107.243 129.831 106.527 130.986 105.495 131.76C105.533 131.599 105.576 131.134 105.669 130.884C105.741 130.867 105.901 130.905 105.99 130.96C106.832 128.41 107.518 125.516 106.174 123.025Z" fill="black"/>
<path d="M146.199 105.723C146.068 104.843 146.157 103.608 147.236 103.354C147.65 103.181 148.001 103.706 148.285 103.942C147.89 103.985 147.519 104.021 147.172 104.052C147.045 104.158 146.897 104.496 146.842 104.585C146.896 105.028 146.92 105.452 146.914 105.858C146.753 105.82 146.432 105.744 146.199 105.723Z" fill="black"/>
<path d="M79.4909 139.618C79.3557 139.043 79.5462 138.239 80.2823 138.142C80.2018 138.768 80.0493 139.411 79.4909 139.618Z" fill="black"/>
<path d="M154.613 103.745C154.935 103.821 155.177 103.992 155.341 104.257C155.886 107.544 154.675 110.788 153.076 113.669C152.191 115.394 150.262 116.227 149.128 117.86C148.252 118.976 147.516 120.364 146.128 120.918C145.244 121.353 144.17 121.302 143.184 121.306C140.422 121.5 139.748 124.77 137.388 125.704C136 126.258 134.359 125.733 133.217 126.685C132.328 127.425 131.211 127.839 130.031 127.662C129.942 127.607 129.803 127.336 129.769 127.192C130.361 127.129 131.025 127.048 131.673 126.896C132.468 126.406 133.23 125.771 134.253 125.607C135.277 125.442 136.457 125.62 137.451 125.006C138.551 124.52 139.267 123.366 140.049 122.499C141.107 121.187 142.799 120.638 144.411 120.714C146.166 120.757 147.229 119.141 148.231 117.919C149.2 116.553 150.719 115.589 151.955 114.387C154.041 111.317 155.116 107.497 154.613 103.745Z" fill="black"/>
<path d="M115 122.35C116.472 122.156 117.754 122.765 119.112 123.053C120.203 123.176 121.239 123.388 122.348 123.582C123.6 123.743 124.877 123.367 125.96 124.099C125.325 124.628 124.399 124.239 123.591 124.353C122.246 124.441 120.909 123.921 119.513 123.793C118.511 123.725 117.623 123.175 116.603 123.036C116.049 122.938 115.423 122.858 115 122.35Z" fill="black"/>
<path d="M138.354 115.611C139.556 115.557 140.465 114.584 140.999 113.624C141.087 113.679 141.371 113.916 141.46 113.971C141.176 115.024 140.216 115.781 139.154 116.106C138.722 116.208 137.737 116.212 138.354 115.611Z" fill="black"/>
<path d="M102.576 134.192C103.253 133.198 103.507 131.696 104.857 131.303C104.48 132.606 103.515 133.667 102.889 134.877C102.44 135.336 101.992 135.796 101.543 136.256C100.608 137.766 99.0387 138.514 97.5072 139.102C97.2279 139.85 96.9485 140.599 96.6692 141.348C96.6185 141.132 96.4282 140.646 96.3056 140.447C96.4749 139.876 96.6273 139.233 96.8855 138.717C99.2461 137.782 100.955 136.014 102.576 134.192Z" fill="black"/>
<path d="M184.958 95.6248C186.337 95.6801 187.407 94.7454 187.695 93.3876C188.359 93.3074 188.097 94.128 188.109 94.5045C187.483 95.7142 186.091 96.5726 184.788 96.1959C184.843 96.1071 184.919 95.7856 184.958 95.6248Z" fill="black"/>
<path d="M77.2894 148.332C77.5051 148.281 77.759 148.07 77.9747 148.019C78.9053 148.104 79.891 148.1 80.7921 147.736C81.6551 147.533 82.3109 146.772 83.157 146.497C85.1875 146.096 87.1167 145.263 88.6229 143.922C89.0206 143.677 89.4902 143.415 89.7693 143.956C88.1361 145.403 86.3253 146.739 84.1509 147.174C83.271 147.305 82.7421 147.961 82.0737 148.346C80.5254 148.861 78.7825 149.195 77.2894 148.332Z" fill="black"/>
<path d="M174.452 106.139C175.586 105.796 176.783 106.046 178.001 106.063C180.061 106.11 182.126 105.853 184.072 105.092C185.438 104.77 186.669 103.874 188.07 103.697C189.453 103.447 190.083 101.933 191.45 101.612C193.569 101.265 195.308 99.9459 196.675 98.3344C196.968 97.8607 197.302 97.4533 197.678 97.1121C198.046 97.7086 197.555 98.2035 197.297 98.7195C196.239 100.031 194.986 101.16 193.489 101.891C192.105 102.141 190.629 102.64 189.576 103.646C188.776 104.441 187.507 104.208 186.585 104.805C185.248 105.574 183.809 105.912 182.333 106.411C180.463 106.851 178.53 106.698 176.614 106.617C175.861 106.643 175.091 106.596 174.452 106.139Z" fill="black"/>
<path d="M5.29469 71.6077C4.27148 69.192 7.62228 66.6588 9.49588 68.4951C11.1199 70.2383 9.97302 72.7846 8.0439 73.6176C6.91873 73.3508 5.40016 73.0248 5.29469 71.6077Z" fill="#E56E0C"/>
<path d="M17.066 78.0992C19.9134 75.6844 25.6955 78.6509 24.4933 82.5763C23.3252 85.3552 19.065 87.571 16.5909 85.117C15.2757 83.0736 15.0183 79.719 17.066 78.0992Z" fill="#E56E0C"/>
</g>
<defs>
<clipPath id="clip0_1_2192">
<rect width="242" height="180" fill="white"/>
</clipPath>
</defs>
</svg>
