<svg width="242" height="180" viewBox="0 0 242 180" fill="none" xmlns="http://www.w3.org/2000/svg">
<path d="M202.911 122.263C203.322 121.989 203.185 121.303 203.597 121.029C204.557 121.166 204.968 122.126 205.586 122.743C206.752 124.115 207.712 125.555 208.74 126.996C209.015 127.339 209.015 127.681 209.083 128.024C208.878 128.093 208.398 128.23 208.192 128.299C206.34 130.219 204.557 132.345 202.431 133.991C200.51 135.5 198.659 137.146 196.601 138.518C193.172 140.712 189.743 142.907 185.971 144.553C180.347 147.091 174.723 149.628 168.962 151.823C163.544 153.675 158.126 155.869 152.57 157.31C149.621 157.995 146.604 158.681 143.586 159.024C142.969 159.093 142.283 159.024 141.665 158.956C140.088 156.349 139.608 153.332 138.854 150.451C138.716 149.765 138.716 149.08 138.648 148.462C139.471 148.554 140.294 148.577 141.117 148.531C147.701 148.188 154.011 146.062 160.32 144.416C163.955 143.387 167.453 141.878 170.882 140.369C176.14 137.809 181.375 135.18 186.588 132.482C190.223 130.562 193.789 128.436 197.424 126.515C199.55 125.487 201.196 123.841 202.911 122.263Z" fill="#333F72"/>
<path d="M116.427 70.414C121.296 68.0135 127.674 69.6595 130.966 73.9803C132.544 76.1064 132.887 79.0555 132.132 81.5931C131.309 84.8851 129.663 88.3143 126.44 89.8918C123.216 91.332 119.376 91.6064 116.084 90.2347C113.82 89.2745 112.243 87.1484 111.146 84.9537C110.186 83.102 110.254 81.0445 110.391 79.0555C110.666 76.998 111.351 75.0091 112.586 73.2945C113.615 72.06 114.986 71.0998 116.427 70.414Z" fill="#E56E0C"/>
<path d="M176.163 56.4913C180.758 54.571 186.039 55.4626 190.497 53.1993C192.555 52.1706 194.818 50.9361 197.218 51.4847C199.687 51.8962 201.676 54.2967 201.608 56.8343C201.539 57.3829 201.745 58.4117 200.922 58.4803C200.236 58.0002 200.373 57.04 200.168 56.3542C199.687 54.9139 198.727 53.4737 197.15 53.0622C195.161 52.4449 193.172 53.5422 191.389 54.3653C186.999 56.6285 181.856 56.217 177.261 57.7944C175.066 58.6175 173.351 60.5378 172.528 62.7325C171.842 65.2701 172.048 68.4935 174.311 70.2081C174.723 70.6196 175.614 70.4139 175.614 71.0997C175.34 71.7855 174.449 71.6484 173.831 71.4426C172.117 70.6882 171.157 68.8364 170.814 67.0533C170.471 64.8586 170.608 62.4581 171.842 60.5378C172.871 58.8232 174.311 57.3144 176.163 56.4913Z" fill="#E56E0C"/>
<path d="M179.661 61.8408C180.552 61.0864 181.856 61.0178 182.953 61.0864C185.148 61.2922 187.342 60.9492 189.331 60.1262C190.429 59.7147 191.526 59.0975 192.76 59.0975C193.995 59.1661 194.955 60.1948 195.572 61.2236C195.778 61.6351 195.709 62.2523 195.229 62.3209C194.338 61.9094 193.721 60.9492 192.692 60.8121C191.732 60.9492 190.977 61.4293 190.086 61.7037C187.891 62.7324 185.353 63.0753 182.884 62.801C182.198 62.801 181.444 62.6638 180.827 63.0753C180.141 63.7612 180.141 64.8585 180.415 65.7501C180.758 66.4359 181.513 66.7103 181.993 67.3275C182.198 67.739 181.924 68.2877 181.444 68.2877C180.347 68.1505 179.318 67.5333 178.769 66.5731C178.083 64.9957 178.358 63.0068 179.661 61.8408Z" fill="#E56E0C"/>
<path fill-rule="evenodd" clip-rule="evenodd" d="M16.4999 31.4583C16.7742 31.3211 17.0486 31.2068 17.3229 31.1154C17.5287 31.5269 17.8716 31.664 18.2145 31.8698C17.6658 33.4472 16.0198 34.4074 14.511 34.9561C19.3804 37.768 24.1127 40.7857 28.9136 43.6662C45.4423 53.6109 61.9024 63.7613 78.3625 73.8431C79.8028 74.9404 81.5174 75.6263 82.8205 76.7922C82.0661 77.1351 81.3802 76.3121 80.6944 76.0378C78.5683 74.8719 76.648 73.5002 74.5219 72.3343C56.21 61.2237 37.8981 50.0445 19.6548 38.7967C17.803 37.6994 15.9512 36.5335 14.0995 35.3676C13.7566 34.7503 14.0995 33.9959 14.511 33.5158C15.0597 32.6928 15.8141 32.0755 16.4999 31.4583ZM16.2256 32.4185C15.6769 32.9671 15.0596 33.5158 14.7167 34.2702C15.6769 33.8587 16.4999 33.1043 17.3229 32.487C16.9571 32.4413 16.5914 32.4185 16.2256 32.4185Z" fill="black"/>
<path d="M18.146 31.1154C19.5862 31.5269 20.7522 32.5556 21.9867 33.31C41.8074 46.4096 61.6281 59.5777 81.3117 72.8829C82.6834 73.8431 84.1922 74.5975 85.3581 75.7635C85.0838 76.4493 84.6037 75.832 84.1922 75.6263C62.5883 61.3608 41.053 47.0268 19.5862 32.487C19.0376 32.1441 18.4203 31.7326 18.146 31.1154Z" fill="black"/>
<path fill-rule="evenodd" clip-rule="evenodd" d="M1 52.7879C1.06858 51.0733 1.61726 49.153 3.1261 48.1928C3.26327 48.33 3.46901 48.6043 3.60618 48.7415C29.5309 59.2348 55.387 70.0025 81.2431 80.7015C81.3117 80.8387 81.4489 81.113 81.5175 81.1816C81.3117 81.1816 80.9002 81.1816 80.6945 81.1816C54.9755 70.6197 29.2565 60.0578 3.60618 49.2901C3.33184 50.4561 2.92035 51.5534 2.37168 52.5822C19.5176 59.372 36.7322 66.0932 53.9467 72.9516C60.8051 75.6949 67.6635 78.4383 74.5219 81.1816C75.5507 81.5931 76.5794 81.936 77.6082 82.4161C77.3796 82.7362 77.1281 82.8276 76.8537 82.6905C63.9142 77.6153 50.9976 72.5401 38.1039 67.4649C26.0331 62.664 13.9623 57.8631 1.89158 53.1308C1.57152 52.9937 1.27434 52.8794 1 52.7879ZM1.68584 52.3078C2.30309 51.3477 2.71459 50.2503 2.92034 49.153C2.2345 50.0446 1.61725 51.1419 1.68584 52.3078Z" fill="black"/>
<path d="M153.05 35.0931C155.451 34.2015 157.988 33.6528 160.389 32.6926C165.533 31.1152 170.745 29.6063 175.957 28.0975C178.906 27.4117 181.787 26.3829 184.736 25.8342C187.617 25.2856 190.36 24.1196 193.24 23.7081C198.384 22.5422 203.665 21.7192 208.946 21.1705C209.769 21.1019 210.592 20.8962 211.278 21.3077C209.358 21.8564 207.369 21.8564 205.448 22.1993C200.442 22.8851 195.367 23.7767 190.497 25.0798C186.588 25.8342 182.884 27.2059 179.044 28.0289C176.506 28.509 174.106 29.332 171.637 30.0178C169.442 30.7037 167.179 31.1838 165.052 32.0068C162.378 32.967 159.634 33.5842 156.96 34.5444C154.902 35.436 152.707 35.7789 150.718 36.7391C149.415 37.2191 148.044 37.4935 146.741 38.1107C136.91 41.6314 127.171 45.4492 117.524 49.5642C110.94 52.3076 104.424 55.051 97.9775 58.1372C91.2563 61.3607 84.6722 64.8584 78.0882 68.3562C78.0196 68.2876 77.8138 68.0819 77.7452 68.0133C80.5572 66.1615 83.5749 64.7899 86.524 63.2124C94.1368 59.166 101.887 55.3939 109.842 52.0333C121.159 47.1638 132.475 42.5001 144.066 38.3165C145.232 37.6307 146.672 37.4935 147.907 36.9448C149.553 36.1218 151.404 35.8475 153.05 35.0931Z" fill="black"/>
<path d="M161.692 36.3277C164.092 35.4361 166.424 34.4073 168.962 33.9272C169.305 33.9958 169.854 33.9272 169.716 34.4073C168.345 34.6131 166.973 34.956 165.738 35.5732C162.927 36.4648 160.252 37.6993 157.577 38.8653C149.758 42.2944 141.94 45.5865 133.984 48.6042C132.955 49.0842 131.927 49.3586 130.829 49.5643C131.447 48.6042 132.75 48.6042 133.641 48.0555C143.037 44.352 152.365 40.3055 161.692 36.3277Z" fill="black"/>
<path d="M213.61 21.1021C215.873 20.8278 218.136 21.1707 220.4 21.3764C221.497 21.445 222.594 21.6508 223.692 21.7193C226.984 22.268 230.55 22.8853 233.156 25.1485C234.459 26.1087 235.214 27.6176 235.9 29.0578C236.083 29.4236 236.014 29.7208 235.694 29.9494C235.214 28.7835 234.597 27.6861 233.842 26.6574C232.333 25.0114 230.276 23.914 228.15 23.3654C227.418 23.1825 226.687 22.9996 225.955 22.8167C225.361 22.7252 224.766 22.6109 224.172 22.4738C223.486 22.3823 222.8 22.2909 222.114 22.1994C219.302 21.9251 216.559 21.445 213.747 21.5822C213.747 21.445 213.679 21.1707 213.61 21.1021Z" fill="black"/>
<path d="M174.86 33.9959C176.095 33.5159 177.329 32.8986 178.632 32.5557C182.427 31.4583 186.199 30.3839 189.949 29.3322C192.692 28.4407 195.504 28.0977 198.247 27.2061C199.825 27.069 201.333 26.5889 202.911 26.3146C207.78 25.423 212.718 25.0115 217.656 25.1486C221.771 25.2172 226.024 26.1774 229.59 28.4407C230.07 28.8522 230.893 29.1265 230.893 29.8123C230.207 30.361 229.933 29.3322 229.453 29.0579C225.544 26.6575 220.948 25.7659 216.422 25.8345C209.838 25.903 203.254 26.7946 196.875 28.4407C194.132 28.7836 191.526 29.8123 188.851 30.4296C185.559 31.184 182.267 31.9384 179.112 33.1729C177.878 33.5159 176.575 34.0645 175.272 34.1331C175.203 34.1331 174.997 33.9959 174.86 33.9959Z" fill="black"/>
<path d="M171.294 40.5113C173.831 39.414 176.3 37.6994 179.249 37.8366C179.318 37.9737 179.592 38.1795 179.73 38.2481C176.575 38.2481 173.9 40.0313 171.157 41.1972C170.334 41.2658 169.236 41.8144 168.55 41.1286C169.442 40.7857 170.471 40.9914 171.294 40.5113Z" fill="black"/>
<path d="M181.376 38.7281C183.296 37.6307 185.491 36.7392 187.822 36.8077C188.371 36.8763 189.263 36.7392 189.537 37.425C187.342 37.1507 185.079 37.3564 183.159 38.4537C180.758 39.6883 178.358 40.8542 175.889 41.8829C173.831 42.5002 171.911 43.5975 169.716 43.8033C169.099 43.8033 168.413 44.1462 168.002 43.5975C168.756 43.2546 169.648 43.3232 170.471 43.1175C172.117 42.8431 173.557 41.8829 175.203 41.54C177.306 40.717 179.364 39.7797 181.376 38.7281Z" fill="black"/>
<path d="M193.309 35.3676C193.241 34.476 194.338 35.0933 194.887 34.9561C195.572 34.9561 196.235 34.9561 196.875 34.9561C200.442 34.8875 204.008 35.5734 207.575 35.2304C209.632 35.1619 211.69 34.6818 213.747 34.9561C215.736 35.299 217.519 36.4649 219.234 37.4937C220.194 38.111 221.154 38.8654 221.84 39.8256C221.771 39.8941 221.566 40.0313 221.497 40.0999C220.263 38.6596 218.685 37.768 217.108 36.8079C215.942 36.1906 214.776 35.6419 213.404 35.5048C211.484 35.2304 209.495 35.7105 207.506 35.7791C204.488 36.122 201.471 35.6419 198.453 35.5048C196.738 35.4362 195.024 35.5048 193.309 35.3676Z" fill="black"/>
<path d="M156.891 47.3697C158.811 46.7524 160.732 46.1352 162.721 45.7237C162.446 45.998 162.172 46.3409 161.761 46.4095C160.252 47.0268 158.537 47.2325 157.097 48.0555C153.393 49.4272 149.69 50.7989 145.986 52.1706C143.654 52.7192 141.46 53.8166 139.128 54.4338C136.727 55.4626 134.19 56.0113 131.721 56.8343C130.143 57.5201 128.566 58.0002 126.92 58.4117C126.783 58.3431 126.577 58.1374 126.44 58.0688C128.154 57.04 130.075 56.6971 131.858 55.9427C136.796 54.571 141.528 52.5821 146.466 51.0732C147.975 50.3874 149.621 50.0445 151.199 49.4272C152.982 48.5356 155.108 48.3299 156.891 47.3697Z" fill="black"/>
<path d="M163.681 45.3121C163.818 45.3807 164.161 45.5179 164.298 45.5864C164.915 46.7524 165.533 47.9869 166.013 49.2214C165.464 50.2501 164.298 50.2501 163.407 50.7302C161.829 51.4847 159.977 51.759 158.331 52.5134C157.097 53.0621 155.725 53.2678 154.491 53.8851C153.188 54.5023 151.747 54.7081 150.444 55.2568C148.318 56.2169 145.918 56.5599 143.792 57.52C142.488 58.0687 141.048 58.343 139.677 58.8917C141.597 58.686 143.38 57.9315 145.232 57.4515C148.387 56.2169 151.816 55.9426 154.902 54.5709C156.068 54.0223 157.44 53.8851 158.537 53.1992C159.292 52.9249 160.252 52.3077 160.938 52.9935C159.223 53.3364 157.783 54.2966 156.137 54.7081C155.039 54.9824 154.079 55.5997 152.982 55.874C147.564 57.3829 142.077 58.9603 136.659 60.5377C135.562 60.8121 134.396 60.8806 133.298 61.155C133.298 61.0178 133.23 60.7435 133.23 60.6749C135.562 60.1262 137.756 59.0975 139.951 58.1373C140.774 57.9315 141.528 57.7258 142.283 57.3143C143.929 56.5599 145.712 56.3541 147.358 55.5997C148.73 54.9138 150.307 54.7767 151.747 54.0908C152.776 53.5422 153.942 53.3364 155.039 52.9249C156.822 51.9647 158.88 51.759 160.732 50.936C162.241 50.1816 164.024 50.113 165.396 49.0842C164.71 47.9183 164.23 46.5466 163.681 45.3121Z" fill="black"/>
<path d="M180.072 41.1971C181.376 40.3055 182.953 39.5511 184.599 39.8254C184.599 39.7568 184.668 39.4825 184.668 39.4139C185.628 39.2768 186.588 39.2082 187.548 39.2082C189.606 39.2082 190.977 41.0599 192.898 41.54C193.446 41.7458 194.132 41.8144 194.475 42.363C193.446 42.4316 192.486 42.0887 191.526 41.6772C190.36 41.1971 189.537 40.0998 188.302 39.8254C187.205 39.6883 186.108 39.7568 185.01 39.894C185.902 40.1683 186.794 40.3055 187.617 40.7856C188.371 41.3343 189.057 41.9515 189.743 42.6374C190.634 43.7347 191.937 44.832 193.515 44.6263C194.887 44.7635 195.847 43.529 197.013 42.9117C197.973 42.363 199.07 42.0887 200.168 41.8144C200.51 41.6772 200.853 41.9515 201.196 42.0887C199.345 42.5688 197.356 43.0489 195.847 44.4206C194.818 45.175 193.583 45.2436 192.349 45.175C190.429 44.6949 189.4 42.9117 187.96 41.7458C186.794 40.717 185.216 40.3741 183.707 40.3055C182.199 40.4427 180.964 41.2657 179.798 42.0887C178.975 42.7059 178.221 43.3918 177.809 44.2834C177.398 45.5179 177.809 46.821 177.809 48.0555C177.741 48.1927 177.535 48.3984 177.466 48.467C177.192 47.3011 177.055 46.0666 177.055 44.832C177.398 43.186 178.769 42.0201 180.072 41.1971Z" fill="black"/>
<path d="M193.515 37.082C195.504 37.082 197.424 37.7679 199.413 37.9736C201.951 38.248 204.488 38.3165 206.957 37.8365C208.878 37.3564 210.798 37.425 212.718 37.5621C213.678 37.6993 214.616 37.8593 215.53 38.0422C216.765 38.4537 217.999 39.0024 218.822 40.0311C219.851 41.2656 220.743 42.5687 221.223 44.0776C221.177 44.3062 221.131 44.5577 221.086 44.832C220.743 44.1462 220.331 43.3917 220.057 42.7059C219.577 41.9515 219.097 41.3342 218.617 40.6484C218.479 40.5798 218.274 40.3055 218.205 40.1683C217.451 39.4139 216.422 38.9338 215.393 38.6595C212.307 37.905 209.083 37.905 206.066 38.6595C202.088 39.2767 198.11 38.4537 194.201 37.5621C193.926 37.5164 193.698 37.3564 193.515 37.082Z" fill="black"/>
<path d="M68.8979 74.186C70.0639 73.5688 71.024 72.6086 72.19 72.1285C72.67 72.6772 71.6413 73.0201 71.3669 73.363C70.4754 73.9117 69.721 74.5975 68.6922 74.8033C68.7608 74.6661 68.8294 74.3232 68.8979 74.186Z" fill="black"/>
<path d="M96.1258 67.4647C99.3492 65.8187 102.573 63.8297 106.208 62.9381C108.334 62.3895 110.391 61.5665 112.586 61.2921C113.958 61.0864 115.261 60.5377 116.632 60.6749C116.015 61.6351 114.575 61.3607 113.546 61.7036C110.803 62.5266 107.991 63.0067 105.385 63.9669C102.093 64.8585 99.212 66.7788 96.2629 68.2191C94.1368 69.2479 92.3536 70.7567 90.5019 72.197C88.993 73.4315 87.4156 74.666 86.1811 76.2434C85.0152 77.7523 83.5749 79.0554 82.9577 80.9071C82.4776 82.2788 81.9289 83.7191 81.9975 85.2279C82.5461 87.2854 83.0948 89.5487 84.7408 91.0575C86.8669 93.6637 90.0218 94.8982 92.9709 96.2699C94.274 96.8871 95.7828 96.8186 97.0173 97.5044C96.8116 97.573 96.4687 97.6416 96.2629 97.6416C94.2054 97.7787 92.2851 96.9557 90.4333 96.0641C88.5815 95.104 86.5926 94.2124 85.2209 92.6349C84.1236 91.4004 82.6833 90.2345 82.3404 88.5885C82.066 87.354 81.2431 86.3252 81.2431 85.0907C81.1059 83.4447 81.7917 81.7987 82.3404 80.2899C82.8891 78.5753 84.2608 77.3408 85.2895 75.9691C87.0727 73.7058 89.4045 72.0598 91.5992 70.3452C93.0395 69.2479 94.4798 68.2191 96.1258 67.4647Z" fill="black"/>
<path d="M170.608 45.7236C172.665 45.0377 174.517 43.8032 176.643 43.4603C176.78 43.5289 176.986 43.666 177.123 43.8032C174.517 44.3519 172.254 45.9293 169.648 46.478C169.922 46.2036 170.196 45.7921 170.608 45.7236Z" fill="black"/>
<path d="M119.238 60.5379C122.736 59.3033 126.577 60.1264 130.006 61.2237C133.435 62.3896 136.933 63.8299 139.608 66.3675C141.391 67.8763 142.9 69.7281 143.723 71.9228C145.163 74.9405 145.575 78.5754 144.477 81.7303C143.997 82.6904 143.723 83.7878 142.763 84.3364C142.694 83.582 143.243 82.9648 143.517 82.2789C144.477 80.0157 144.34 77.4095 143.929 75.009C143.586 73.9803 143.037 72.9515 142.694 71.9228C141.322 68.7679 138.579 66.3675 135.699 64.6529C131.378 62.4582 126.714 60.5379 121.845 60.675C120.953 60.6064 120.13 61.0179 119.307 60.8122L119.238 60.5379Z" fill="black"/>
<path d="M193.103 39.4825C193.172 39.4139 193.378 39.2768 193.515 39.2082C194.475 39.3453 195.504 39.5511 196.464 39.6197C196.967 39.7111 197.47 39.7797 197.973 39.8254C198.43 39.8254 198.91 39.8483 199.413 39.894C199.345 40.0312 199.276 40.2369 199.276 40.3741C198.384 40.3741 197.493 40.2369 196.67 40.1683C196.075 40.1226 195.481 40.054 194.887 39.9626C194.292 39.8712 193.698 39.7111 193.103 39.4825Z" fill="black"/>
<path d="M62.5883 78.8497C62.8169 78.6668 63.0226 78.4839 63.2055 78.3011C63.6856 78.644 63.2741 78.9183 63.0684 79.2612C62.8626 79.3298 62.5197 79.3984 62.3139 79.467C62.3825 79.3298 62.5197 79.0555 62.5883 78.8497Z" fill="black"/>
<path d="M168.413 49.4272C170.471 47.9869 173.008 47.644 175.409 46.8896C175.34 47.0268 175.34 47.3011 175.34 47.4383C173.694 47.987 172.048 48.3299 170.402 48.8785C169.785 49.0843 169.168 49.7015 168.413 49.4272Z" fill="black"/>
<path d="M59.8449 80.9758C60.1878 80.6329 60.5993 80.4957 61.0794 80.2899C60.9422 80.77 60.6679 81.113 60.325 81.3873C58.2675 83.1019 56.2785 84.9536 54.3582 86.8054C51.4777 89.6174 48.5972 92.4979 46.3339 95.8585C45.3051 97.3673 44.4135 99.0819 44.6193 100.934C44.6193 101.688 45.168 102.168 45.5795 102.717C45.5109 102.854 45.3737 103.06 45.3051 103.197C44.8936 102.785 44.2764 102.443 44.1392 101.757C43.5219 99.9735 44.2078 98.0532 45.0994 96.4757C47.5684 92.3607 51.0662 88.9315 54.5639 85.5709C54.9297 85.2509 55.2955 84.9079 55.6613 84.5422C56.9872 83.3076 58.3818 82.1189 59.8449 80.9758Z" fill="black"/>
<path d="M205.723 39.4826C207.026 39.2769 208.329 39.3455 209.632 39.4826C210.181 39.5512 210.798 39.6198 211.347 39.6884C213.953 39.8941 216.628 40.8543 218.479 42.7747C219.028 43.4605 219.44 44.2378 219.714 45.1065C219.988 45.4494 219.782 45.8609 219.508 46.1353C219.371 44.8322 218.548 43.6663 217.656 42.7061C216.01 41.3344 213.953 40.4428 211.827 40.2371C211.141 40.1913 210.455 40.1228 209.769 40.0313C209.358 39.9856 208.969 39.9399 208.603 39.8941C207.643 39.8256 206.752 39.8256 205.86 39.8256L205.723 39.4826Z" fill="black"/>
<path d="M171.499 50.8674C172.117 49.9073 173.283 49.5643 174.106 48.8785C174.174 49.0157 174.243 49.29 174.311 49.4272C173.42 49.9758 172.597 50.6617 171.499 50.8674Z" fill="black"/>
<path d="M161.349 52.7878C162.721 52.8564 162.035 54.4338 162.515 55.2569C161.555 56.5599 159.977 57.2458 158.468 57.7945C156.822 58.6175 154.971 58.8918 153.256 59.6462C152.09 60.1949 150.787 60.4006 149.621 60.9493C147.426 61.9781 145.026 62.1838 142.763 63.0068C141.185 63.5555 139.471 63.8984 137.893 64.5157C137.665 64.3785 137.459 64.2642 137.276 64.1728C138.854 63.6241 140.362 62.8011 142.008 62.3896C144.683 61.6352 147.358 60.9493 149.964 60.1263C152.296 58.9604 154.902 58.686 157.234 57.5201C158.949 57.1086 160.526 56.2856 161.898 55.1883C161.692 54.3653 161.898 53.4737 161.349 52.7878Z" fill="black"/>
<path d="M169.442 51.1418C169.442 51.0046 169.442 50.7988 169.442 50.6617C170.128 50.4559 170.745 50.2502 171.431 50.0444C171.568 51.0046 170.128 50.7988 169.511 51.1418C170.951 51.4161 172.597 51.9648 173.9 51.0732C174.037 51.1418 174.243 51.2789 174.312 51.3475C172.94 52.5134 171.019 52.1019 169.442 51.759C167.865 51.5533 166.424 52.3077 165.258 53.2679C163.955 54.5024 163.407 56.2855 163.407 58.0001C163.338 58.8231 164.024 59.3718 164.435 59.9891C164.778 60.6749 164.71 61.4293 164.778 62.1838C164.641 62.4581 164.413 62.6638 164.093 62.801C164.093 61.8408 164.435 60.6749 163.681 59.9205C163.064 59.2347 162.652 58.2745 162.789 57.3143C162.927 55.6683 163.612 54.0223 164.847 52.7878C166.081 51.759 167.727 51.0046 169.442 51.1418Z" fill="black"/>
<path d="M234.871 33.1041C235.214 32.5555 235.42 31.801 236.037 31.4581C235.831 33.1727 234.734 34.5444 233.636 35.7789C232.196 37.2877 230.756 38.7966 229.247 40.3054C228.287 41.2199 227.304 42.1115 226.298 42.9802C225.749 43.4374 225.201 43.8947 224.652 44.3519C221.154 46.9581 217.382 49.2213 213.679 51.6218C203.665 57.8629 193.515 64.0354 182.884 69.2478C175.889 72.7456 168.756 75.969 161.829 79.5354C159.84 80.4956 157.851 81.7301 155.657 82.2102C155.657 82.073 155.588 81.7987 155.519 81.7301C157.097 81.3186 158.469 80.5642 159.84 79.8783C169.03 75.0089 178.564 70.8938 187.822 66.093C195.024 62.2523 202.019 58.0687 209.015 53.8165C208.741 53.405 208.398 53.062 208.398 52.6505C208.603 50.7988 208.946 48.947 208.192 47.1638C207.849 46.6152 207.437 45.9979 206.957 45.5178C206.134 44.9005 205.106 44.6262 204.283 43.9404C205.86 43.8718 207.3 44.9006 208.192 46.1351C209.289 47.4382 209.221 49.2213 209.221 50.7988C209.083 51.6903 208.672 52.7877 209.495 53.4735C214.707 50.2501 219.988 47.0267 224.995 43.3917C226.824 41.8829 228.561 40.2826 230.207 38.5908C230.619 38.1336 231.053 37.6764 231.51 37.2192C232.745 35.9161 234.048 34.7501 234.871 33.1041Z" fill="black"/>
<path d="M239.055 30.8411C239.123 30.7039 239.329 30.4982 239.397 30.361C240.701 35.9163 241.112 41.6773 240.975 47.4384C240.838 52.7879 239.946 58.0689 238.849 63.3498C237.203 71.1684 234.665 78.7812 231.236 85.9825C227.944 93.2524 223.486 99.9736 218.617 106.283C216.079 109.575 213.541 112.867 210.387 115.611C210.318 115.542 210.249 115.405 210.181 115.336C211.21 113.896 212.513 112.662 213.679 111.359C218.822 105.186 223.555 98.6705 227.532 91.7436C232.676 82.3476 236.517 72.1286 238.506 61.5667C239.603 56.08 240.358 50.4561 240.289 44.8322C240.358 40.0999 239.672 35.4362 239.055 30.8411Z" fill="black"/>
<path d="M175.203 50.2502C175.386 49.8387 175.592 49.4044 175.82 48.9471C175.889 49.1529 176.026 49.4958 176.095 49.7016C175.912 49.9759 175.752 50.2502 175.614 50.5246C175.477 50.456 175.272 50.3188 175.203 50.2502Z" fill="black"/>
<path d="M202.088 41.4716C202.774 41.4716 203.528 41.5402 204.214 41.6088C206.614 42.226 209.22 42.9118 210.935 44.9008C211.004 44.9694 211.209 45.2437 211.347 45.3123C212.444 46.9583 213.61 48.4671 214.639 50.1131C214.273 49.976 213.93 49.7931 213.61 49.5645C212.307 47.8499 211.415 45.861 209.769 44.4893C208.809 43.6663 207.574 43.2548 206.409 42.8433C205.105 42.3632 203.665 41.8831 202.156 42.0203C202.156 41.8831 202.088 41.6088 202.088 41.4716Z" fill="black"/>
<path d="M126.028 64.4472C126.783 64.4472 127.469 64.3786 128.223 64.4472C128.68 64.5386 129.16 64.6301 129.663 64.7215C130.829 65.133 132.475 65.2702 133.024 66.5047C130.829 65.5445 128.497 64.8587 126.097 64.8587C126.097 64.7901 126.028 64.5158 126.028 64.4472Z" fill="black"/>
<path d="M101.475 72.0599C101.955 71.717 102.23 72.54 101.818 72.7457C101.338 73.0887 100.995 72.2656 101.475 72.0599Z" fill="black"/>
<path d="M237.134 33.9274C237.271 33.8588 237.477 33.653 237.546 33.5845C237.546 34.1331 237.409 34.6818 237.066 35.0247C235.351 37.0136 233.636 39.0026 231.716 40.7172C231.305 41.083 230.916 41.4487 230.55 41.8145C230.139 42.1346 229.75 42.4775 229.384 42.8433C228.47 43.6206 227.555 44.3978 226.641 45.1751C223.898 47.3012 221.154 49.3587 218.205 51.1419C218.137 51.0733 217.999 50.9362 217.931 50.799C220.674 48.8787 223.417 47.0269 226.024 44.9008C226.709 44.3521 227.395 43.8035 228.081 43.1862C229.864 41.6774 231.648 40.0999 233.294 38.4539C234.597 36.9451 236.105 35.642 237.134 33.9274Z" fill="black"/>
<path d="M113.203 71.9913C114.438 70.894 115.947 69.9338 117.661 69.8652C120.336 69.3852 123.216 69.248 125.685 70.5511C127.606 71.6484 129.389 73.2259 130.006 75.4205C129.938 75.352 129.663 75.352 129.526 75.2834C128.36 73.2259 126.44 71.4427 124.108 70.6882C122.256 70.0024 120.267 70.2082 118.347 70.3453C116.838 70.6882 115.329 71.0312 114.232 72.0599C111.9 74.0489 110.185 76.7922 109.774 79.8099C109.843 81.6617 109.568 83.7192 110.528 85.3652C110.871 86.5997 112.38 86.874 112.929 87.9714C111.9 87.6285 110.803 87.0798 110.186 86.1882C108.882 84.1993 108.882 81.7303 108.951 79.3984C109.5 76.5179 111.146 73.9803 113.203 71.9913Z" fill="black"/>
<path d="M211.69 43.8721C212.581 43.7349 213.267 44.4207 214.09 44.6265C215.325 45.2437 216.833 45.5181 217.862 46.4783C217.108 46.8212 216.49 46.1353 215.805 45.9982C214.433 45.3123 212.787 44.9694 211.69 43.8721Z" fill="black"/>
<path d="M141.048 65.2013C141.117 65.0642 141.117 64.7213 141.185 64.5841C143.792 64.104 146.261 65.6129 148.592 66.573C150.581 67.396 152.639 68.4934 154.833 68.6991C155.862 68.7677 156.891 68.6305 157.988 68.4934C157.783 68.9049 157.577 69.2478 157.097 69.2478C153.873 69.8651 150.787 68.2876 147.907 67.0531C146.192 66.2987 144.546 65.4757 142.694 65.1328C142.145 65.0642 141.597 65.0642 141.048 65.2013Z" fill="black"/>
<path d="M156.137 60.8808C157.097 60.4007 158.126 60.2635 159.154 60.1263C159.383 60.2178 159.634 60.3321 159.909 60.4692C158.057 60.9493 156.205 61.2923 154.559 62.2524C152.159 63.5555 149.553 65.1329 146.741 64.7214C146.261 64.5843 145.369 64.4471 145.78 63.8299C146.398 63.967 146.946 64.2414 147.632 64.2414C148.524 64.0356 149.415 63.7613 150.307 63.4869C152.433 62.9383 154.148 61.5666 156.137 60.8808Z" fill="black"/>
<path d="M172.803 57.6572C173.763 56.8342 174.791 55.9426 175.957 55.3254C177.192 54.9139 178.426 54.5024 179.73 54.2966C181.856 54.1594 183.982 54.1594 186.039 53.5422C188.44 52.8563 190.772 52.1019 193.241 51.759C194.818 51.2103 196.464 51.0732 198.11 51.2789C198.316 51.3475 198.59 51.4161 198.727 51.4161C200.03 51.6218 200.991 52.7878 201.333 54.0223C201.745 55.1882 201.676 56.4227 202.019 57.5886C201.951 57.7258 201.745 57.9316 201.676 58.0687C200.853 56.4227 201.402 54.3652 200.168 52.9249C199.756 52.2391 199.07 51.9648 198.316 51.8276C198.179 51.759 197.836 51.759 197.698 51.6904C195.847 51.4847 194.132 52.1019 192.28 52.3763C189.88 52.9249 187.548 53.7479 185.148 54.3652C182.747 55.051 180.072 54.4338 177.672 55.3254C175.683 55.7369 174.174 57.1771 172.734 58.5488C170.539 60.9492 169.853 64.3099 170.334 67.4647C170.745 69.1107 172.391 70.0709 173.008 71.6483C171.774 71.3054 171.088 70.2081 170.402 69.2479C169.236 67.4647 169.442 65.2014 169.716 63.1439C170.196 61.0864 171.225 59.1661 172.803 57.6572Z" fill="black"/>
<path d="M175.683 56.8342C176.575 56.2169 177.604 55.874 178.632 55.7368C180.827 55.6683 183.022 55.4625 185.285 55.3939C186.794 55.3253 188.234 54.6395 189.674 54.228C191.252 53.8165 192.692 52.8563 194.338 52.7191C195.71 52.582 197.219 52.4448 198.453 53.1992C199.825 53.8851 200.305 55.3939 200.922 56.697C201.196 57.3143 201.128 57.9315 201.059 58.5488C200.648 58.2059 200.579 57.6572 200.442 57.1771C200.03 56.2855 199.688 55.3253 199.139 54.5023C197.699 52.8563 195.367 53.1307 193.446 53.4736C192.486 53.7479 191.595 54.2966 190.634 54.5023C188.988 54.8452 187.548 55.874 185.834 55.874C183.433 56.0798 181.033 56.1483 178.564 56.2855C177.878 56.4227 177.123 56.5598 176.506 56.9713C174.997 58.1373 173.626 59.5775 172.597 61.155C172.254 61.978 172.117 62.801 171.842 63.624C171.362 64.9271 171.911 66.2988 172.391 67.5333C173.077 68.8364 174.517 69.3164 175.477 70.3452C175.157 70.3909 174.86 70.3452 174.586 70.208C173.488 69.5908 172.391 68.7678 171.842 67.6018C171.522 66.8246 171.294 66.0244 171.157 65.2014C171.019 64.3098 171.362 63.4868 171.568 62.6638C171.98 60.1948 174.037 58.4802 175.683 56.8342Z" fill="black"/>
<path d="M142.077 66.916C142.214 66.916 142.488 66.916 142.626 66.916C145.369 68.0819 148.318 68.9049 151.199 70.0022C152.982 70.6195 154.833 71.3739 156.754 71.5111C157.234 71.5797 157.92 71.1682 158.194 71.7168C157.645 71.9226 157.028 72.1969 156.411 72.0598C154.148 71.7854 152.022 70.9624 149.964 70.208C147.564 69.3164 145.026 68.6992 142.763 67.5332C142.488 67.3503 142.26 67.1446 142.077 66.916Z" fill="black"/>
<path d="M70.3383 89.2059C72.9445 87.9028 75.6879 86.8054 78.3626 85.5709C78.4998 85.6395 78.7741 85.7081 78.8427 85.7767C78.2255 86.2568 77.5396 86.5311 76.7852 86.874C74.3162 87.9714 71.8472 89.1373 69.4467 90.4404C65.949 92.2921 62.4512 94.2811 59.5021 96.9558C58.6105 97.8474 57.6503 98.8076 57.376 100.111C57.5132 100.797 58.2676 101.139 58.8848 101.277C60.668 101.551 62.4512 101.482 64.2344 101.551C66.2919 101.62 68.3494 101.825 70.3383 101.208C72.6702 100.865 74.9334 100.111 77.1967 99.4249C79.1171 98.6019 81.0374 98.0532 83.0263 97.5731C81.929 98.8762 80.0772 98.739 78.7056 99.4934C75.3449 100.659 71.9843 101.688 68.5552 102.168C66.1547 102.374 63.6857 102.1 61.2853 102.1C59.9822 102.031 58.6105 102.1 57.5131 101.277C56.8959 100.865 56.6901 100.042 56.9645 99.3563C57.7189 97.5731 59.2277 96.3386 60.668 95.1041C63.6171 92.7722 67.0463 90.989 70.3383 89.2059Z" fill="black"/>
<path d="M151.473 65.27C153.874 63.624 156.685 62.8695 159.497 62.6638C160.115 62.6638 161.006 62.458 161.212 63.2125C159.566 63.1439 157.989 63.4868 156.411 63.7611C154.628 64.1726 153.051 65.2014 151.267 65.8186C151.336 65.6815 151.405 65.4071 151.473 65.27Z" fill="black"/>
<path d="M80.1459 86.5997C79.9401 86.2568 80.2144 85.9138 80.3516 85.5709C80.8317 87.0798 81.5175 88.5886 82.0662 90.0975C82.9578 91.812 84.1237 93.5266 85.0839 95.2412C85.6325 96.27 86.4555 97.0244 87.2785 97.8474C87.8272 98.4647 88.4445 98.9448 88.7874 99.6992C87.6901 99.4934 87.1414 98.4647 86.387 97.8474C86.1584 97.6188 85.9526 97.3902 85.7697 97.1616C85.7011 97.093 85.4268 96.8187 85.3582 96.7501C84.0551 94.7611 82.8206 92.7722 81.6547 90.7833C81.1746 89.4116 80.4202 88.1085 80.1459 86.5997Z" fill="black"/>
<path d="M76.9223 88.4513C77.471 88.2455 78.0197 87.9712 78.5683 87.6969C78.6369 87.7655 78.8427 87.9712 78.9113 88.0398C78.294 88.4513 77.7454 88.7942 77.0595 89C74.179 90.1659 71.5042 91.7433 68.7609 93.2522C67.1606 94.1209 65.6289 95.1268 64.1657 96.2699C63.3427 97.0243 62.1768 97.7101 61.9025 98.876C62.8626 99.4247 64.0286 99.219 65.1259 99.1504C68.075 98.876 71.0241 98.6017 73.9733 98.1216C76.1679 97.5044 78.4312 96.9557 80.5573 96.2013C81.3803 95.7898 82.0661 95.2411 82.8205 94.761C82.9577 94.8296 83.0949 94.9668 83.2321 95.0353C82.2033 95.7898 81.1745 96.6814 79.94 97.0243C77.9282 97.6644 75.8936 98.2359 73.8361 98.7389C70.4983 99.2418 67.1377 99.5847 63.7542 99.7676C62.9312 99.7676 61.8339 99.8362 61.491 98.876C61.2852 98.053 62.1082 97.4358 62.5883 96.8871C64.9887 94.761 67.6635 93.1836 70.4069 91.6747C72.4644 90.4402 74.6591 89.3429 76.9223 88.4513Z" fill="black"/>
<path d="M159.291 66.6418C160.114 64.8586 162.103 64.31 163.681 63.3498C163.749 63.4184 163.818 63.6927 163.887 63.8299C162.858 64.4471 161.761 64.9272 160.8 65.6816C160.046 66.2989 159.634 67.1905 159.429 68.1506C159.497 68.9737 159.429 69.9338 159.84 70.6882C161.28 72.4028 163.887 72.7458 165.053 74.7347C164.367 74.9405 163.887 74.2546 163.407 73.9117C162.103 72.8144 160.252 72.4028 159.291 70.894C158.743 69.5909 158.537 67.9449 159.291 66.6418Z" fill="black"/>
<path d="M123.628 75.9691C123.948 75.7405 124.108 75.8319 124.108 76.2435C123.788 76.4721 123.628 76.3806 123.628 75.9691Z" fill="black"/>
<path d="M118.621 77.958C118.759 77.478 119.444 77.7523 119.239 78.2324C119.101 78.6439 118.416 78.301 118.621 77.958Z" fill="black"/>
<path d="M75.7564 91.332C76.7852 91.0576 77.7454 90.6461 78.7055 90.3032C78.9113 90.3718 79.1856 90.509 79.3914 90.5776C75.4135 92.0864 71.4357 93.7324 67.8693 96.0643C67.4578 96.4072 66.6348 96.8187 66.9091 97.4359C67.252 97.6417 67.595 97.7103 68.0065 97.7789C69.7211 97.7789 71.2985 97.093 73.0131 96.6815C75.6193 95.9957 78.2255 95.1041 80.9002 94.4868C80.6945 94.9669 80.283 95.2413 79.7343 95.3098C76.5108 96.27 73.2188 97.2302 69.9268 98.1218C69.3781 98.1904 68.7609 98.1904 68.1436 98.3275C67.595 98.2361 67.0463 98.0989 66.4976 97.916C66.4062 97.596 66.3147 97.2759 66.2233 96.9559C66.4976 96.6129 66.7719 96.2014 67.1835 95.9271C69.7896 94.0067 72.8073 92.7037 75.7564 91.332Z" fill="black"/>
<path d="M177.192 64.4472C177.466 63.0069 178.564 61.7038 180.004 61.2923C181.993 60.9494 184.05 61.841 186.039 61.5667C187.274 61.2923 188.097 60.195 189.263 59.7835C190.772 59.2348 192.555 58.549 194.201 59.372C194.818 59.5777 194.818 60.3321 194.955 60.8122C194.635 60.5379 194.338 60.2407 194.064 59.9206C193.309 59.7149 192.555 59.372 191.8 59.5777C190.703 59.8521 189.606 60.1264 188.714 60.7436C187.96 61.1552 187.342 61.841 186.519 62.0467C184.256 62.8012 181.856 61.2237 179.661 62.1153C177.809 62.9383 177.261 65.4759 178.358 67.1905C178.769 67.8078 179.455 68.0135 180.072 68.3565C179.867 68.425 179.524 68.5622 179.318 68.6308C178.724 68.3565 178.198 67.9907 177.741 67.5335C177.466 66.5047 176.986 65.4759 177.192 64.4472Z" fill="black"/>
<path d="M235.077 47.4382C235.145 46.8895 235.077 46.2037 235.557 45.8608C235.9 47.1638 235.557 48.5355 235.351 49.8386C233.774 57.3828 231.922 64.7899 229.247 71.9912C227.601 76.7235 225.749 81.4558 223.555 85.9137C219.92 93.7323 215.324 101.071 209.701 107.586C208.672 108.684 207.643 109.849 206.34 110.673C206.409 110.535 206.477 110.192 206.477 110.055C212.307 104.02 217.039 97.0243 220.811 89.5487C224.103 83.239 226.778 76.6549 229.11 69.9337C231.373 63.6926 232.951 57.1771 234.459 50.7302C234.665 49.6329 234.871 48.5355 235.077 47.4382Z" fill="black"/>
<path d="M123.011 78.5753C123.331 78.3467 123.491 78.4381 123.491 78.8496C123.171 79.0782 123.011 78.9868 123.011 78.5753Z" fill="black"/>
<path d="M145.575 72.8142C147.838 73.0885 150.101 73.1571 152.365 73.02C152.913 73.02 153.53 72.7456 153.805 73.2943C151.542 73.9801 149.141 73.7058 146.741 73.5686C146.398 73.3629 145.026 73.4315 145.575 72.8142Z" fill="black"/>
<path d="M73.2874 94.8297C74.9334 93.3209 77.1966 92.5665 79.3913 92.0178C79.4599 92.0864 79.7342 92.3607 79.8028 92.4293C77.9511 92.9094 76.0993 93.5266 74.4532 94.624C76.3736 94.2125 78.1568 93.7324 80.0086 93.3209C79.8714 93.7324 79.5285 94.0067 79.117 94.0753C77.2652 94.5554 75.4134 95.1726 73.4931 95.3784C73.4245 95.2412 73.2874 94.9669 73.2874 94.8297Z" fill="black"/>
<path d="M213.13 53.8165C213.45 53.7251 213.77 53.6336 214.09 53.5422C214.021 53.6794 213.884 53.9537 213.816 54.1595C208.809 57.3143 203.734 60.5377 198.59 63.4868C197.356 64.1041 196.258 64.9957 194.955 65.3386C195.024 65.2015 195.23 64.9271 195.367 64.7899C201.333 61.2236 207.437 57.7944 213.13 53.8165Z" fill="black"/>
<path d="M145.163 73.4315C145.3 73.5001 145.643 73.6372 145.78 73.7058C146.192 75.0089 146.878 76.1748 147.152 77.4779C147.632 78.7125 147.632 80.0841 147.975 81.3186C147.907 81.5244 147.769 81.9359 147.701 82.1416C147.221 81.6616 147.289 80.9757 147.152 80.3585C146.535 78.0266 145.849 75.7633 145.163 73.4315Z" fill="black"/>
<path d="M180.141 63.8299C181.101 62.8697 182.61 63.0069 183.845 63.2812C184.873 63.5556 185.902 63.0069 186.999 62.7326C188.646 62.3211 190.086 61.018 191.869 60.9494C192.829 60.8808 194.201 61.1551 194.269 62.3896C193.584 62.0467 192.898 61.3609 192.075 61.5666C190.634 61.5666 189.4 62.3211 188.165 62.9383C187.022 63.3498 185.856 63.6699 184.668 63.8985C183.502 63.8985 182.199 63.4184 181.033 63.8985C180.621 64.1728 180.141 64.4472 180.141 64.9958C179.798 65.956 181.033 66.2989 181.513 66.9162C180.621 67.1905 179.935 66.3675 179.524 65.6817C179.455 65.0644 179.592 64.2414 180.141 63.8299Z" fill="black"/>
<path d="M130.555 78.0267C130.692 77.9581 130.898 77.7523 130.966 77.6152C131.241 79.3298 131.584 81.0444 131.241 82.8275C130.966 85.2966 129.595 87.6284 127.469 89.0001C124.451 91.0576 120.679 91.812 117.044 91.4691C115.741 91.1948 114.506 90.7147 113.478 89.8917V89.4802C114.712 89.9603 115.878 90.6461 117.181 90.8518C120.816 91.0576 124.657 90.0974 127.606 87.9027C129.663 86.3253 130.555 83.7191 130.761 81.1815C130.898 80.1528 130.692 79.0554 130.555 78.0267Z" fill="black"/>
<path d="M122.325 81.25C122.691 81.0214 122.851 81.1357 122.805 81.593C122.393 81.8216 122.233 81.7073 122.325 81.25Z" fill="black"/>
<path d="M46.7454 103.266C47.4312 103.06 48.117 103.334 48.8029 103.54C49.9917 103.768 51.2033 103.997 52.4378 104.226C57.7874 104.706 63.2055 104.569 68.555 104.02C77.3338 103.403 85.9753 101.962 94.5483 100.042C95.4628 99.9507 96.3543 99.7678 97.2231 99.4934C98.5262 99.0819 99.8978 99.0134 101.27 98.6019C104.424 97.7103 107.648 96.8187 110.871 96.0642C114.163 95.3098 117.25 94.0067 120.542 93.1151C123.148 92.2921 125.823 91.6749 128.36 90.6461C130.623 89.8231 132.955 89.4116 135.219 88.52C137.207 87.6284 139.402 87.2855 141.46 86.3939C143.449 85.5709 145.712 85.2966 147.701 84.2678C149.553 83.582 151.61 83.1705 153.462 82.3475L153.599 82.759C152.982 82.9647 152.433 83.1705 151.884 83.4448C150.581 84.0621 149.072 84.2678 147.769 84.8851C146.055 85.7081 144.134 85.9824 142.351 86.7368C140.568 87.5599 138.648 87.8342 136.796 88.5886C134.601 89.5488 132.132 89.8917 129.938 90.9205C127.126 91.8806 124.245 92.5665 121.433 93.5266C118.347 94.6926 115.192 95.447 112.037 96.4072C109.157 97.1616 106.276 98.1218 103.258 98.6704C101.132 99.1505 99.0748 99.9735 96.8801 100.179C95.1655 100.728 93.3824 100.865 91.7364 101.345C86.4554 102.374 81.243 103.334 75.8935 103.951C70.8869 104.5 65.9488 105.049 60.8736 105.186C56.5528 105.186 52.0949 105.186 47.9113 103.814C47.4998 103.746 47.1569 103.471 46.7454 103.266Z" fill="black"/>
<path d="M117.318 83.7876C117.73 83.5132 117.913 83.6047 117.867 84.0619C117.501 84.3362 117.318 84.2448 117.318 83.7876Z" fill="black"/>
<path d="M147.015 76.1064C149.278 75.8321 151.541 75.6949 153.668 74.6662C154.559 74.1861 155.519 73.9118 156.548 73.706C156.479 73.8432 156.342 74.1175 156.274 74.2547C153.53 75.4892 150.581 76.5865 147.564 76.5179C147.426 76.3808 147.152 76.175 147.015 76.1064Z" fill="black"/>
<path d="M47.0198 105.666C47.7742 106.215 48.0485 107.175 48.5972 107.929C50.1061 110.261 52.0264 112.25 53.8096 114.307C56.21 117.257 58.6105 120.274 61.1481 123.018C64.9202 126.927 69.0352 130.356 73.4932 133.374C81.6546 138.929 90.5705 143.661 100.309 145.925C101.613 146.199 102.916 146.542 104.287 146.816C105.202 146.999 106.116 147.159 107.031 147.296C107.808 147.479 108.608 147.639 109.431 147.776C110.391 147.914 111.42 148.051 112.38 148.188C113.752 148.325 115.124 148.531 116.495 148.599C121.502 149.079 126.646 149.697 131.652 149.079C132.064 148.942 132.407 149.148 132.681 149.285C131.309 149.902 129.8 149.834 128.292 149.902C122.942 150.04 117.593 149.285 112.243 148.805C111.077 148.599 109.911 148.462 108.745 148.256C108.105 148.165 107.488 148.051 106.894 147.914C106.573 147.868 106.253 147.822 105.933 147.776C105.568 147.685 105.179 147.594 104.767 147.502C103.464 147.228 102.093 146.953 100.79 146.61C100.058 146.473 99.3493 146.313 98.6634 146.13C90.2962 144.004 82.4776 139.958 75.2763 135.294C69.9954 131.865 65.0573 128.024 60.7366 123.498C60.3708 123.086 60.005 122.698 59.6392 122.332C58.8162 121.372 57.9246 120.343 57.1016 119.314C54.8383 116.571 52.5065 113.759 50.1747 111.015C48.8716 109.438 47.3627 107.723 47.0198 105.666Z" fill="black"/>
<path d="M153.805 76.7236C155.862 75.6948 157.92 74.5975 159.977 73.5001C160.114 73.6373 160.32 73.843 160.457 73.9116C157.303 75.4891 154.353 77.5466 150.856 78.0952C150.719 78.0267 150.444 77.8895 150.307 77.7523C151.473 77.3408 152.707 77.1351 153.805 76.7236Z" fill="black"/>
<path d="M48.3229 105.666C49.0773 105.529 49.7631 105.872 50.449 106.078C52.918 106.763 55.5242 106.832 58.1304 106.695C68.5551 106.421 79.0485 105.735 89.4046 104.226C89.9533 104.157 90.4334 104.02 90.982 103.883C90.9363 104.294 90.7305 104.523 90.3648 104.569C87.2785 105.186 84.1922 105.529 81.0374 105.803C74.3162 106.558 67.5949 106.969 60.8737 107.244C57.856 107.312 54.7698 107.586 51.7521 106.969C50.5861 106.695 49.283 106.489 48.3229 105.666Z" fill="black"/>
<path d="M149.896 81.3186C154.216 79.9469 158.606 78.4381 162.241 75.6947C162.378 76.4491 161.555 76.8606 161.075 77.2721C159.086 78.5066 157.028 79.4668 154.834 80.2212C153.325 80.9757 151.679 81.3872 150.101 81.7301C150.033 81.6615 149.964 81.4557 149.896 81.3186Z" fill="black"/>
<path d="M80.0086 100.111C81.7918 99.5621 83.7121 99.1506 85.3581 98.259C85.3581 98.3962 85.2896 98.6705 85.2896 98.8077C83.2321 99.905 80.9002 100.454 78.6369 101.002C78.7741 100.385 79.4599 100.317 80.0086 100.111Z" fill="black"/>
<path d="M64.0972 120.274C63.8228 119.931 63.137 119.314 63.96 119.52C67.4578 122.537 71.5728 124.664 75.5507 126.858C86.6613 132.414 98.1834 137.214 110.323 139.958C112.312 140.369 114.301 140.712 116.358 141.055C117.661 141.261 118.964 141.398 120.267 141.672C120.862 141.718 121.456 141.787 122.051 141.878C123.079 142.015 124.177 142.084 125.274 142.221C126.051 142.267 126.829 142.335 127.606 142.427C128.36 142.427 129.115 142.495 129.869 142.633C129.389 143.113 128.635 143.044 127.949 143.044C125.548 142.907 123.148 142.701 120.747 142.358C115.329 141.672 109.911 140.781 104.63 139.272C95.3028 136.734 86.3183 132.894 77.6768 128.641C73.0131 126.104 68.075 123.772 64.0972 120.274Z" fill="black"/>
<path d="M195.367 119.794C198.11 117.943 200.579 115.748 202.911 113.485C202.98 113.828 203.048 114.308 202.705 114.582C201.059 116.434 199.139 117.943 197.15 119.451C196.053 120.206 195.024 121.029 193.789 121.372C194.064 120.617 194.818 120.274 195.367 119.794Z" fill="black"/>
<path d="M206.203 118.697C206.889 118.217 207.506 117.668 208.261 117.462C208.055 118.217 207.232 118.491 206.683 119.04C202.98 122.263 199.07 125.281 194.955 128.024C190.497 131.042 185.834 133.648 181.033 136.049C175.752 138.586 170.539 141.124 165.053 143.044C163.612 143.799 161.898 144.004 160.389 144.69C158.331 145.445 156.205 146.062 154.011 146.473C152.296 146.816 150.65 147.434 148.935 147.639C145.278 148.462 141.597 149.057 137.893 149.422C137.962 149.354 138.031 149.08 138.099 149.011C141.734 148.325 145.438 147.914 149.073 146.953C151.199 146.748 153.119 145.993 155.177 145.513C163.544 143.387 171.5 139.958 179.181 136.186C186.794 132.551 193.995 128.299 200.648 123.155C201.402 122.538 202.225 121.989 202.98 121.372C203.437 120.96 203.917 120.572 204.42 120.206C205.014 119.703 205.609 119.2 206.203 118.697Z" fill="black"/>
<path d="M204.488 122.195C206.477 122.675 206.957 124.869 208.123 126.241C208.535 126.698 208.832 127.224 209.015 127.819C208.878 127.75 208.535 127.681 208.398 127.681C208.032 127.178 207.666 126.676 207.3 126.173C206.409 125.075 205.997 123.635 204.694 122.881C204.694 122.743 204.557 122.4 204.488 122.195Z" fill="black"/>
<path d="M133.984 143.524C134.121 143.387 134.396 143.25 134.533 143.113C135.63 143.113 136.727 143.113 137.825 143.113C138.168 143.044 138.511 143.181 138.716 143.524C137.139 143.661 135.561 143.867 133.984 143.524Z" fill="black"/>
<path d="M203.803 126.995C203.46 126.378 203.048 125.624 203.871 125.212C204.145 126.31 205.243 127.75 204.283 128.779C202.98 130.356 201.265 131.453 199.687 132.688C198.59 133.442 197.561 134.471 196.327 134.883C196.258 134.471 196.601 134.197 196.876 133.922C198.933 132.276 201.128 130.768 203.117 128.984C203.597 128.504 204.351 127.75 203.803 126.995Z" fill="black"/>
<path d="M207.437 129.396C207.918 129.053 208.466 128.71 209.083 128.573C208.946 128.893 208.763 129.145 208.535 129.327C204.694 132.208 201.059 135.294 197.218 138.106C188.92 144.416 179.524 149.217 169.716 152.44C166.15 153.538 162.515 154.566 158.88 155.526C157.577 155.869 156.274 156.349 154.971 156.555C153.119 156.761 151.336 157.584 149.484 157.721C147.221 158.338 144.82 158.544 142.489 159.093C142.214 159.161 141.323 159.436 141.46 158.818C144.34 157.858 147.495 157.79 150.444 156.83C152.365 156.555 154.216 156.075 156.068 155.526C160.457 154.635 164.71 153.332 169.03 152.029C170.608 151.274 172.322 151 173.9 150.245C180.072 147.982 185.902 144.896 191.389 141.33C194.544 139.272 197.561 137.009 200.51 134.746C202.797 132.917 205.106 131.133 207.437 129.396Z" fill="black"/>
<path d="M138.511 151.549C138.579 151.411 138.785 151.206 138.922 151.137C139.334 152.714 139.059 154.36 139.539 155.938C139.677 157.172 140.431 158.338 140.294 159.573C139.539 159.23 139.471 158.407 139.265 157.721C138.579 155.732 138.579 153.606 138.511 151.549Z" fill="black"/>
<path d="M191.252 138.243C192.075 137.626 192.76 136.734 193.789 136.391C193.446 137.557 192.28 138.175 191.457 138.929C190.223 139.821 189.057 140.918 187.617 141.467C187.754 141.124 187.891 140.781 188.234 140.506C189.194 139.752 190.223 138.998 191.252 138.243Z" fill="black"/>
<path d="M141.391 152.097C141.528 151.96 141.734 151.686 141.803 151.549C142.146 152.92 142.214 154.429 142.077 155.801C141.94 155.801 141.734 155.869 141.597 155.869C141.528 154.635 141.46 153.332 141.391 152.097Z" fill="black"/>
</svg>
