<svg width="242" height="180" viewBox="0 0 242 180" fill="none" xmlns="http://www.w3.org/2000/svg">
<path d="M226.33 136.736C226.33 134.992 227.835 134.12 229.135 133.539C229.728 133.781 230.321 134.024 230.914 134.266C231.324 135.356 231.94 136.591 231.188 137.608C230.161 139.716 226.603 139.134 226.33 136.736Z" fill="black"/>
<path d="M123.422 15.0243C127.39 14.7336 131.336 14.7336 135.259 15.0243C142.922 15.0243 150.586 16.2596 157.907 18.6575C158.044 18.5121 158.249 18.2215 158.386 18.0762C158.705 18.4153 159.024 18.7544 159.344 19.0935C160.165 19.0935 161.054 19.5295 161.533 20.3288C161.396 20.4741 161.26 20.7647 161.191 20.9101C162.423 23.6713 163.175 26.7232 164.27 29.5571C165.57 33.7716 167.486 37.7681 168.991 41.9099C170.018 44.6711 171.044 47.4324 171.865 50.3389C172.96 53.9721 173.644 57.678 174.739 61.3112C176.313 65.5984 178.023 69.8129 179.46 74.1C180.144 76.8613 181.307 79.6225 181.034 82.6017C180.281 82.529 179.597 82.0931 179.049 81.6571C175.56 79.2592 172.276 76.6433 168.512 74.6813C164.475 72.5014 160.233 70.6122 156.128 68.5049C155.033 67.8509 153.665 67.5603 152.707 66.6156C150.586 63.4911 148.943 60.0032 147.233 56.588C143.333 50.1936 138.543 44.3805 134.027 38.4221C127.664 30.429 121.232 22.3634 113.364 16.0416C113.364 15.8236 113.364 15.3149 113.432 15.0969C114.322 15.6056 115.416 15.5329 116.443 15.3876C118.769 14.9516 121.095 15.1696 123.422 15.0243Z" fill="#E56E0C"/>
<path d="M99.4738 18.9482C100.295 18.5849 100.979 19.3115 101.526 19.8202C102.963 21.3461 104.606 22.5087 105.974 24.1073C110.695 27.6679 114.527 32.2457 118.564 36.6055C123.422 42.2006 128.622 47.4324 133.822 52.6642C135.669 54.6988 137.654 56.8787 138.954 59.422C139.227 59.9306 139.364 61.1659 138.475 61.0206C135.054 59.7853 131.633 58.6227 128.006 58.1867C124.996 58.0414 121.985 57.9687 118.974 58.2593C114.732 58.6227 110.558 58.1867 106.385 58.8407C104.537 59.1313 102.963 57.7507 101.253 57.1694C95.6422 54.4808 89.7578 52.5189 84.0787 49.903C78.8101 47.5778 73.6784 45.1072 68.4783 42.782C67.2467 42.2006 65.8782 42.6366 64.5782 42.6366C63.6887 42.2733 64.5098 41.474 64.8519 40.9654C66.973 38.4221 69.6415 36.3875 72.1731 34.2803C76.8943 30.5017 81.8891 27.2319 87.0208 24.2527C90.9894 22.0001 95.4369 20.9828 99.4738 18.9482Z" fill="#E56E0C"/>
<path d="M175.423 26.36C175.423 25.706 175.423 25.052 175.97 24.5434C176.313 25.27 176.449 26.142 177.134 26.578C180.076 28.8305 182.676 31.5191 185.55 33.9897C189.587 37.7682 193.555 41.7647 197.318 45.9792C199.85 48.9584 202.176 52.301 203.34 56.2248C204.708 59.7127 204.913 63.5639 205.324 67.3424C206.282 76.498 208.334 85.5083 211.619 94.0827C213.192 98.2972 214.766 102.584 217.024 106.436C217.298 107.017 217.845 107.598 217.503 108.325C216.819 108.615 216.271 108.107 215.724 107.816C214.082 106.944 212.577 105.854 210.935 105.128C209.087 104.401 207.582 103.02 205.871 101.93C204.229 100.913 202.655 99.6778 201.013 98.5878C198.276 96.9892 195.813 95.0273 193.555 92.8474C191.708 91.3215 190.202 89.4322 188.423 87.9063C188.013 86.7436 187.944 85.5084 187.739 84.2731C187.123 79.6953 185.96 75.1901 185.139 70.6849C184.181 65.5984 183.292 60.4393 182.197 55.3528C181.034 50.1937 179.734 45.1072 178.571 39.9481C177.955 37.2595 177.818 34.4256 177.202 31.7371C176.792 30.2111 176.381 28.6852 176.039 27.0866C175.834 26.9413 175.56 26.5779 175.423 26.36Z" fill="#E56E0C"/>
<path d="M58.3516 51.3562C58.7621 51.2108 59.1955 51.0655 59.6516 50.9202C59.72 51.1382 59.8569 51.5015 59.9253 51.7195C63.8254 52.3735 67.7255 53.2454 71.5572 54.2627C79.1521 56.37 87.0892 57.3873 94.4104 60.3665C95.4368 60.5845 95.7789 61.8924 94.7525 62.4011C92.4261 63.6364 89.8945 64.581 87.5681 65.8889C81.4785 68.8682 76.2099 73.446 69.8466 75.9892C67.4518 77.1519 64.5096 76.7159 62.2517 75.2626C59.72 73.3733 58.2832 70.3941 56.9147 67.5602C55.9568 65.3803 54.7252 63.3457 54.1778 60.9478C54.0409 60.0758 53.9041 59.2039 54.3831 58.4772C55.1357 56.9513 55.8884 55.4253 56.7778 53.9721C57.3252 53.1001 58.0095 52.3735 58.3516 51.3562Z" fill="#E56E0C"/>
<path d="M213.124 74.4635C213.261 74.3181 213.466 74.1001 213.603 73.9548C214.219 75.1174 215.382 75.7714 215.929 76.934C216.682 78.5326 217.982 79.6226 219.008 81.0759C221.198 83.9824 223.319 87.0343 226.124 89.2869C228.656 91.5395 231.53 93.5014 233.719 96.1173C235.43 98.0792 237.346 100.404 237.14 103.311C237.003 104.764 235.703 105.491 234.814 106.29C232.898 108.034 230.64 109.197 228.314 110.214C227.014 110.723 225.782 111.813 224.345 111.377C223.25 109.923 222.977 108.034 222.293 106.363C220.719 102.003 219.624 97.4252 218.256 92.9201C216.34 86.8163 215.382 80.4219 213.124 74.4635Z" fill="#E56E0C"/>
<path d="M125.406 14.7337C125.748 14.443 126.022 13.9344 126.569 14.007C130.059 14.225 133.617 13.8617 137.106 14.0797C140.048 14.5157 142.991 14.7337 145.864 15.2423C145.773 15.6783 145.522 15.8721 145.112 15.8236C142.033 15.8236 139.022 15.315 135.943 15.0243C134.232 14.661 132.453 14.661 130.743 14.9517C128.964 15.315 127.185 14.661 125.406 14.7337Z" fill="black"/>
<path d="M115.416 14.8062C118.222 14.8789 120.89 14.1523 123.695 14.4429C123.627 14.5883 123.49 14.8789 123.422 15.0969C120.206 15.0969 116.922 15.6055 113.706 15.8235C109.806 16.0415 106.111 17.5675 102.211 17.8581C99.4053 18.3668 96.4631 18.8754 93.9999 20.6194C91.9472 21.6367 89.7577 22.5086 87.9103 23.9619C85.4471 25.8512 82.7102 27.3044 79.9048 28.467C79.4943 28.467 78.6732 29.2664 78.6048 28.467C79.1522 28.0311 79.768 27.7404 80.3838 27.4498C82.7102 26.2871 84.9681 25.1245 87.0208 23.4532C88.2524 22.436 89.7577 21.6366 91.1946 20.91C92.0157 20.5225 92.8367 20.1592 93.6578 19.8201C93.9771 19.6263 94.3192 19.4325 94.6842 19.2388C95.4596 18.8997 96.2579 18.609 97.079 18.3668C97.7632 18.1488 98.379 18.0035 98.9948 17.7855C103.169 17.2042 107.137 15.8962 111.242 15.1696C112.679 15.1696 114.048 14.8789 115.416 14.8062Z" fill="black"/>
<path d="M149.012 15.8236C150.517 15.6783 152.022 16.1143 153.459 16.4776C157.291 16.9863 160.917 18.5122 164.612 19.5295C165.981 19.7475 167.075 20.6921 168.17 21.4914C164.27 20.5468 160.37 19.6748 156.607 18.3669C154.417 17.7856 152.296 16.9136 150.038 16.4776C149.673 16.3323 149.331 16.1143 149.012 15.8236Z" fill="black"/>
<path d="M115.69 20.1835C116.1 20.232 116.443 20.45 116.716 20.8375C118.427 23.2354 120.685 25.27 122.669 27.4499C125.543 30.4291 128.074 33.7717 130.948 36.8235C132.864 39.0761 134.985 41.1834 136.901 43.436C140.391 47.6505 143.47 52.2283 146.754 56.6608C147.438 57.4601 148.122 58.3321 148.67 59.2767L148.328 59.4947C146.07 57.2421 144.428 54.4809 142.512 51.9376C140.117 48.8131 137.996 45.4705 135.259 42.6367C133.001 40.3114 130.948 37.7682 128.759 35.4429C126.843 33.481 125.338 31.1558 123.353 29.2665C121.232 26.8686 118.837 24.6887 116.922 22.0728C116.443 21.4915 115.827 20.9828 115.69 20.1835Z" fill="black"/>
<path d="M106.59 20.4014C107.958 21.0553 108.711 22.4359 109.737 23.3806C111.927 25.5605 113.706 28.0311 115.69 30.3563C118.837 33.6989 121.78 37.1141 124.79 40.5293C124.79 40.6746 124.859 41.0379 124.859 41.1832C122.737 39.2213 120.89 36.8961 118.837 34.8615C115.211 31.1556 112.2 26.8685 108.574 23.1626C107.89 22.2906 106.795 21.6367 106.59 20.4014Z" fill="black"/>
<path d="M171.933 23.2352C173.576 23.5259 175.012 24.5432 176.449 25.4878C179.734 27.7404 182.813 30.3563 185.823 32.9722C187.876 34.6434 189.587 36.6053 191.366 38.6399C191.639 39.1486 192.323 39.7299 192.187 40.3839C191.708 40.1659 191.366 39.7299 191.023 39.2939C188.697 36.678 186.302 34.0621 183.497 32.1002C179.665 29.2663 175.97 26.1417 171.797 23.8165C171.865 23.6712 171.933 23.3805 171.933 23.2352Z" fill="black"/>
<path d="M166.323 27.3771C166.46 27.3771 166.802 27.3771 166.939 27.3044C167.144 29.339 167.897 31.2283 168.512 33.1176C170.086 37.0414 171.181 41.1832 172.344 45.3251C175.081 53.8994 177.407 62.6191 179.802 71.2661C180.144 72.792 180.828 74.2453 181.034 75.7712C179.665 74.6086 179.665 72.5014 178.981 70.8301C178.707 69.7401 178.365 68.6502 178.092 67.4876C176.86 63.3457 175.834 59.1312 174.602 54.9167C173.986 52.8095 173.37 50.7022 172.755 48.595C172.412 47.6503 172.139 46.633 171.797 45.6884C170.907 42.5638 170.086 39.4393 169.06 36.3874C168.786 35.7577 168.558 35.1279 168.375 34.4982C167.554 32.1729 166.528 29.8477 166.323 27.3771Z" fill="black"/>
<path d="M71.1467 35.1521C72.4467 33.9894 73.5415 32.4635 75.0468 31.5915C75.0468 31.8822 74.9783 32.4635 74.9783 32.6815C71.8765 36.1209 68.6606 39.4392 65.3307 42.6364C63.757 44.0897 62.8675 46.1243 61.5675 47.8682C60.678 49.1035 60.1306 50.5568 59.3095 51.7921C58.42 53.4634 56.9831 54.626 56.2989 56.3699C55.8884 57.3146 55.5463 58.2592 55.2041 59.2765C55.0673 60.1484 55.0673 61.0204 54.5883 61.8197C53.7673 61.0204 54.2462 59.7851 54.4515 58.7678C55.0673 56.8059 55.8199 54.844 57.12 53.2454C58.8305 51.2108 59.6516 48.5222 61.2253 46.415C62.1833 44.889 63.0728 43.2177 64.3728 41.9825C66.6992 39.7299 68.8203 37.332 71.1467 35.1521Z" fill="black"/>
<path d="M175.697 32.827C175.902 32.9723 176.176 33.1903 176.381 33.263C177.339 37.1868 178.297 41.1107 179.118 45.1072C179.871 48.813 180.897 52.4462 181.581 56.1521C182.676 62.0378 183.976 67.9236 184.865 73.9547C184.729 73.7367 184.386 73.3008 184.181 73.0828C182.539 64.3631 181.102 55.5708 178.913 46.9964C177.955 42.2733 176.723 37.5501 175.697 32.827Z" fill="black"/>
<path d="M192.255 40.5294C194.65 41.8374 196.018 44.4533 197.797 46.5605C202.313 52.083 205.324 58.768 209.019 64.9445C211.687 69.7403 214.698 74.3908 217.708 79.0413C219.008 80.5672 220.377 82.0932 221.54 83.8371C221.745 84.2004 222.224 84.5637 222.156 85.0724C221.54 85.2904 221.198 84.5637 220.856 84.2004C219.829 82.6745 218.529 81.4392 217.366 80.1312C215.108 77.0067 213.261 73.6641 211.277 70.3216C207.924 64.6538 204.366 59.0587 201.15 53.3183C199.166 49.7577 196.702 46.4879 194.308 43.218C193.623 42.2734 192.597 41.692 192.255 40.5294Z" fill="black"/>
<path d="M67.8625 43.6539C69.0941 43.5086 70.2573 44.0173 71.4205 44.4532C74.6363 45.7612 77.9207 46.7785 81.0681 48.3771C84.4208 49.903 87.9788 50.9203 91.3999 52.2283C93.3842 53.0276 95.5737 53.6089 97.4896 54.6988C96.4632 54.9895 95.5737 54.5535 94.6842 54.1902C90.2367 52.5916 85.7893 51.211 81.4102 49.3944C77.7154 47.6505 73.8837 46.3425 70.1204 44.8166C69.2994 44.4532 68.3414 44.4533 67.8625 43.6539Z" fill="black"/>
<path d="M127.869 43.5085C128.759 43.6538 129.238 44.4532 129.922 44.9618C131.017 45.9064 131.975 46.9964 133.069 47.941C133.548 48.4497 134.301 48.8856 134.438 49.685C132.864 49.1036 131.769 47.5777 130.538 46.4877C129.717 45.4705 128.143 44.9618 127.869 43.5085Z" fill="black"/>
<path d="M62.457 50.6296C67.315 50.9929 72.0361 51.8649 76.7573 53.1729C81.5469 54.1175 86.1312 55.7161 90.784 57.0967C90.784 57.2421 90.7156 57.46 90.6472 57.6054C87.3629 56.8787 84.0786 55.7161 80.7943 54.9168C76.4152 54.0448 72.1046 52.9549 67.6571 52.1556C65.9465 51.7922 64.1675 51.7922 62.457 51.3563C62.457 51.1383 62.457 50.8476 62.457 50.6296Z" fill="black"/>
<path d="M117.948 54.0448C121.574 54.6261 125.201 55.2074 128.759 56.0794C131.359 56.588 133.959 57.3873 136.559 57.896C138.338 58.2593 140.185 58.332 141.964 58.9133C141.964 59.0586 141.896 59.3493 141.896 59.5672C139.159 58.9859 136.285 58.7679 133.548 58.0413C128.759 56.806 123.901 55.716 118.974 54.9894C118.427 54.8441 117.879 54.6988 117.401 54.5534C117.537 54.4081 117.811 54.1901 117.948 54.0448Z" fill="black"/>
<path d="M137.791 53.8995C139.091 54.4808 140.391 55.4254 141.075 56.7334C139.706 56.2974 138.475 55.2074 137.791 53.8995Z" fill="black"/>
<path d="M99.4054 56.8786C101.663 56.2247 103.853 55.3527 106.179 55.5707C105.29 56.5153 103.99 56.2247 102.895 56.588C97.2158 58.1866 91.6736 60.1485 86.3366 62.6191C84.4892 63.4911 82.5734 64.363 80.726 65.1623C79.6768 65.6952 78.6505 66.2523 77.6469 66.8336C76.8943 67.2696 76.2101 67.7782 75.4574 68.1415C74.2942 68.8682 73.1995 69.6675 72.0363 70.3941C70.2573 71.4841 68.3414 71.9927 66.3572 72.4287C65.6729 72.0654 64.8519 71.6294 64.7834 70.7574C65.0571 70.9028 65.5361 71.2661 65.8098 71.4841C67.2467 71.5568 68.5467 70.9754 69.9152 70.6121C74.0889 68.5049 77.7838 65.5256 82.0944 63.709C82.9155 63.3457 83.7366 62.9824 84.5576 62.6191C85.5156 62.1831 86.4506 61.7471 87.363 61.3111C91.3315 59.5672 95.3684 58.1866 99.4054 56.8786Z" fill="black"/>
<path d="M104.947 58.1139C109.121 57.6779 113.363 57.1693 117.537 57.4599C119.385 57.7506 121.301 57.6053 123.148 57.9686C124.38 58.1139 125.68 58.4772 126.98 58.4772C127.048 58.6226 127.185 58.9859 127.253 59.1312C126.934 59.2765 126.615 59.3976 126.295 59.4945C119.043 58.4772 111.584 58.5499 104.263 59.6399C100.158 60.3665 96.1894 61.7471 92.2893 63.1277C87.9786 64.6537 84.2154 67.4876 80.0416 69.3041C79.5855 69.5464 79.1065 69.7886 78.6047 70.0308C75.7309 71.7021 73.3361 74.0273 70.7361 76.1345C69.1624 77.5878 66.836 77.8058 64.8517 77.6605C63.0043 76.8612 60.4042 76.6432 59.5832 74.3906C58.3516 71.3387 57.0515 68.2869 55.5462 65.3076C55.341 64.581 55.1357 63.8544 55.0673 63.1277C55.5234 63.1277 55.8427 63.3457 56.0252 63.7817C57.3252 66.3976 58.5568 69.0135 59.5832 71.7747C60.199 73.3733 61.0201 75.2626 62.799 75.5532C64.0991 75.7712 65.1938 77.0792 66.5623 76.6432C67.7255 76.4252 68.8887 76.2072 69.7782 75.4079C72.994 72.7193 76.2099 69.9581 80.0416 68.2869C81.9574 67.4633 83.8276 66.4945 85.6522 65.3803C87.7733 63.9997 89.9629 62.9097 92.2893 61.9651C96.3946 60.2938 100.568 58.7679 104.947 58.1139Z" fill="black"/>
<path d="M129.58 58.7679C131.222 58.7679 132.659 59.5672 134.096 60.0759C138.133 61.3838 141.964 63.2004 146.001 64.5084C149.149 65.5257 152.022 67.1969 155.033 68.5049C156.607 69.1589 158.112 70.0308 159.686 70.6848C163.449 72.1381 167.281 73.7367 170.565 76.1346C171.249 76.7159 172.207 77.1519 172.481 78.1692C171.728 78.1692 171.181 77.5879 170.633 77.2246C167.897 75.2626 164.886 73.8094 161.807 72.5014C158.181 71.1935 154.759 69.4495 151.201 67.9236C147.575 66.107 143.606 65.1624 139.912 63.5638C136.833 62.1832 133.548 61.2385 130.469 59.8579C129.99 59.7126 129.648 59.2766 129.58 58.7679Z" fill="black"/>
<path d="M149.217 62.7644C149.286 61.8924 150.038 62.4737 150.517 62.619C150.928 62.7644 151.407 62.9824 151.886 63.2003C153.528 63.7817 155.17 64.2903 156.744 65.0169C158.044 65.5983 159.344 66.1796 160.575 66.8335C164.202 68.6501 167.76 70.3941 171.249 72.5013C173.37 73.8093 175.697 74.8266 177.681 76.3525C179.46 77.6605 181.376 78.6777 183.223 79.8404C184.934 80.9303 186.713 82.0203 188.492 83.1829C189.792 84.0549 191.16 84.9995 192.392 86.0168C192.392 86.2348 192.529 86.5254 192.529 86.6708C191.229 86.0168 190.066 84.9995 188.834 84.2002C186.165 82.5289 183.497 80.8577 180.828 79.2591C178.297 77.9511 176.176 75.9892 173.576 74.8266C169.197 72.2591 164.749 69.8612 160.233 67.6328C157.291 66.0342 154.28 64.8716 151.201 63.709C150.517 63.4183 149.833 63.1277 149.217 62.7644Z" fill="black"/>
<path d="M57.9411 62.6919C58.4885 63.2005 58.6938 63.9272 59.0359 64.5812C60.4728 66.3251 61.8412 68.1417 63.4834 69.595C62.3202 69.7403 61.6359 68.6503 60.8833 67.9237C59.9254 66.6158 58.6938 65.5985 57.8727 64.2178C57.9183 63.685 57.9411 63.1763 57.9411 62.6919Z" fill="black"/>
<path d="M134.301 70.612C134.438 70.5394 134.711 70.4667 134.848 70.4667C135.669 72.138 137.996 73.1553 139.501 71.8473C139.501 72.0653 139.501 72.5013 139.501 72.7193C139.296 72.8646 138.954 73.1553 138.817 73.3006C136.969 73.4459 134.78 72.7193 134.301 70.612Z" fill="black"/>
<path fill-rule="evenodd" clip-rule="evenodd" d="M90.0998 71.1208C91.5367 70.3941 93.2472 70.5395 94.6841 71.2661C95.8473 71.9928 96.9421 72.9374 97.6263 74.1727C97.6263 74.6571 97.6491 75.1415 97.6947 75.6259C96.2579 77.0066 94.2052 76.3526 92.563 75.7713C91.5367 75.1173 90.3735 74.4633 89.484 73.446C89.0735 72.9374 89.2787 72.2107 89.2787 71.6294C89.484 71.4841 89.8945 71.2661 90.0998 71.1208ZM90.3735 71.7747C89.6893 71.9201 89.8261 72.5741 90.0314 73.0827C91.1261 74.1 92.3577 74.8266 93.6578 75.4079C94.7525 75.6986 95.8473 75.9166 96.9421 75.4079C96.9421 75.1899 96.9421 74.6813 97.0105 74.4633C95.7105 72.2107 92.7683 70.5395 90.3735 71.7747Z" fill="black"/>
<path d="M113.227 70.83C113.774 71.3387 114.321 71.92 114.869 72.5013C115.074 72.5013 115.553 72.574 115.758 72.574C115.69 72.792 115.553 73.1553 115.485 73.3733C114.253 73.2279 112.885 72.2833 113.227 70.83Z" fill="black"/>
<path d="M116.237 72.5015C116.922 72.7195 117.537 73.0828 118.222 73.3008C118.769 73.2282 119.18 72.7922 119.59 72.5742C119.659 72.7922 119.727 73.1555 119.727 73.3008C118.632 74.2455 117.195 73.9548 116.101 73.0829C116.169 72.9375 116.169 72.6469 116.237 72.5015Z" fill="black"/>
<path fill-rule="evenodd" clip-rule="evenodd" d="M148.807 74.536C149.696 73.228 151.407 73.0827 152.57 73.882C154.007 74.3906 155.717 74.3906 156.744 75.6259C157.359 76.4979 156.333 77.2245 155.786 77.6605C153.938 78.3871 151.954 77.9511 150.312 77.0065C149.422 76.4979 148.807 75.6259 148.807 74.536ZM149.696 74.3179C149.628 74.5359 149.628 75.1172 149.559 75.3352C150.859 76.8612 152.912 77.5878 154.759 77.2245C155.307 76.9338 156.401 76.7885 156.265 75.9892C154.349 74.6086 151.886 74.6813 149.696 74.3179Z" fill="black"/>
<path d="M207.513 72.8648C208.334 73.8095 208.129 75.1174 208.403 76.28C208.813 78.8959 209.566 81.3665 210.387 83.8371C210.524 84.2731 210.684 84.7575 210.866 85.2904C211.14 86.017 211.436 86.7679 211.756 87.543C212.166 88.4876 212.577 89.5049 212.987 90.4495C213.398 91.4668 213.808 92.4841 214.219 93.5014C214.538 94.3733 214.88 95.2211 215.245 96.0446C215.61 96.9166 215.952 97.7886 216.272 98.6605C216.819 99.9685 217.412 101.252 218.05 102.512C217.914 102.512 217.572 102.439 217.366 102.439C216.477 101.131 216.066 99.6051 215.45 98.2245C215.085 97.3526 214.721 96.4806 214.356 95.6086C213.991 94.7851 213.649 93.9374 213.329 93.0654C212.919 92.0481 212.508 91.0793 212.098 90.1589C211.345 88.4149 210.661 86.671 210.045 84.927C208.745 81.0032 207.445 77.0067 207.513 72.8648Z" fill="black"/>
<path d="M212.303 75.9892C213.192 76.7159 213.261 77.9511 213.671 78.9684C215.108 83.3283 216.545 87.6881 217.708 92.1206C218.187 94.0825 218.803 95.9718 219.419 97.8611C219.761 98.733 220.103 99.605 220.445 100.477C220.787 101.131 221.061 101.858 221.198 102.584C220.993 102.439 220.65 102.148 220.445 102.076C220.172 101.397 219.898 100.719 219.624 100.041C218.461 97.3524 217.64 94.5912 216.887 91.7573C215.724 87.2521 214.15 82.8196 212.782 78.3145C212.577 77.5878 212.371 76.7885 212.303 75.9892Z" fill="black"/>
<path d="M71.3519 77.9512C71.2151 77.1519 72.3098 77.0066 72.4466 77.7332C72.5151 78.9685 72.8572 80.2765 73.7467 81.2938C74.5678 82.0204 75.5941 82.6017 76.552 83.183C78.4679 84.1277 79.7679 85.9442 81.7522 86.7435C81.7522 86.8889 81.6153 87.1795 81.5469 87.3249C80.3837 86.9615 79.3573 86.3076 78.4678 85.4356C77.0994 84.055 75.3204 83.401 73.6783 82.4564C72.1045 81.6571 71.4887 79.6951 71.3519 77.9512Z" fill="black"/>
<path d="M88.2525 79.6952C89.2104 80.3491 88.7315 81.8751 89.621 82.5291C90.2368 82.6017 90.7842 82.5291 91.3315 82.5291C91.8789 84.3457 93.2474 85.7989 95.0264 86.5256C96.1211 86.9616 97.3528 87.1069 98.5159 87.3975C97.0106 88.2695 95.1632 87.3975 93.7948 86.6709C92.4263 85.9443 91.3999 84.709 90.921 83.183C90.6473 83.2557 90.1683 83.401 89.8946 83.5464C89.6894 83.401 89.2104 83.2557 89.0052 83.1104C88.3209 82.1657 88.0473 80.9304 88.2525 79.6952Z" fill="black"/>
<path d="M177.065 80.349C177.27 80.349 177.749 80.2763 178.023 80.2763C178.479 80.567 178.958 80.8576 179.46 81.1483C182.379 82.9407 185.253 84.8542 188.081 86.8888C193.213 90.7399 199.029 93.5738 204.161 97.5704C208.266 100.477 211.687 104.255 215.998 106.871C216.363 107.065 216.728 107.235 217.092 107.38C218.598 108.252 220.035 109.269 221.54 110.214C221.745 110.287 222.156 110.504 222.293 110.577C223.729 110.94 225.303 111.376 226.672 110.577C228.793 109.342 230.845 107.961 233.103 107.089C234.609 106.29 235.156 104.546 235.84 103.02C236.456 101.567 236.661 99.8229 236.388 98.2243C235.635 96.4804 233.856 95.8264 232.419 94.8091C231.256 94.1551 230.161 93.3558 229.135 92.4112C226.535 90.2313 223.593 88.342 221.677 85.3628C222.566 85.5081 223.182 86.3801 223.866 86.8888C225.851 88.778 228.177 90.3039 230.093 92.1932C232.214 94.0825 235.225 94.8091 236.867 97.2797C237.961 99.0963 237.414 101.349 236.73 103.238C236.114 104.619 235.498 106.072 234.54 107.235C233.377 108.179 231.94 108.543 230.64 109.342C229.34 110.214 228.04 110.868 226.672 111.74C225.098 111.958 223.456 111.885 221.95 111.304C219.693 109.996 217.64 108.397 215.313 107.235C210.25 103.819 205.597 99.7502 200.534 96.2624C197.045 93.7918 193.487 91.6846 189.997 89.2867C186.097 86.4528 182.128 83.6915 178.023 81.1483C177.658 80.8576 177.339 80.5912 177.065 80.349Z" fill="black"/>
<path fill-rule="evenodd" clip-rule="evenodd" d="M123.216 82.8923C125.885 82.1657 128.759 82.6743 131.496 82.529C131.701 82.6017 132.043 82.8923 132.18 83.0376C132.18 83.4252 132.18 83.8127 132.18 84.2002C130.606 86.0895 128.075 86.0168 125.953 85.6535C124.859 85.4355 123.695 85.3629 122.806 84.6362C122.259 83.9823 122.806 83.401 123.216 82.8923ZM123.216 83.7643C123.49 84.2002 123.901 84.4182 124.311 84.7089C125.611 84.9269 126.98 85.2175 128.348 85.1449C129.58 85.2175 131.222 84.7089 131.632 83.2556C130.401 83.1103 129.238 83.183 128.006 83.183C126.364 83.2556 124.722 83.0376 123.216 83.7643Z" fill="black"/>
<path d="M148.122 82.8196C149.012 83.4736 149.901 84.1275 150.928 84.2729C151.68 84.4908 152.159 83.8369 152.775 83.5462C152.775 83.8369 152.707 84.3455 152.707 84.5635C151.475 85.5808 149.833 84.9995 148.67 84.2002C148.259 83.9095 148.259 83.2556 148.122 82.8196Z" fill="black"/>
<path d="M169.265 84.0551C169.607 83.6917 169.949 83.1104 170.497 83.2558C170.633 83.9098 170.086 84.2731 169.812 84.7817C168.649 84.8544 167.418 84.7817 166.87 83.5464C167.691 83.6191 168.444 83.8371 169.265 84.0551Z" fill="black"/>
<path d="M81.8207 87.3975C82.0944 87.3249 82.5733 87.3249 82.847 87.3249C84.7629 88.2695 86.1997 90.0134 87.3629 91.83C86.8155 91.7574 86.3366 91.6847 85.9945 91.2487C84.626 89.9408 83.3944 88.4148 81.8207 87.3975Z" fill="black"/>
<path d="M87.9102 91.7573C88.7313 91.7573 89.7576 91.6846 90.2366 92.6293C91.1261 94.2279 92.4261 95.6085 94.1367 96.1898C95.2999 96.3351 96.5315 96.0445 97.6262 96.4805C98.0824 96.5289 98.3789 96.7954 98.5158 97.2798C96.8052 97.2071 95.0946 97.5704 93.4524 97.2798C91.4682 96.6258 89.9629 94.9545 89.2102 92.9199C88.7541 92.7262 88.3208 92.5566 87.9102 92.4113C87.9102 92.1933 87.9102 91.9026 87.9102 91.7573Z" fill="black"/>
<path d="M119.248 93.4286C120.343 94.3732 120.959 95.9718 122.464 96.4078C122.532 97.2071 121.643 97.0618 121.164 96.8438C120.206 96.0445 119.043 94.9545 119.248 93.4286Z" fill="black"/>
<path d="M201.766 93.5013C205.529 95.8992 208.745 99.0238 212.508 101.276C213.466 101.858 214.424 102.439 215.382 102.948C216.545 103.82 218.393 104.328 218.735 106C217.298 105.128 216.135 103.965 214.629 103.384C210.387 101.131 206.829 97.9338 202.929 95.0999C202.382 94.7366 201.834 94.228 201.766 93.5013Z" fill="black"/>
<path d="M146.822 93.9374C146.959 94.01 147.301 94.3006 147.438 94.446C147.507 95.5359 148.122 96.4806 149.012 97.0619C149.901 96.9166 150.722 96.4806 151.612 96.4806C151.886 97.5706 151.954 98.8058 152.912 99.5324C153.459 99.7504 154.075 99.5325 154.623 99.6051C154.486 100.622 153.254 100.55 152.57 100.259C151.544 99.5324 151.338 98.2972 150.996 97.2072C150.449 97.4979 149.901 97.8612 149.217 97.7158C148.054 97.7885 147.37 96.6259 146.822 95.6813C146.822 95.1 146.822 94.5187 146.822 93.9374Z" fill="black"/>
<path d="M99.6106 97.4977C100.226 97.3524 100.842 96.989 101.458 96.989C103.442 97.4977 104.4 99.6049 106.179 100.55C107.684 101.567 109.6 100.55 111.037 101.567C110.421 102.584 109.395 101.494 108.506 101.93C107.342 102.294 106.179 101.785 105.153 101.204C103.853 100.332 103.032 98.951 101.663 98.2243C100.979 97.9337 99.8159 98.4423 99.6106 97.4977Z" fill="black"/>
<path d="M177.886 98.6605C178.57 100.259 180.076 101.276 181.786 101.058C181.786 102.221 180.418 101.785 179.734 101.567C178.639 101.276 177.134 99.9685 177.886 98.6605Z" fill="black"/>
<path d="M181.649 100.695C182.334 102.148 184.66 101.204 184.523 99.6777C184.044 99.8957 183.565 100.259 183.155 100.622C182.744 100.622 182.06 100.695 181.649 100.695Z" fill="black"/>
<path fill-rule="evenodd" clip-rule="evenodd" d="M166.87 100.622C167.828 100.55 168.786 100.622 169.676 101.058C171.386 102.003 173.165 103.384 173.644 105.418C173.712 106.29 172.891 106.799 172.344 107.38C171.386 107.38 170.497 107.235 169.607 106.871C167.828 105.781 165.981 103.82 166.323 101.349C166.46 101.204 166.733 100.84 166.87 100.622ZM167.007 101.422C166.733 103.892 168.786 105.636 170.702 106.581C171.204 106.581 171.728 106.581 172.276 106.581C172.823 106.145 173.302 105.273 172.686 104.619C171.933 102.875 170.086 102.366 168.649 101.422C168.102 101.422 167.554 101.422 167.007 101.422Z" fill="black"/>
<path d="M226.877 106.218C229.066 104.474 231.666 102.948 233.24 100.477C234.061 100.55 233.377 101.349 233.24 101.64C231.461 103.892 229.135 105.418 226.877 106.944C225.577 106.872 223.593 107.453 223.045 105.927C224.277 106.363 225.577 106.29 226.877 106.218Z" fill="black"/>
<path d="M111.174 102.148C111.242 102.003 111.311 101.785 111.379 101.712C114.048 102.657 117.127 101.64 119.727 103.165C122.737 104.837 126.159 105.055 129.374 106.145C132.111 106.726 134.848 105.2 137.517 105.999C139.09 106.581 140.596 107.453 142.306 107.671C145.249 108.034 147.985 109.633 150.928 110.214C151.954 109.923 152.843 109.197 153.801 108.688C153.938 109.996 152.638 110.577 151.68 111.013C149.764 111.304 148.054 109.996 146.206 109.415C144.291 108.543 142.238 108.906 140.254 108.325C138.611 107.816 137.106 106.726 135.327 106.653C133.959 106.871 132.522 107.089 131.153 107.307C129.374 107.162 127.664 106.363 125.953 105.927C123.969 105.418 122.053 105.127 120.069 104.619C118.632 104.183 117.332 103.311 115.827 103.238C114.321 102.948 112.884 103.02 111.448 102.512C111.379 102.439 111.242 102.221 111.174 102.148Z" fill="black"/>
<path d="M156.88 109.851C157.086 109.851 157.565 109.923 157.838 109.996C158.659 110.868 159.549 111.813 160.575 112.539C161.875 112.685 163.038 112.031 164.202 111.74C164.954 111.813 165.502 112.467 166.118 112.903C166.711 112.854 167.303 112.854 167.896 112.903C167.281 114.429 165.296 113.339 164.407 112.612C163.381 112.975 162.286 113.339 161.191 113.484C159.48 113.121 158.112 111.813 156.88 110.65C156.88 110.432 156.88 109.996 156.88 109.851Z" fill="black"/>
<path d="M197.934 112.83C198.687 112.467 199.166 111.74 199.576 110.941C199.667 111.377 199.781 111.837 199.918 112.321C198.208 114.647 194.923 114.792 192.597 113.557C191.502 112.83 190.408 113.993 189.313 114.211C187.534 114.501 185.686 114.647 183.907 114.283C183.839 114.138 183.702 113.847 183.702 113.702C185.344 113.484 187.055 113.339 188.697 112.975C189.86 112.757 190.955 111.885 192.187 112.176C193.213 112.539 194.171 113.193 195.266 113.193C196.155 113.266 197.045 113.048 197.934 112.83Z" fill="black"/>
<path d="M168.786 112.539C169.288 112.394 169.812 112.394 170.36 112.539C170.976 112.902 171.591 113.266 172.276 113.556C173.302 113.847 174.26 113.12 175.286 113.411C176.655 113.629 177.955 113.992 179.392 114.065C179.323 114.21 179.186 114.501 179.186 114.719C177.886 114.864 176.586 114.719 175.355 114.501C174.26 114.21 173.097 115.082 172.002 114.574C170.907 114.065 169.744 113.411 168.786 112.539Z" fill="black"/>
<path fill-rule="evenodd" clip-rule="evenodd" d="M15.2453 128.017C11.7558 127.29 8.19775 126.491 4.70819 125.691C4.91346 124.674 4.91346 123.584 5.0503 122.494C5.46084 121.477 5.87139 120.387 6.62404 119.515C6.62404 119.37 6.69247 119.079 6.69247 118.934C9.22411 119.37 11.6873 120.096 14.219 120.605C70.7362 134.266 127.39 147.563 183.908 161.442C184.729 161.733 185.686 161.587 186.508 162.096C186.508 162.459 186.508 162.895 186.576 163.259C186.713 164.058 186.302 164.857 185.96 165.511C184.592 165.511 183.36 164.857 181.992 164.785C180.76 164.349 179.46 164.349 178.297 163.913C176.86 163.767 175.56 163.186 174.191 163.113C173.097 162.677 171.865 162.677 170.77 162.314C169.744 162.023 168.581 162.023 167.554 161.587C166.186 161.442 164.886 160.933 163.518 160.788C162.491 160.425 161.465 160.352 160.438 160.061C151.407 158.172 142.375 156.138 133.411 154.176C132.864 154.103 132.317 154.03 131.769 153.74C119.248 151.196 106.863 148.217 94.342 145.601C93.4526 145.238 92.4946 145.238 91.6051 144.947C66.2203 139.352 40.6986 133.684 15.2453 128.017ZM5.66613 124.965C6.76089 123.366 7.65038 121.477 7.58196 119.515C7.103 119.878 6.55561 120.314 6.41876 120.896C5.73453 122.131 5.32401 123.511 5.32401 124.892C5.39244 124.965 5.5977 124.965 5.66613 124.965ZM12.3716 126.781C12.3716 126.781 12.3944 126.757 12.44 126.709C13.2611 127.072 14.1505 127.072 15.04 127.363C18.3243 128.017 21.6086 128.816 24.8929 129.47C25.9193 129.906 27.0825 129.761 28.1088 130.197C31.3247 130.778 34.4721 131.65 37.688 132.304C38.8512 132.667 40.0144 132.594 41.1091 133.03C48.7041 134.629 56.2306 136.446 63.8255 137.899C70.6678 139.57 77.5785 140.951 84.4207 142.549C118.222 149.888 152.022 157.3 185.755 165.003C185.846 164.227 185.915 163.428 185.96 162.605C185.071 162.023 183.907 162.241 182.95 161.805C172.891 159.407 162.765 157.082 152.638 154.539V154.612C119.932 146.837 87.2261 138.916 54.5884 130.996C53.9042 130.705 53.0147 130.851 52.3989 130.415C43.2302 128.307 34.0616 125.982 24.9613 123.875C19.3507 122.567 13.74 121.041 8.12933 119.878C8.06091 121.84 7.30826 123.802 6.07665 125.328C8.19775 125.837 10.3189 126.2 12.3716 126.781Z" fill="black"/>
<path fill-rule="evenodd" clip-rule="evenodd" d="M207.24 157.082C207.103 157.373 206.761 157.736 206.35 157.591C172.344 147.2 138.406 136.518 104.4 125.837C80.2468 118.28 56.0936 110.577 31.9404 103.093C30.9824 102.802 29.9561 102.512 29.0666 102.003C29.7508 101.64 29.4771 100.768 29.6824 100.114C29.7508 98.8058 30.5035 97.6431 31.2561 96.6258C31.5298 96.4078 31.7351 96.0445 31.8035 95.6812C34.6088 96.3352 37.2089 97.4252 39.9458 98.2971C94.8893 116.681 149.97 134.774 204.913 153.304C205.803 153.74 206.829 153.812 207.65 154.321C207.513 155.193 207.787 156.283 207.24 157.082ZM206.624 157.155C206.806 156.38 206.943 155.58 207.034 154.757C203.75 153.449 200.329 152.504 196.976 151.342C153.733 137.1 110.558 122.494 67.3834 108.107C55.9567 104.328 44.5986 100.404 33.1035 96.6985C32.9667 98.2971 32.2825 99.6777 31.5298 100.986C31.2561 101.325 30.9596 101.64 30.6403 101.93C80.9311 117.698 131.222 133.248 181.513 149.089C189.86 151.85 198.276 154.394 206.624 157.155ZM31.0508 100.55C31.8035 99.2418 32.5562 97.8611 32.6246 96.3352C32.0772 96.6259 31.5982 97.0618 31.3246 97.6431C30.5035 98.8058 30.0245 100.259 29.9561 101.712C30.3666 101.422 30.7772 101.058 31.0508 100.55Z" fill="black"/>
</svg>
