<svg width="498" height="314" viewBox="0 0 498 314" fill="none" xmlns="http://www.w3.org/2000/svg">
<path d="M128.823 178.506C128.823 207.501 105.313 231.012 76.3173 231.012H68.7217C39.726 231.012 16.2159 207.501 16.2159 178.506C16.2159 149.51 39.726 126 68.7217 126H76.3173C105.313 126 128.823 149.51 128.823 178.506Z" fill="#333F72"/>
<path d="M141 313.056H0L1.98931 303.049C6.81189 279.418 23.1483 260.61 44.4882 252.05C52.5661 248.795 61.3673 247.047 70.4699 247.047H70.5301C79.4519 247.047 88.0723 248.735 96.0295 251.869C117.611 260.369 134.188 279.237 139.011 303.049L141 313.056Z" fill="#E56E0C"/>
<path d="M42.0167 212.565C36.8927 217.086 29.056 216.604 24.5348 211.48C20.0137 206.356 20.4959 198.52 25.6199 193.998C30.7439 189.477 38.5203 189.959 43.1017 195.083" fill="#F3EDE1"/>
<path d="M42.0167 212.565C36.8927 217.086 29.056 216.604 24.5348 211.48C20.0137 206.356 20.4959 198.52 25.6199 193.998C30.7439 189.477 38.5203 189.959 43.1017 195.083" stroke="#333F72" stroke-width="0.904233"/>
<path d="M70.289 277.911C56.4241 277.911 45.2116 266.638 45.2116 252.834C45.2116 252.673 45.2116 252.512 45.2116 252.352C53.2291 249.096 61.7892 247.529 70.4698 247.529C79.0902 247.529 87.4091 249.096 95.3664 252.171C95.3664 252.372 95.3664 252.593 95.3664 252.834C95.3664 266.638 84.0936 277.911 70.289 277.911Z" fill="#F3EDE1"/>
<path fill-rule="evenodd" clip-rule="evenodd" d="M95.7883 251.869C95.7883 252.151 95.7883 252.472 95.7883 252.834C95.7883 266.94 84.395 278.333 70.2889 278.333C56.1829 278.333 44.7293 266.94 44.7293 252.834C44.7293 252.553 44.7494 252.271 44.7896 251.99C52.7468 248.795 61.4275 247.047 70.4698 247.047H70.5301C79.3916 247.047 87.8913 248.735 95.7883 251.869ZM70.4698 247.951C61.9097 247.951 53.5908 249.518 45.6335 252.653C45.6335 252.693 45.6335 252.753 45.6335 252.834C45.6335 266.397 56.6652 277.429 70.2889 277.429C83.8524 277.429 94.8841 266.397 94.8841 252.834C94.8841 252.713 94.8841 252.593 94.8841 252.472C87.1077 249.458 78.9093 247.951 70.5301 247.951H70.4698Z" fill="#333F72"/>
<path d="M58.4135 256.21V225.526H82.5866V256.21" fill="#F3EDE1"/>
<path d="M58.4135 256.21V225.526H82.5866V256.21" stroke="#333F72" stroke-width="0.904233"/>
<path d="M82.1043 228.661V239.21C77.5228 241.682 72.3386 243.068 66.7926 243.068C64.0598 243.068 61.4275 242.747 58.8956 242.104V228.661H82.1043Z" fill="#F3CFBF"/>
<path d="M100.068 186.041V200.931C100.068 210.214 96.3309 218.533 90.2424 224.622C84.2142 230.65 75.835 234.448 66.6118 234.448C52.8675 234.448 41.1125 226.189 35.9282 214.374C34.1197 210.275 33.1552 205.693 33.1552 200.931V186.041C33.1552 167.534 48.1052 152.584 66.6118 152.584C85.0582 152.584 100.068 167.534 100.068 186.041Z" fill="#F3EDE1" stroke="#333F72" stroke-width="0.904233"/>
<path d="M99.7067 178.325V194.782H95.0047V178.325H99.7067Z" fill="#333F72"/>
<path d="M95.4266 195.083C99.9478 189.959 107.724 189.477 112.848 193.998C117.972 198.52 118.454 206.356 113.933 211.48C109.412 216.604 101.575 217.086 96.4514 212.565" fill="#F3EDE1"/>
<path d="M95.4266 195.083C99.9478 189.959 107.724 189.477 112.848 193.998C117.972 198.52 118.454 206.356 113.933 211.48C109.412 216.604 101.575 217.086 96.4514 212.565" stroke="#333F72" stroke-width="0.904233"/>
<path d="M102.419 206.115L108.749 199.966" stroke="#333F72" stroke-width="0.904233"/>
<path d="M90.6644 204.728C90.6644 209.189 87.0474 212.806 82.5865 212.806C78.1257 212.806 74.5087 209.189 74.5087 204.728C74.5087 200.268 78.1257 196.651 82.5865 196.651C87.0474 196.651 90.6644 200.268 90.6644 204.728Z" fill="#F3CFBF"/>
<path d="M52.3852 204.728C52.3852 209.189 48.7682 212.806 44.3074 212.806C39.8465 212.806 36.2296 209.189 36.2296 204.728C36.2296 200.268 39.8465 196.651 44.3074 196.651C48.7682 196.651 52.3852 200.268 52.3852 204.728Z" fill="#F3CFBF"/>
<path d="M80.4767 196.651C80.4767 198.338 79.1505 199.665 77.5228 199.665C75.8349 199.665 74.5087 198.338 74.5087 196.651C74.5087 195.023 75.8349 193.636 77.5228 193.636C79.1505 193.636 80.4767 195.023 80.4767 196.651Z" fill="#333F72"/>
<path d="M51.481 196.651C51.481 198.338 50.1548 199.665 48.5272 199.665C46.8393 199.665 45.5131 198.338 45.5131 196.651C45.5131 195.023 46.8393 193.636 48.5272 193.636C50.1548 193.636 51.481 195.023 51.481 196.651Z" fill="#333F72"/>
<path d="M64.3814 210.335H56.7255L66.6118 152.765" fill="#F3EDE1"/>
<path d="M64.3814 210.335H56.7255L66.6118 152.765" stroke="#333F72" stroke-width="0.904233"/>
<path d="M58.4135 217.026C63.658 222.331 68.6011 217.026 68.6011 217.026" stroke="#333F72" stroke-width="0.904233"/>
<path d="M58.8956 147.882C58.8956 162.29 71.1932 183.449 108.086 183.449C108.086 183.449 107.001 147.882 58.8956 147.882Z" fill="#333F72"/>
<path d="M25.8007 288.159C23.2086 303.471 27.6092 313.056 40.389 313.056" stroke="#F3EDE1" stroke-width="1.20564"/>
<path d="M113.21 288.159C115.742 303.471 111.401 313.056 98.5613 313.056" stroke="#F3EDE1" stroke-width="1.20564"/>
<path d="M41.233 185.921C41.233 185.921 42.8004 182.123 46.8393 181.219C49.4917 180.555 52.3852 181.882 52.3852 185.921H41.233Z" fill="#333F72"/>
<path d="M73.8456 185.921C73.8456 181.882 76.7392 180.555 79.4519 181.219C83.4305 182.123 85.0581 185.921 85.0581 185.921H73.8456Z" fill="#333F72"/>
<path d="M46.2364 162.29L39.0026 151.379" stroke="#F3EDE1" stroke-width="1.20564"/>
<path d="M44.3074 165.665L34.3608 157.286" stroke="#F3EDE1" stroke-width="1.20564"/>
<path d="M39.7259 168.499L29.8999 162.712" stroke="#F3EDE1" stroke-width="1.20564"/>
<mask id="path-30-inside-1_6_5942" fill="white">
<path fill-rule="evenodd" clip-rule="evenodd" d="M228.654 144.434C237.79 152.323 252.989 156.117 267.704 155.997C275.04 155.938 282.197 154.905 288.345 152.957C294.504 151.005 299.576 148.159 302.827 144.524C303.03 144.298 303.324 144.176 303.628 144.193C303.931 144.21 304.211 144.364 304.387 144.611C306.281 147.272 310.038 149.593 314.976 151.305C319.882 153.006 325.816 154.059 331.887 154.281C337.959 154.504 344.125 153.896 349.5 152.308C354.884 150.717 359.397 148.167 362.273 144.567C362.513 144.267 362.904 144.13 363.278 144.217C376.304 147.215 395.648 149.719 411.392 147.544C419.27 146.455 426.128 144.211 430.855 140.382C435.524 136.599 438.19 131.213 437.628 123.579C437.605 123.267 437.729 122.963 437.963 122.756C438.196 122.55 438.513 122.464 438.82 122.524C457.723 126.269 471.643 119.918 480.863 110.837C490.139 101.7 494.616 89.8438 494.616 82.7261C494.616 82.6404 494.628 82.5551 494.649 82.4722C495.862 77.8512 494.747 69.6716 489.779 62.3453C484.851 55.0792 476.144 48.6819 462.212 47.5816C461.822 47.5508 461.486 47.2956 461.352 46.9283C456.125 32.645 444.446 24.7426 432.065 20.4454C419.675 16.1452 406.701 15.5028 399.156 15.6753C398.974 15.6795 398.793 15.6337 398.635 15.5428C383.875 7.0654 372.079 3.51986 359.96 3.05399C347.802 2.5866 335.249 5.21323 318.925 9.22139C318.742 9.26638 318.549 9.25861 318.37 9.19899C305.929 5.05495 295.271 2.35711 284.65 2.0329C274.049 1.70932 263.429 3.74962 251.076 9.16607C250.87 9.25625 250.64 9.27457 250.423 9.21808C231.763 4.36847 219.054 2.14022 207.686 2.7157C196.347 3.28972 186.26 6.65833 172.856 13.1657C172.715 13.234 172.561 13.2684 172.404 13.266C158.092 13.0437 147.831 14.4281 141.172 17.9556C137.869 19.705 135.469 21.9733 133.884 24.8334C132.295 27.7013 131.49 31.2318 131.49 35.558C131.49 36.0315 131.158 36.44 130.694 36.5369C116.531 39.4981 108 44.3543 104.012 49.9351C100.099 55.4118 100.42 61.8041 104.522 68.3592C104.741 68.7089 104.722 69.1571 104.475 69.4877C99.0027 76.8231 95.7194 82.2536 96.0188 87.6915C96.3154 93.0767 100.17 98.8283 110.142 106.655C110.44 106.889 110.58 107.27 110.505 107.641C109.719 111.51 109.984 114.659 111.074 117.215C112.161 119.766 114.112 121.825 116.876 123.446C122.453 126.718 131.207 128.128 142.191 128.128C142.743 128.128 143.191 128.575 143.191 129.128C143.191 131.339 143.943 133.074 145.29 134.443C146.661 135.836 148.701 136.901 151.34 137.628C156.63 139.086 164.03 139.104 172.288 138.006C172.573 137.968 172.862 138.055 173.078 138.245C173.295 138.434 173.42 138.709 173.42 138.997C173.42 139.259 173.609 139.784 174.33 140.545C175.02 141.274 176.076 142.089 177.485 142.921C180.298 144.582 184.394 146.237 189.427 147.384C199.484 149.677 213.173 149.92 227.636 144.26C227.982 144.125 228.374 144.192 228.654 144.434ZM288.949 154.864C294.84 152.997 299.944 150.286 303.506 146.717C305.878 149.434 309.753 151.611 314.321 153.195C319.441 154.97 325.574 156.051 331.814 156.28C338.053 156.509 344.442 155.888 350.067 154.226C355.453 152.634 360.212 150.066 363.432 146.303C376.564 149.267 395.826 151.713 411.666 149.525C419.703 148.414 426.979 146.096 432.114 141.936C437.032 137.951 439.916 132.332 439.69 124.722C458.669 128.086 472.828 121.558 482.266 112.261C491.804 102.867 496.564 90.6028 496.616 82.8542C497.95 77.5569 496.619 68.8677 491.434 61.2228C486.245 53.5707 477.182 46.9336 463.006 45.6419C457.395 30.9746 445.261 22.9086 432.72 18.5559C420.171 14.2003 407.098 13.5166 399.389 13.6699C384.53 5.17054 372.483 1.53393 360.037 1.05547C347.635 0.578694 334.905 3.24367 318.728 7.2103C306.342 3.09725 295.545 0.364522 284.711 0.0338336C273.87 -0.297084 263.047 1.77825 250.591 7.19545C232.081 2.39751 219.207 0.129933 207.585 0.718267C195.927 1.30845 185.609 4.76758 172.197 11.2626C157.96 11.0584 147.334 12.4282 140.235 16.1883C136.639 18.0932 133.933 20.6192 132.135 23.8642C130.448 26.9081 129.595 30.5252 129.499 34.7467C115.611 37.7616 106.728 42.6943 102.385 48.7724C98.011 54.8945 98.3849 61.96 102.469 68.8343C97.2803 75.8367 93.6853 81.6897 94.0219 87.8015C94.3644 94.0217 98.7358 100.158 108.428 107.851C107.727 111.755 108.011 115.131 109.234 117.999C110.521 121.02 112.808 123.379 115.864 125.171C121.749 128.623 130.603 130.045 141.235 130.124C141.44 132.403 142.356 134.312 143.865 135.846C144.131 136.116 144.415 136.374 144.714 136.619C143.737 138.855 140.252 143.862 133.244 151.315C132.533 152.071 131.785 152.853 131 153.66C131.401 153.32 132.071 152.996 133.019 152.537C133.275 152.413 133.551 152.279 133.848 152.132C137.015 150.568 142.51 147.548 150.537 139.48C150.627 139.506 150.718 139.531 150.809 139.556C156.275 141.062 163.637 141.099 171.644 140.105C171.899 140.748 172.348 141.361 172.878 141.921C173.737 142.828 174.96 143.753 176.469 144.643C179.491 146.428 183.788 148.15 188.982 149.334C199.248 151.674 213.128 151.941 227.807 146.338C237.493 154.401 252.994 158.117 267.72 157.997C275.222 157.936 282.582 156.881 288.949 154.864ZM145.534 137.232C146.672 138.009 147.995 138.64 149.461 139.142C144.068 144.511 139.872 147.537 136.809 149.382C136.495 149.571 136.192 149.748 135.9 149.915C138.914 146.597 141.169 143.825 142.768 141.634C143.9 140.082 144.715 138.806 145.238 137.822C145.348 137.616 145.447 137.419 145.534 137.232Z"/>
</mask>
<path fill-rule="evenodd" clip-rule="evenodd" d="M228.654 144.434C237.79 152.323 252.989 156.117 267.704 155.997C275.04 155.938 282.197 154.905 288.345 152.957C294.504 151.005 299.576 148.159 302.827 144.524C303.03 144.298 303.324 144.176 303.628 144.193C303.931 144.21 304.211 144.364 304.387 144.611C306.281 147.272 310.038 149.593 314.976 151.305C319.882 153.006 325.816 154.059 331.887 154.281C337.959 154.504 344.125 153.896 349.5 152.308C354.884 150.717 359.397 148.167 362.273 144.567C362.513 144.267 362.904 144.13 363.278 144.217C376.304 147.215 395.648 149.719 411.392 147.544C419.27 146.455 426.128 144.211 430.855 140.382C435.524 136.599 438.19 131.213 437.628 123.579C437.605 123.267 437.729 122.963 437.963 122.756C438.196 122.55 438.513 122.464 438.82 122.524C457.723 126.269 471.643 119.918 480.863 110.837C490.139 101.7 494.616 89.8438 494.616 82.7261C494.616 82.6404 494.628 82.5551 494.649 82.4722C495.862 77.8512 494.747 69.6716 489.779 62.3453C484.851 55.0792 476.144 48.6819 462.212 47.5816C461.822 47.5508 461.486 47.2956 461.352 46.9283C456.125 32.645 444.446 24.7426 432.065 20.4454C419.675 16.1452 406.701 15.5028 399.156 15.6753C398.974 15.6795 398.793 15.6337 398.635 15.5428C383.875 7.0654 372.079 3.51986 359.96 3.05399C347.802 2.5866 335.249 5.21323 318.925 9.22139C318.742 9.26638 318.549 9.25861 318.37 9.19899C305.929 5.05495 295.271 2.35711 284.65 2.0329C274.049 1.70932 263.429 3.74962 251.076 9.16607C250.87 9.25625 250.64 9.27457 250.423 9.21808C231.763 4.36847 219.054 2.14022 207.686 2.7157C196.347 3.28972 186.26 6.65833 172.856 13.1657C172.715 13.234 172.561 13.2684 172.404 13.266C158.092 13.0437 147.831 14.4281 141.172 17.9556C137.869 19.705 135.469 21.9733 133.884 24.8334C132.295 27.7013 131.49 31.2318 131.49 35.558C131.49 36.0315 131.158 36.44 130.694 36.5369C116.531 39.4981 108 44.3543 104.012 49.9351C100.099 55.4118 100.42 61.8041 104.522 68.3592C104.741 68.7089 104.722 69.1571 104.475 69.4877C99.0027 76.8231 95.7194 82.2536 96.0188 87.6915C96.3154 93.0767 100.17 98.8283 110.142 106.655C110.44 106.889 110.58 107.27 110.505 107.641C109.719 111.51 109.984 114.659 111.074 117.215C112.161 119.766 114.112 121.825 116.876 123.446C122.453 126.718 131.207 128.128 142.191 128.128C142.743 128.128 143.191 128.575 143.191 129.128C143.191 131.339 143.943 133.074 145.29 134.443C146.661 135.836 148.701 136.901 151.34 137.628C156.63 139.086 164.03 139.104 172.288 138.006C172.573 137.968 172.862 138.055 173.078 138.245C173.295 138.434 173.42 138.709 173.42 138.997C173.42 139.259 173.609 139.784 174.33 140.545C175.02 141.274 176.076 142.089 177.485 142.921C180.298 144.582 184.394 146.237 189.427 147.384C199.484 149.677 213.173 149.92 227.636 144.26C227.982 144.125 228.374 144.192 228.654 144.434ZM288.949 154.864C294.84 152.997 299.944 150.286 303.506 146.717C305.878 149.434 309.753 151.611 314.321 153.195C319.441 154.97 325.574 156.051 331.814 156.28C338.053 156.509 344.442 155.888 350.067 154.226C355.453 152.634 360.212 150.066 363.432 146.303C376.564 149.267 395.826 151.713 411.666 149.525C419.703 148.414 426.979 146.096 432.114 141.936C437.032 137.951 439.916 132.332 439.69 124.722C458.669 128.086 472.828 121.558 482.266 112.261C491.804 102.867 496.564 90.6028 496.616 82.8542C497.95 77.5569 496.619 68.8677 491.434 61.2228C486.245 53.5707 477.182 46.9336 463.006 45.6419C457.395 30.9746 445.261 22.9086 432.72 18.5559C420.171 14.2003 407.098 13.5166 399.389 13.6699C384.53 5.17054 372.483 1.53393 360.037 1.05547C347.635 0.578694 334.905 3.24367 318.728 7.2103C306.342 3.09725 295.545 0.364522 284.711 0.0338336C273.87 -0.297084 263.047 1.77825 250.591 7.19545C232.081 2.39751 219.207 0.129933 207.585 0.718267C195.927 1.30845 185.609 4.76758 172.197 11.2626C157.96 11.0584 147.334 12.4282 140.235 16.1883C136.639 18.0932 133.933 20.6192 132.135 23.8642C130.448 26.9081 129.595 30.5252 129.499 34.7467C115.611 37.7616 106.728 42.6943 102.385 48.7724C98.011 54.8945 98.3849 61.96 102.469 68.8343C97.2803 75.8367 93.6853 81.6897 94.0219 87.8015C94.3644 94.0217 98.7358 100.158 108.428 107.851C107.727 111.755 108.011 115.131 109.234 117.999C110.521 121.02 112.808 123.379 115.864 125.171C121.749 128.623 130.603 130.045 141.235 130.124C141.44 132.403 142.356 134.312 143.865 135.846C144.131 136.116 144.415 136.374 144.714 136.619C143.737 138.855 140.252 143.862 133.244 151.315C132.533 152.071 131.785 152.853 131 153.66C131.401 153.32 132.071 152.996 133.019 152.537C133.275 152.413 133.551 152.279 133.848 152.132C137.015 150.568 142.51 147.548 150.537 139.48C150.627 139.506 150.718 139.531 150.809 139.556C156.275 141.062 163.637 141.099 171.644 140.105C171.899 140.748 172.348 141.361 172.878 141.921C173.737 142.828 174.96 143.753 176.469 144.643C179.491 146.428 183.788 148.15 188.982 149.334C199.248 151.674 213.128 151.941 227.807 146.338C237.493 154.401 252.994 158.117 267.72 157.997C275.222 157.936 282.582 156.881 288.949 154.864ZM145.534 137.232C146.672 138.009 147.995 138.64 149.461 139.142C144.068 144.511 139.872 147.537 136.809 149.382C136.495 149.571 136.192 149.748 135.9 149.915C138.914 146.597 141.169 143.825 142.768 141.634C143.9 140.082 144.715 138.806 145.238 137.822C145.348 137.616 145.447 137.419 145.534 137.232Z" fill="white"/>
<path d="M267.704 155.997L267.712 156.997L267.704 155.997ZM228.654 144.434L229.308 143.677L229.308 143.677L228.654 144.434ZM288.345 152.957L288.042 152.004L288.345 152.957ZM302.827 144.524L302.082 143.858L302.827 144.524ZM303.628 144.193L303.683 143.194H303.683L303.628 144.193ZM304.387 144.611L305.202 144.031H305.202L304.387 144.611ZM314.976 151.305L314.649 152.25L314.976 151.305ZM331.887 154.281L331.85 155.281H331.85L331.887 154.281ZM349.5 152.308L349.783 153.267L349.5 152.308ZM362.273 144.567L363.054 145.191L363.054 145.191L362.273 144.567ZM363.278 144.217L363.054 145.191H363.054L363.278 144.217ZM411.392 147.544L411.256 146.553H411.256L411.392 147.544ZM430.855 140.382L431.484 141.159L430.855 140.382ZM437.628 123.579L436.631 123.652V123.652L437.628 123.579ZM437.963 122.756L438.625 123.505L438.625 123.505L437.963 122.756ZM438.82 122.524L438.625 123.505L438.82 122.524ZM480.863 110.837L480.161 110.124L480.863 110.837ZM494.649 82.4722L495.616 82.7261V82.7261L494.649 82.4722ZM489.779 62.3453L490.606 61.784V61.784L489.779 62.3453ZM462.212 47.5816L462.134 48.5785L462.212 47.5816ZM461.352 46.9283L460.413 47.272V47.272L461.352 46.9283ZM432.065 20.4454L431.737 21.3901L432.065 20.4454ZM399.156 15.6753L399.179 16.6751H399.179L399.156 15.6753ZM398.635 15.5428L398.137 16.4099V16.4099L398.635 15.5428ZM359.96 3.05399L359.999 2.05473L359.96 3.05399ZM318.925 9.22139L319.163 10.1926L319.163 10.1925L318.925 9.22139ZM318.37 9.19899L318.054 10.1477L318.054 10.1478L318.37 9.19899ZM284.65 2.0329L284.68 1.03337H284.68L284.65 2.0329ZM251.076 9.16607L251.478 10.0819L251.478 10.0819L251.076 9.16607ZM250.423 9.21808L250.171 10.1859L250.171 10.1859L250.423 9.21808ZM207.686 2.7157L207.737 3.71442L207.686 2.7157ZM172.856 13.1657L173.293 14.0653L173.293 14.0653L172.856 13.1657ZM172.404 13.266L172.42 12.2661L172.42 12.2661L172.404 13.266ZM141.172 17.9556L140.704 17.0719L141.172 17.9556ZM133.884 24.8334L134.759 25.318L133.884 24.8334ZM130.694 36.5369L130.49 35.558H130.49L130.694 36.5369ZM104.012 49.9351L103.199 49.3537H103.199L104.012 49.9351ZM104.522 68.3592L103.674 68.8897L103.674 68.8897L104.522 68.3592ZM104.475 69.4877L105.277 70.0857H105.277L104.475 69.4877ZM96.0188 87.6915L95.0203 87.7465L96.0188 87.6915ZM110.142 106.655L110.759 105.869L110.759 105.869L110.142 106.655ZM110.505 107.641L109.525 107.442H109.525L110.505 107.641ZM111.074 117.215L111.993 116.823L111.074 117.215ZM116.876 123.446L116.37 124.309L116.876 123.446ZM145.29 134.443L144.578 135.144H144.578L145.29 134.443ZM151.34 137.628L151.075 138.592L151.075 138.592L151.34 137.628ZM172.288 138.006L172.156 137.014L172.156 137.014L172.288 138.006ZM173.078 138.245L173.737 137.492L173.737 137.492L173.078 138.245ZM174.33 140.545L173.604 141.233L173.604 141.233L174.33 140.545ZM177.485 142.921L177.994 142.06L177.485 142.921ZM189.427 147.384L189.649 146.409L189.427 147.384ZM227.636 144.26L227.272 143.329H227.272L227.636 144.26ZM303.506 146.717L304.259 146.059C304.077 145.85 303.816 145.726 303.539 145.717C303.262 145.708 302.993 145.814 302.798 146.01L303.506 146.717ZM288.949 154.864L288.647 153.91L288.949 154.864ZM314.321 153.195L313.994 154.14L314.321 153.195ZM331.814 156.28L331.777 157.279L331.814 156.28ZM350.067 154.226L350.35 155.185L350.067 154.226ZM363.432 146.303L363.652 145.327C363.291 145.246 362.913 145.371 362.672 145.653L363.432 146.303ZM411.666 149.525L411.529 148.534H411.529L411.666 149.525ZM432.114 141.936L432.743 142.713L432.114 141.936ZM439.69 124.722L439.864 123.738C439.568 123.685 439.264 123.769 439.036 123.966C438.808 124.163 438.681 124.451 438.69 124.752L439.69 124.722ZM482.266 112.261L482.968 112.974L482.266 112.261ZM496.616 82.8542L495.646 82.61C495.627 82.6877 495.617 82.7674 495.616 82.8475L496.616 82.8542ZM491.434 61.2228L492.262 60.6615V60.6615L491.434 61.2228ZM463.006 45.6419L462.072 45.9992C462.208 46.3554 462.535 46.6031 462.915 46.6377L463.006 45.6419ZM432.72 18.5559L432.392 19.5006L432.72 18.5559ZM399.389 13.6699L398.893 14.5379C399.05 14.6278 399.228 14.6733 399.409 14.6697L399.389 13.6699ZM360.037 1.05547L359.999 2.05473V2.05473L360.037 1.05547ZM318.728 7.2103L318.413 8.15934C318.592 8.21867 318.784 8.22636 318.966 8.18153L318.728 7.2103ZM284.711 0.0338336L284.742 -0.965701L284.711 0.0338336ZM250.591 7.19545L250.34 8.16346C250.556 8.2195 250.785 8.20156 250.99 8.11248L250.591 7.19545ZM207.585 0.718267L207.636 1.71699V1.71699L207.585 0.718267ZM172.197 11.2626L172.183 12.2625C172.338 12.2648 172.493 12.2306 172.633 12.1627L172.197 11.2626ZM140.235 16.1883L139.767 15.3046L139.767 15.3046L140.235 16.1883ZM132.135 23.8642L131.26 23.3796L132.135 23.8642ZM129.499 34.7467L129.711 35.724C130.162 35.6259 130.488 35.2314 130.498 34.7694L129.499 34.7467ZM102.385 48.7724L103.199 49.3537L102.385 48.7724ZM102.469 68.8343L103.272 69.4297C103.512 69.106 103.534 68.6699 103.329 68.3236L102.469 68.8343ZM94.0219 87.8015L93.0234 87.8565L94.0219 87.8015ZM108.428 107.851L109.412 108.027C109.478 107.665 109.338 107.296 109.05 107.067L108.428 107.851ZM109.234 117.999L108.314 118.391L109.234 117.999ZM115.864 125.171L116.37 124.308L115.864 125.171ZM141.235 130.124L142.231 130.034C142.185 129.522 141.757 129.128 141.242 129.124L141.235 130.124ZM143.865 135.846L144.578 135.144L143.865 135.846ZM144.714 136.619L145.63 137.019C145.81 136.609 145.694 136.129 145.347 135.845L144.714 136.619ZM133.244 151.315L132.516 150.63L133.244 151.315ZM131 153.66L130.283 152.963C129.911 153.345 129.905 153.952 130.269 154.342C130.633 154.732 131.24 154.768 131.647 154.423L131 153.66ZM133.019 152.537L132.583 151.637H132.583L133.019 152.537ZM133.848 152.132L133.405 151.235L133.405 151.235L133.848 152.132ZM150.537 139.48L150.814 138.519C150.463 138.418 150.085 138.516 149.828 138.774L150.537 139.48ZM150.809 139.556L150.543 140.52L150.543 140.52L150.809 139.556ZM171.644 140.105L172.574 139.737C172.406 139.313 171.973 139.056 171.521 139.112L171.644 140.105ZM172.878 141.921L173.604 141.233L173.604 141.233L172.878 141.921ZM176.469 144.643L175.96 145.505L176.469 144.643ZM188.982 149.334L188.76 150.309L188.982 149.334ZM227.807 146.338L228.447 145.569C228.169 145.338 227.788 145.275 227.451 145.404L227.807 146.338ZM267.72 157.997L267.728 158.997L267.72 157.997ZM149.461 139.142L150.167 139.85C150.412 139.607 150.513 139.254 150.436 138.917C150.358 138.58 150.112 138.307 149.785 138.195L149.461 139.142ZM145.534 137.232L146.099 136.406C145.856 136.24 145.554 136.19 145.27 136.267C144.987 136.345 144.753 136.542 144.628 136.808L145.534 137.232ZM136.809 149.382L136.294 148.525H136.294L136.809 149.382ZM135.9 149.915L135.16 149.242C134.83 149.606 134.813 150.157 135.12 150.54C135.428 150.924 135.969 151.027 136.396 150.783L135.9 149.915ZM142.768 141.634L141.96 141.044L142.768 141.634ZM145.238 137.822L146.121 138.291H146.121L145.238 137.822ZM267.696 154.997C253.104 155.116 238.186 151.344 229.308 143.677L228.001 145.191C237.394 153.302 252.874 157.118 267.712 156.997L267.696 154.997ZM288.042 152.004C282.005 153.917 274.949 154.939 267.696 154.997L267.712 156.997C275.131 156.937 282.39 155.893 288.647 153.91L288.042 152.004ZM302.082 143.858C298.992 147.311 294.104 150.083 288.042 152.004L288.647 153.91C294.904 151.928 300.159 149.006 303.572 145.191L302.082 143.858ZM303.683 143.194C303.076 143.16 302.487 143.405 302.082 143.858L303.572 145.191H303.572L303.683 143.194ZM305.202 144.031C304.849 143.536 304.29 143.228 303.683 143.194L303.572 145.191H303.572L305.202 144.031ZM315.304 150.361C310.44 148.674 306.917 146.441 305.202 144.031L303.572 145.191C305.644 148.103 309.636 150.512 314.649 152.25L315.304 150.361ZM331.924 153.282C325.937 153.062 320.103 152.024 315.304 150.361L314.649 152.25C319.662 153.988 325.695 155.055 331.85 155.281L331.924 153.282ZM349.217 151.349C343.966 152.9 337.912 153.502 331.924 153.282L331.85 155.281C338.006 155.507 344.283 154.892 349.783 153.267L349.217 151.349ZM361.491 143.943C358.787 147.328 354.485 149.792 349.217 151.349L349.783 153.267C355.284 151.641 360.007 149.006 363.054 145.191L361.491 143.943ZM363.503 143.242C362.753 143.07 361.971 143.342 361.491 143.943L363.054 145.191L363.054 145.191L363.503 143.242ZM411.256 146.553C395.681 148.705 376.471 146.228 363.503 143.242L363.054 145.191C376.137 148.203 395.615 150.733 411.529 148.534L411.256 146.553ZM430.225 139.605C425.702 143.269 419.053 145.476 411.256 146.553L411.529 148.534C419.487 147.435 426.553 145.153 431.484 141.159L430.225 139.605ZM436.631 123.652C437.169 130.969 434.633 136.034 430.225 139.605L431.484 141.159C436.415 137.164 439.21 131.457 438.625 123.505L436.631 123.652ZM437.3 122.007C436.832 122.421 436.585 123.029 436.631 123.652L438.625 123.505V123.505L437.3 122.007ZM439.014 121.543C438.402 121.422 437.768 121.594 437.3 122.007L438.625 123.505L438.625 123.505L439.014 121.543ZM480.161 110.124C471.154 118.996 457.563 125.218 439.014 121.543L438.625 123.505C457.884 127.32 472.132 120.84 481.565 111.549L480.161 110.124ZM493.616 82.7261C493.616 89.5321 489.28 101.143 480.161 110.124L481.565 111.549C490.998 102.258 495.616 90.1554 495.616 82.7261H493.616ZM493.682 82.2183C493.639 82.384 493.616 82.5547 493.616 82.7261H495.616V82.7261L493.682 82.2183ZM488.951 62.9066C493.791 70.043 494.808 77.929 493.682 82.2183L495.616 82.7261C496.917 77.7733 495.704 69.3002 490.606 61.784L488.951 62.9066ZM462.134 48.5785C475.761 49.6548 484.193 55.8903 488.951 62.9066L490.606 61.784C485.509 54.268 476.528 47.7091 462.291 46.5847L462.134 48.5785ZM460.413 47.272C460.682 48.0065 461.354 48.5169 462.134 48.5785L462.291 46.5847V46.5847L460.413 47.272ZM431.737 21.3901C443.953 25.6301 455.326 33.3705 460.413 47.272L462.291 46.5847C456.924 31.9194 444.938 23.8551 432.392 19.5006L431.737 21.3901ZM399.179 16.6751C406.662 16.504 419.503 17.1442 431.737 21.3901L432.392 19.5006C419.846 15.1462 406.74 14.5017 399.133 14.6756L399.179 16.6751ZM398.137 16.4099C398.454 16.5917 398.814 16.6834 399.179 16.6751L399.133 14.6756L399.133 14.6756L398.137 16.4099ZM359.922 4.05325C371.843 4.51152 383.483 7.99309 398.137 16.4099L399.133 14.6756C384.268 6.13771 372.315 2.52819 359.999 2.05473L359.922 4.05325ZM319.163 10.1925C335.495 6.18257 347.921 3.59192 359.922 4.05325L359.999 2.05473C347.683 1.58127 335.004 4.24389 318.686 8.25024L319.163 10.1925ZM318.054 10.1478C318.412 10.267 318.797 10.2825 319.163 10.1926L318.686 8.25023L318.686 8.25023L318.054 10.1478ZM284.619 3.03244C295.094 3.35218 305.642 6.01359 318.054 10.1477L318.686 8.25024C306.215 4.09631 295.448 1.36204 284.68 1.03337L284.619 3.03244ZM251.478 10.0819C263.711 4.71758 274.184 2.71393 284.619 3.03244L284.68 1.03337C273.913 0.704721 263.146 2.78167 250.674 8.25024L251.478 10.0819ZM250.171 10.1859C250.606 10.2989 251.066 10.2623 251.478 10.0819L250.674 8.25022L250.674 8.25023L250.171 10.1859ZM207.737 3.71442C218.943 3.14714 231.526 5.34024 250.171 10.1859L250.674 8.25024C231.999 3.39671 219.166 1.1333 207.636 1.71698L207.737 3.71442ZM173.293 14.0653C186.641 7.58527 196.588 4.27879 207.737 3.71442L207.636 1.71698C196.106 2.30066 185.88 5.73139 172.42 12.2661L173.293 14.0653ZM172.388 14.2658C172.702 14.2707 173.011 14.202 173.293 14.0653L172.42 12.2661L172.42 12.2661L172.388 14.2658ZM141.64 18.8393C148.06 15.4386 158.098 14.0439 172.388 14.2658L172.42 12.2661C158.085 12.0434 147.602 13.4177 140.704 17.0719L141.64 18.8393ZM134.759 25.318C136.237 22.6503 138.484 20.5109 141.64 18.8393L140.704 17.0719C137.254 18.8991 134.701 21.2963 133.01 24.3488L134.759 25.318ZM132.49 35.558C132.49 31.3544 133.272 28.0014 134.759 25.318L133.01 24.3488C131.318 27.4013 130.49 31.1093 130.49 35.558H132.49ZM130.899 37.5157C131.826 37.322 132.49 36.5049 132.49 35.558H130.49H130.49L130.899 37.5157ZM104.826 50.5164C108.595 45.2412 116.823 40.4585 130.899 37.5157L130.49 35.558C116.238 38.5376 107.405 43.4673 103.199 49.3537L104.826 50.5164ZM105.369 67.8288C101.425 61.5257 101.205 55.5841 104.826 50.5164L103.199 49.3537C98.9935 55.2395 99.4144 62.0824 103.674 68.8897L105.369 67.8288ZM105.277 70.0857C105.77 69.4244 105.807 68.5281 105.369 67.8288L103.674 68.8897L103.674 68.8897L105.277 70.0857ZM97.0173 87.6365C96.8802 85.1467 97.5578 82.6054 98.9782 79.746C100.403 76.8773 102.546 73.7461 105.277 70.0857L103.674 68.8897C100.932 72.5647 98.697 75.8165 97.187 78.8563C95.6723 81.9056 94.858 84.7985 95.0203 87.7465L97.0173 87.6365ZM110.759 105.869C100.815 98.0634 97.2881 92.5535 97.0173 87.6365L95.0203 87.7465C95.3427 93.5999 99.5247 99.5931 109.525 107.442L110.759 105.869ZM111.485 107.84C111.635 107.098 111.354 106.336 110.759 105.869L109.525 107.442L109.525 107.442L111.485 107.84ZM111.993 116.823C111.002 114.497 110.729 111.563 111.485 107.84L109.525 107.442C108.709 111.458 108.966 114.821 110.154 117.607L111.993 116.823ZM117.382 122.583C114.765 121.048 112.981 119.14 111.993 116.823L110.154 117.607C111.341 120.393 113.46 122.602 116.37 124.309L117.382 122.583ZM142.191 127.128C131.243 127.128 122.718 125.714 117.382 122.583L116.37 124.309C122.189 127.722 131.17 129.128 142.191 129.128V127.128ZM144.191 129.128C144.191 128.023 143.295 127.128 142.191 127.128V129.128H144.191ZM146.003 133.741C144.844 132.564 144.191 131.083 144.191 129.128H142.191C142.191 131.595 143.042 133.584 144.578 135.144L146.003 133.741ZM151.606 136.664C149.068 135.965 147.209 134.966 146.003 133.741L144.578 135.144C146.114 136.705 148.334 137.837 151.075 138.592L151.606 136.664ZM172.156 137.014C163.948 138.106 156.704 138.069 151.606 136.664L151.075 138.592C156.555 140.102 164.112 140.102 172.42 138.997L172.156 137.014ZM173.737 137.492C173.304 137.113 172.727 136.938 172.156 137.014L172.42 138.997H172.42L173.737 137.492ZM174.42 138.997C174.42 138.42 174.171 137.872 173.737 137.492L172.42 138.997H172.42H174.42ZM175.056 139.858C174.742 139.526 174.574 139.277 174.488 139.115C174.396 138.942 174.42 138.909 174.42 138.997H172.42C172.42 139.649 172.829 140.414 173.604 141.233L175.056 139.858ZM177.994 142.06C176.634 141.257 175.661 140.497 175.056 139.858L173.604 141.233C174.379 142.051 175.518 142.921 176.977 143.782L177.994 142.06ZM189.649 146.409C184.697 145.28 180.702 143.659 177.994 142.06L176.977 143.782C179.895 145.505 184.091 147.193 189.204 148.359L189.649 146.409ZM227.272 143.329C213.019 148.907 199.538 148.664 189.649 146.409L189.204 148.359C199.431 150.691 213.326 150.934 228.001 145.191L227.272 143.329ZM229.308 143.677C228.747 143.193 227.963 143.058 227.272 143.329L228.001 145.191L228.001 145.191L229.308 143.677ZM302.798 146.01C299.387 149.428 294.444 152.073 288.647 153.91L289.251 155.817C295.235 153.921 300.501 151.143 304.213 147.423L302.798 146.01ZM314.649 152.25C310.156 150.692 306.468 148.59 304.259 146.059L302.752 147.374C305.288 150.279 309.349 152.529 313.994 154.14L314.649 152.25ZM331.85 155.281C325.695 155.055 319.662 153.988 314.649 152.25L313.994 154.14C319.22 155.952 325.453 157.047 331.777 157.279L331.85 155.281ZM349.783 153.267C344.283 154.892 338.006 155.507 331.85 155.281L331.777 157.279C338.1 157.512 344.6 156.884 350.35 155.185L349.783 153.267ZM362.672 145.653C359.62 149.22 355.058 151.708 349.783 153.267L350.35 155.185C355.849 153.56 360.804 150.912 364.192 146.953L362.672 145.653ZM411.529 148.534C395.857 150.699 376.728 148.279 363.652 145.327L363.212 147.278C376.4 150.255 395.794 152.727 411.803 150.515L411.529 148.534ZM431.484 141.159C426.553 145.153 419.487 147.435 411.529 148.534L411.803 150.515C419.92 149.394 427.404 147.038 432.743 142.713L431.484 141.159ZM438.69 124.752C438.907 132.051 436.159 137.371 431.484 141.159L432.743 142.713C437.905 138.532 440.925 132.613 440.689 124.693L438.69 124.752ZM481.565 111.549C472.333 120.642 458.493 127.039 439.864 123.738L439.515 125.707C458.845 129.133 473.322 122.475 482.968 112.974L481.565 111.549ZM495.616 82.8475C495.566 90.2887 490.945 102.31 481.565 111.549L482.968 112.974C492.663 103.425 497.562 90.9169 497.616 82.8609L495.616 82.8475ZM490.606 61.784C495.663 69.2396 496.898 77.6395 495.646 82.61L497.586 83.0984C499.002 77.4744 497.575 68.4958 492.262 60.6615L490.606 61.784ZM462.915 46.6377C476.79 47.902 485.583 54.3774 490.606 61.784L492.262 60.6615C486.906 52.7641 477.574 45.9652 463.097 44.646L462.915 46.6377ZM432.392 19.5006C444.771 23.7971 456.604 31.7053 462.072 45.9992L463.94 45.2846C458.186 30.2438 445.751 22.0201 433.048 17.6112L432.392 19.5006ZM399.409 14.6697C407.056 14.5177 419.998 15.1987 432.392 19.5006L433.048 17.6112C420.344 13.2018 407.14 12.5156 399.37 12.6701L399.409 14.6697ZM359.999 2.05473C372.249 2.52564 384.139 6.099 398.893 14.5379L399.886 12.8019C384.921 4.24208 372.718 0.54221 360.076 0.0562086L359.999 2.05473ZM318.966 8.18153C335.149 4.21339 347.754 1.58399 359.999 2.05473L360.076 0.0562087C347.516 -0.426605 334.66 2.27396 318.49 6.23907L318.966 8.18153ZM284.68 1.03337C295.369 1.35962 306.058 4.0564 318.413 8.15934L319.043 6.26126C306.627 2.1381 295.72 -0.630578 284.742 -0.965701L284.68 1.03337ZM250.99 8.11248C263.327 2.74691 274.004 0.707472 284.68 1.03337L284.742 -0.965701C273.736 -1.30164 262.767 0.809591 250.192 6.27842L250.99 8.11248ZM207.636 1.71699C219.096 1.13681 231.846 3.36966 250.34 8.16346L250.842 6.22744C232.316 1.42537 219.317 -0.876944 207.535 -0.280455L207.636 1.71699ZM172.633 12.1627C185.988 5.69523 196.167 2.29756 207.636 1.71699L207.535 -0.280455C195.686 0.319327 185.23 3.83994 171.761 10.3626L172.633 12.1627ZM140.704 17.072C147.564 13.4381 157.969 12.0586 172.183 12.2625L172.211 10.2627C157.951 10.0582 147.104 11.4183 139.767 15.3046L140.704 17.072ZM133.01 24.3488C134.701 21.2963 137.254 18.8991 140.704 17.072L139.767 15.3046C136.024 17.2872 133.164 19.9421 131.26 23.3796L133.01 24.3488ZM130.498 34.7694C130.592 30.6689 131.419 27.2193 133.01 24.3488L131.26 23.3796C129.478 26.5969 128.598 30.3815 128.499 34.724L130.498 34.7694ZM103.199 49.3537C107.327 43.5764 115.913 38.7194 129.711 35.724L129.287 33.7695C115.309 36.8039 106.129 41.8121 101.572 48.191L103.199 49.3537ZM103.329 68.3236C99.397 61.7058 99.1073 55.0802 103.199 49.3537L101.572 48.191C96.9146 54.7088 97.3727 62.2142 101.609 69.3451L103.329 68.3236ZM95.0203 87.7465C94.7063 82.0433 98.0579 76.467 103.272 69.4297L101.666 68.239C96.5027 75.2064 92.6643 81.3361 93.0234 87.8565L95.0203 87.7465ZM109.05 107.067C99.3897 99.4001 95.3375 93.5047 95.0203 87.7465L93.0234 87.8565C93.3914 94.5386 98.0818 100.915 107.807 108.634L109.05 107.067ZM110.154 117.607C109.024 114.957 108.737 111.786 109.412 108.027L107.444 107.674C106.716 111.723 106.998 115.305 108.314 118.391L110.154 117.607ZM116.37 124.308C113.46 122.602 111.341 120.393 110.154 117.607L108.314 118.391C109.702 121.647 112.156 124.155 115.358 126.034L116.37 124.308ZM141.242 129.124C130.65 129.045 122.018 127.622 116.37 124.308L115.358 126.034C121.479 129.624 130.556 131.044 141.227 131.124L141.242 129.124ZM144.578 135.144C143.229 133.774 142.415 132.08 142.231 130.034L140.239 130.214C140.465 132.725 141.482 134.85 143.152 136.547L144.578 135.144ZM145.347 135.845C145.074 135.621 144.818 135.388 144.578 135.144L143.152 136.547C143.445 136.844 143.755 137.126 144.081 137.393L145.347 135.845ZM143.798 136.218C142.895 138.283 139.517 143.183 132.516 150.63L133.973 152C140.986 144.541 144.578 139.426 145.63 137.019L143.798 136.218ZM132.516 150.63C131.808 151.382 131.064 152.16 130.283 152.963L131.717 154.357C132.506 153.547 133.257 152.761 133.973 152L132.516 150.63ZM131.647 154.423C131.926 154.186 132.449 153.923 133.454 153.437L132.583 151.637C131.693 152.068 130.876 152.454 130.353 152.897L131.647 154.423ZM133.454 153.437C133.71 153.313 133.99 153.177 134.291 153.029L133.405 151.235C133.112 151.38 132.839 151.512 132.583 151.637L133.454 153.437ZM134.291 153.029C137.546 151.421 143.133 148.339 151.246 140.185L149.828 138.774C141.886 146.757 136.484 149.715 133.405 151.235L134.291 153.029ZM151.075 138.592C150.987 138.568 150.9 138.544 150.814 138.519L150.261 140.441C150.354 140.468 150.449 140.494 150.543 140.52L151.075 138.592ZM171.521 139.112C163.565 140.101 156.355 140.047 151.075 138.592L150.543 140.52C156.195 142.077 163.709 142.098 171.768 141.097L171.521 139.112ZM173.604 141.233C173.123 140.725 172.765 140.218 172.574 139.737L170.715 140.473C171.033 141.278 171.573 141.997 172.152 142.608L173.604 141.233ZM176.977 143.782C175.518 142.921 174.379 142.051 173.604 141.233L172.152 142.608C173.096 143.605 174.402 144.585 175.96 145.505L176.977 143.782ZM189.204 148.359C184.091 147.193 179.895 145.505 176.977 143.782L175.96 145.505C179.088 147.351 183.485 149.106 188.76 150.309L189.204 148.359ZM227.451 145.404C212.98 150.928 199.303 150.661 189.204 148.359L188.76 150.309C199.192 152.687 213.277 152.955 228.164 147.272L227.451 145.404ZM267.712 156.997C253.109 157.116 237.88 153.422 228.447 145.569L227.167 147.107C237.107 155.381 252.878 159.118 267.728 158.997L267.712 156.997ZM288.647 153.91C282.39 155.893 275.131 156.937 267.712 156.997L267.728 158.997C275.313 158.936 282.774 157.869 289.251 155.817L288.647 153.91ZM149.785 138.195C148.386 137.717 147.147 137.123 146.099 136.406L144.97 138.057C146.197 138.896 147.605 139.563 149.137 140.088L149.785 138.195ZM137.325 150.238C140.462 148.349 144.721 145.272 150.167 139.85L148.756 138.433C143.415 143.75 139.282 146.725 136.294 148.525L137.325 150.238ZM136.396 150.783C136.694 150.613 137.004 150.432 137.325 150.238L136.294 148.525C135.986 148.71 135.69 148.884 135.405 149.046L136.396 150.783ZM141.96 141.044C140.386 143.201 138.156 145.945 135.16 149.242L136.641 150.587C139.673 147.249 141.951 144.45 143.575 142.223L141.96 141.044ZM144.356 137.352C143.862 138.28 143.076 139.515 141.96 141.044L143.575 142.223C144.723 140.65 145.567 139.332 146.121 138.291L144.356 137.352ZM144.628 136.808C144.549 136.977 144.459 137.159 144.356 137.352L146.121 138.291C146.238 138.072 146.345 137.86 146.44 137.655L144.628 136.808Z" fill="#333F72" mask="url(#path-30-inside-1_6_5942)"/>
</svg>
