<svg width="60" height="60" viewBox="0 0 60 60" fill="none" xmlns="http://www.w3.org/2000/svg">
<path d="M31.0538 27.1577C30.7903 27.7778 29.0779 27.7778 28.8145 27.1577C26.8386 22.7132 27.2338 18.062 27.3655 13.5142C27.4973 9.06978 27.7607 4.41861 28.9462 0.0775195C28.9462 -0.0258398 29.3414 -0.0258398 29.3414 0.0775195C30.7904 4.41861 31.3172 9.06978 31.7124 13.5142C32.1076 18.062 32.7662 22.7132 31.0538 27.1577Z" fill="#E9DAC6"/>
<path d="M28.9463 32.8424C29.2097 32.2222 30.9221 32.3256 31.1855 32.8424C33.1613 37.2868 32.7662 41.938 32.6345 46.4858C32.5028 50.9303 32.2393 55.5814 31.0538 59.9225C31.0538 60.0259 30.7904 60.0259 30.6587 59.9225C29.2097 55.5814 28.6828 50.9303 28.2877 46.4858C27.8925 41.938 27.3656 37.3902 28.9463 32.8424Z" fill="#E9DAC6"/>
<path d="M26.3118 29.5349C26.9704 29.6383 26.8386 30.6719 26.18 30.7752C21.8331 31.7054 17.3545 31.3954 13.0077 31.1886C8.79251 31.0853 4.31394 30.7752 0.0987924 29.9483C-0.0329308 29.9483 -0.0329308 29.7416 0.0987924 29.7416C4.44566 29.0181 8.92425 28.9147 13.2711 28.8114C17.618 28.708 22.0966 28.3979 26.3118 29.5349Z" fill="#E9DAC6"/>
<path d="M33.6883 30.5686C33.1614 30.3619 33.1613 29.4316 33.82 29.2249C38.1668 28.2947 42.6454 28.6048 46.9923 28.8115C51.3391 29.0182 55.8178 29.3283 59.9012 30.0518C60.0329 30.0518 60.0329 30.2585 59.9012 30.2585C55.6861 30.982 51.0757 31.1887 46.8606 31.2921C42.382 31.3955 37.9034 31.6022 33.6883 30.5686Z" fill="#E9DAC6"/>
</svg>
